<?xml version="1.0" encoding="utf-8"?>
<!-- Generator: Adobe Illustrator 19.2.1, SVG Export Plug-In . SVG Version: 6.00 Build 0)  -->
<svg version="1.1" id="Layer_1" xmlns="http://www.w3.org/2000/svg"  x="0px" y="0px"
	 viewBox="0 0 110.7 103.1" style="enable-background:new 0 0 110.7 103.1;" xml:space="preserve">
<style type="text/css">
	.st0{fill:#FFFFFF;}
	.st1{fill:#F39AC1;}
	.st2{fill:#FEFBFC;}
	.st3{fill:#FEFEFE;}
	.st4{fill:#FEFAFC;}
</style>
<path class="st0" d="M79.3,92c-1.1-0.5-1.4-1.5-1.9-2.4c-0.2-0.4-0.2-0.6,0.2-0.9c0.6-0.4,0.9-1,0.7-1.8c-0.2-0.9-0.8-1.3-1.6-1.5
	c-1.2-0.3-2.5,0-3.7,0c-0.1,0-0.3,0-0.3,0.2s0.1,0.3,0.2,0.3c0.5,0.1,0.5,0.5,0.6,0.9c0,1.4,0,2.7,0,4c0,0.5,0,1-0.7,1.1
	c-0.1,0-0.3,0.1-0.2,0.3c0,0.2,0.2,0.2,0.3,0.2c0.4,0,0.8,0,1.3,0s0.8,0,1.3,0c0.2,0,0.4,0,0.4-0.2c0-0.1-0.1-0.2-0.3-0.3
	C75.1,91.8,75,91.4,75,91c0-0.3,0-0.6,0-0.9c0-0.2-0.1-0.6,0.3-0.7s0.6,0.2,0.7,0.5c0.3,0.6,0.6,1.1,0.9,1.7
	c0.5,0.8,1.6,1.1,2.5,0.9c0.1,0,0.2-0.1,0.2-0.2C79.5,92.2,79.4,92.1,79.3,92z M76.6,87.9c0,0.5-0.3,0.9-0.8,0.9
	c-0.7,0.2-0.9,0-0.9-0.8c0-0.2,0-0.4,0-0.6s0-0.5,0-0.7c0-0.8,0.4-1,1-0.6C76.6,86.5,76.7,87.1,76.6,87.9z"/>
<path class="st1" d="M33.8,10.8c0-0.5,0-0.7,0-0.9c0-1.2,0.1-1.3,1.3-1.1c0.1,0,0.3,0.1,0.4,0.1c1.4,0.4,2.8,0.7,4.3,0.2
	c-0.9,1-1.9,1.7-3,2.2c-2.1,1-4.3,1.6-6.6,0.9c-1.9-0.6-3-2.3-2.6-4.2c0.1-0.4,0.2-0.8,0.6-1.1c0.2-0.1,0.5-0.1,0.7,0.1
	C29,7.1,29.1,7.2,29,7.5s-0.3,0.2-0.5,0.3c-0.6,0.1-0.4,0.6-0.4,0.9c0,0.5,0.3,0.9,0.9,0.8c0.5-0.1,0.9-0.3,1.4-0.6
	c1.2-0.8,1.6-0.7,2.4,0.5C33.1,9.8,33.4,10.3,33.8,10.8z"/>
<path class="st1" d="M70.8,9c1.6,0.6,3.1,0,4.7-0.3c1.2-0.3,1.3-0.1,1.3,1.1c0,0.2,0,0.5,0,0.8c0.5-0.4,0.7-0.9,1-1.4
	C78.5,8.1,78.9,8,80,8.7c0.4,0.3,0.9,0.5,1.4,0.6c0.6,0.1,0.9-0.2,1-0.7c0-0.4,0.4-1.1-0.6-1c-0.3,0-0.4-0.2-0.3-0.5
	s0.4-0.5,0.8-0.4C82.7,7,82.9,7.3,83,7.6c0.7,1.8-0.4,3.8-2.2,4.5c-2.9,1-5.4,0.1-7.9-1.3C72.1,10.3,71.4,9.9,70.8,9z"/>
<path class="st1" d="M66.5,2.1c0.4,0,0.7,0.2,0.6,0.5c0,0.4,0,0.9-0.6,0.9c-0.9,0-1.8,0.1-2.6,0.6c-0.1,0.1-0.3,0.1-0.4,0
	c-0.1-0.2,0-0.3,0.1-0.4C64.5,2.7,65.5,2.3,66.5,2.1z"/>
<path class="st1" d="M44.1,2.1c1,0.3,2,0.6,2.7,1.4C46.9,3.6,47.1,3.8,47,4c-0.1,0.2-0.3,0.1-0.5,0c-0.7-0.4-1.5-0.5-2.4-0.5
	c-0.6,0-0.7-0.5-0.7-0.9C43.4,2.2,43.8,2.1,44.1,2.1z"/>
<path class="st1" d="M41.2,6.2C41.3,5.1,42.6,4,43.7,4c0.9,0,1.8,0.2,2.6,0.5c0.2,0.1,0.5,0.1,0.5,0.3c0,0.3-0.3,0.3-0.5,0.3
	c-1.3,0.4-2.7,0.7-4,0.9C41.9,6.1,41.5,6.1,41.2,6.2L41.2,6.2z"/>
<path class="st1" d="M61.5,0c0.9,0.9,0.8,1.9,0.3,2.9c0.5,0.1,1-0.4,1.2,0.3s0.7,1.4-0.2,2c-0.1,0.1-0.3,0.2-0.2,0.4
	c0.1,0.2,0.3,0.1,0.4,0.1c1.6-0.4,3,0.2,4.5,0.7c0.7,0.2,1.3,0.2,1.9-0.2l0,0c0.5,0,1.1-0.1,1.4,0.3c0.4,0.5,0.9,0.9,1.4,1.4
	c0.5,0.4,0.2,0.9-0.5,1C71,9,70.3,8.8,69.6,8.5C68.4,7.8,67,7,65.5,6.7c-1.9-0.4-3.8-0.7-5.8-0.3c-1.9,0.4-3.2,1.5-3.9,3.3
	c-0.1,0.3-0.3,0.6-0.4,0.9c0,0,0,0-0.1,0.1c-0.1-0.4-0.3-0.7-0.4-1C54,7.5,52.3,6.4,50,6.2c-2.8-0.2-5.6,0.3-8.1,1.7
	c-0.7,0.4-1.5,0.9-2.4,0.9c-0.2,0-0.5,0-0.7,0c-0.3-0.1-0.6-0.2-0.7-0.5c0-0.2,0.2-0.6,0.4-0.7c0.5-0.3,0.8-0.5,1.1-1s1-0.4,1.6-0.4
	l0,0c0.6,0.4,1.2,0.5,1.9,0.2c1.4-0.5,2.9-1,4.5-0.7c0.1,0,0.3,0.1,0.4-0.1c0.1-0.2-0.1-0.3-0.2-0.4c-0.5-0.6-0.6-1.4-0.2-2.1
	c0.3-0.5,0.7-0.2,1.2-0.2c-0.4-1-0.6-2.1,0.4-2.9c0.4,0,0.7,0,1.1,0c0.1,0.3,0.5,0.8-0.3,0.8c-0.3,0-0.6-0.2-0.7,0.2
	c-0.1,0.4-0.2,0.9,0.1,1.3c0.1,0.1,0.3,0.3,0.5,0.1c0.7-0.8,0.7,0,0.8,0.4c0.1,0.3,0,0.8,0.3,0.9c0.8,0.2,1.2,0.9,1.5,1.6
	c0.4-1,0.6-1,1.3-0.3c0.6,0.6,0.9,1.4,1.1,2.2c0.1,0.5,0.2,0.9,0.2,1.4c0.3-0.1,0.2-0.4,0.3-0.6c0.2-1.1,0.4-2.1,1.2-3
	c0.3-0.3,0.5-0.6,0.9-0.6s0.3,0.5,0.6,0.8c0.2-0.7,0.6-1.2,1.2-1.4c0.4-0.1,0.5-0.3,0.5-0.7c0.1-0.3,0.1-0.6,0.3-0.8
	c0.1-0.3,0.3-0.4,0.5-0.1s0.4,0.4,0.7,0.1c0.4-0.4,0.3-0.8,0.1-1.3c-0.1-0.3-0.3-0.3-0.6-0.2C60,1,60.3,0.5,60.4,0
	C60.8,0,61.1,0,61.5,0z"/>
<path class="st1" d="M45.7,12c0-0.5,0.2-0.8,0.7-0.7c0.5,0,0.9,0.7,0.8,1.3c-0.1,0.6-0.3,1-1,1.2C45.6,14,45,14,44.4,13.9
	c-0.3,0-0.8-0.6-0.8,0.3c0,0.1-0.3,0.1-0.5,0c-0.3-0.2-0.4-0.4-0.6-0.7c-0.1-0.2-0.1-0.6-0.6-0.3c-0.3,0.2-0.8-0.8-0.8-1.4
	c0-0.2,0.2-0.5,0-0.7c-0.4,0.1-0.6,0.6-0.9,0.9c-0.2,0.2-0.4,0.6-0.7,0.1c-0.1-0.1-0.2-0.1-0.3,0c-0.7,0.4-1.1,1.1-2,1.1
	c-0.1,0-0.2,0-0.1,0.2c0.4,0.9-0.6,1.4-0.6,2.2c0,0.4-0.3,0.4-0.6,0.1c-0.6-0.6-0.5-1.3-0.5-2.1c-0.6,0.2-0.9,0.6-0.9,1.2
	c0,0.4-0.2,0.5-0.5,0.5c-1.1-0.1-2.8-1.4-3.2-2.5c1.2,0.2,2.3,0.3,3.5,0.2c1.9-0.2,3.2-1.4,4.7-2.4c1.9-1.3,3.7-2.9,6-3.6
	c1.6-0.5,3.2-0.7,4.8-0.5c2.4,0.3,3.9,1.8,4.7,4c0.3,0.8,0.6,1.7,0.5,2.7c-0.6-0.6-1.3-0.5-1.9-0.3c-0.6,0.2-1,0-1.4-0.4
	c-0.4-0.3-0.6-0.8-1.2-0.9c-0.4,0-0.1-0.4,0-0.5c0.4-0.7,1-1.1,1.9-1c-1.2-0.1-2.5-0.8-3.7,0.3C49,9.2,49.7,8.3,51,8
	c-0.5-0.1-1-0.1-1.4,0.3c-0.7,0.6-2.3,0.7-3.1,0.3c-0.1-0.1-0.3-0.1-0.2-0.3C46.3,7.8,46,8,45.8,8c-0.3,0-0.6,0.2-0.8-0.3
	c-0.1-0.3-0.3-0.1-0.5,0c-0.4,0.2-0.8,0.4-1.2,0.7c0.6,0,0.8,0.9,1.5,0.6C44.9,9,45,9.3,45,9.4c0,0.3,0,0.5-0.3,0.7
	c-0.1,0.1-0.3,0.1-0.6,0.1C44.9,10.6,45.1,11.5,45.7,12c0,0.1,0,0.2,0.1,0.3c0.1,0.2,0.3,0.4,0.6,0.3c0.2-0.1,0.3-0.3,0.2-0.5
	C46.5,11.8,46.2,12,46,12C45.8,12.1,45.7,12,45.7,12z M49.8,7.5c-1.1-0.6-2.3-0.6-3.4-0.2C47.5,7.7,48.7,7.2,49.8,7.5z M50.2,9.6
	c0.1-0.1,0.2-0.2,0.3-0.3c-0.1,0-0.1-0.1-0.2-0.1c-0.1,0-0.3,0.1-0.3,0.2C50,9.5,50.1,9.5,50.2,9.6z"/>
<path class="st1" d="M65,12.1c0.5-0.6,0.7-1.4,1.5-1.9c-0.6,0-0.8-0.3-0.8-0.7c0-0.2,0-0.4,0.2-0.4c0.7,0.3,0.9-0.6,1.6-0.5
	c-0.5-0.5-0.9-0.7-1.3-0.9c-0.2-0.1-0.4,0-0.6,0.1C65,8.1,64.5,8.5,64,8.6c-1,0.4-2.1,0.6-3-0.4c-0.2-0.3-0.7-0.3-1.2-0.1
	c1.3,0.3,2,1.2,2.3,2.5c-1.2-1.1-2.4-0.5-3.7-0.4c0.9,0,1.5,0.3,1.9,1c0.1,0.2,0.3,0.5-0.2,0.5c-0.4,0-0.6,0.4-0.8,0.7
	c-0.5,0.5-1,0.8-1.8,0.6c-0.6-0.2-1.2-0.2-1.7,0.3c-0.1-3.3,2.1-6.7,5.9-6.8c3.4-0.1,6.2,1.3,8.8,3.3c1,0.8,2,1.5,3.1,2.2
	c1.5,1,3.2,1.2,5,1c0.4,0,0.8-0.1,1.3-0.2c-0.4,1.1-2.1,2.4-3.2,2.5c-0.4,0-0.5-0.1-0.5-0.5c0-0.5-0.4-0.9-0.9-1.2
	c-0.1,0.7,0.1,1.4-0.4,1.9c-0.1,0.2-0.3,0.4-0.5,0.4c-0.3,0-0.3-0.3-0.3-0.5c-0.1-0.7-0.9-1.1-0.6-2c0-0.1,0-0.2-0.1-0.2
	c-0.9,0-1.3-0.8-2-1.1L71.3,12c-0.9,0.8-1-0.4-1.4-0.6c-0.1-0.1-0.2-0.3-0.5-0.2c0,0.5,0.2,1.1-0.2,1.6C69,13,69,13.5,68.5,13.1
	c-0.2-0.1-0.2,0.1-0.3,0.3c-0.2,0.3-0.3,0.6-0.6,0.8c-0.2,0.1-0.5,0.2-0.6,0c0-0.9-0.5-0.3-0.8-0.3c-1,0.2-2.5,0-2.7-1.1
	c-0.1-0.4,0-0.8,0.2-1.1s0.4-0.5,0.8-0.4C64.8,11.4,65,11.7,65,12.1c-0.3,0.1-0.9-0.6-0.9,0.3c0,0.1,0.1,0.4,0.3,0.3
	C64.8,12.7,64.9,12.4,65,12.1z M64.2,7.3c-1.2-0.4-2.3-0.4-3.4,0.2C61.9,7.2,63.1,7.7,64.2,7.3z M60.6,9.5c0-0.2-0.2-0.2-0.3-0.2
	c0,0-0.1,0.1-0.2,0.1c0.1,0.1,0.2,0.2,0.3,0.2C60.5,9.5,60.6,9.5,60.6,9.5z"/>
<path class="st1" d="M105.1,29.1c0-0.1,0-0.3,0-0.4c0-0.5-0.1-0.7-0.6-0.7c-0.7,0-1.4-0.2-2.1-0.3c-3.9-1-6.5-4.1-6.6-7.8
	c0-1.2,0-1.2-1.3-1.2c-26.1,0-52.1,0-78.2,0c-0.2,0-0.4,0-0.6,0c-0.5,0-0.7,0.1-0.7,0.6c0,0.7-0.2,1.4-0.3,2.1c-1,3.9-4.1,6.5-8,6.6
	c-1,0-1.1,0-1.1,1.1c0,14.3,0,28.6,0,43c0,1.6,0,1.5,1.6,1.8c0.2,0,0.4,0.1,0.6,0.1c4.2,0.8,7.1,4.1,7.2,8.1c0,0.8,0.3,1,1,1
	c13.1,0,26.2,0,39.3,0s26.3,0,39.4,0c0.8,0,0.9-0.2,1-0.9c0.4-3.1,1.6-5.7,4.5-7.3c1.2-0.7,2.6-1,3.9-1c0.8,0,0.9-0.3,0.9-1.1
	C105.1,58.2,105.1,43.6,105.1,29.1z"/>
<g>
	<path class="st0" d="M49.5,78.4c0.5,0,0.8-0.1,1-0.2c0.2-0.2,0.3-0.3,0.3-0.4c0.1,0,0.2,0,0.2,0.1c-0.1,0.5-0.3,1-0.5,1.3
		c-0.4,0-0.9,0-1.3,0h-1.5c-0.6,0-0.9,0-1.1,0c0,0-0.1,0-0.1-0.1c0,0,0-0.1,0.1-0.1c0.5-0.3,0.8-0.7,1.6-1.5
		c0.7-0.7,1.5-1.7,1.5-2.8c0-0.9-0.5-1.5-1.3-1.5c-0.6,0-1.1,0.4-1.4,1c-0.1,0-0.3,0-0.3-0.1c0.3-0.9,1.1-1.5,2.1-1.5
		s1.7,0.7,1.7,1.7c0,0.6-0.3,1.4-1.1,2.3l-0.6,0.7c-0.8,1-0.9,1.1-0.9,1.2s0,0.1,0.3,0.1L49.5,78.4L49.5,78.4L49.5,78.4z"/>
	<path class="st0" d="M55.8,75.8c0,1.6-0.6,3.4-2.1,3.4s-2.1-1.8-2.1-3.4s0.6-3.4,2.1-3.4C55.1,72.4,55.8,74.2,55.8,75.8z
		 M52.4,75.8c0,1,0.1,3.1,1.2,3.1s1.2-2.1,1.2-3.1s-0.1-3.1-1.2-3.1C52.5,72.7,52.4,74.8,52.4,75.8z"/>
	<path class="st0" d="M57.5,74.3c0-0.7,0-0.9-0.5-1h-0.5c-0.1,0-0.1-0.2,0-0.2c0.9-0.2,1.4-0.4,1.7-0.6h0.1c0,0.2,0,0.7,0,1.3v4
		c0,0.8,0,1,0.5,1h0.4c0.1,0.1,0,0.2,0,0.3c-0.4,0-0.9,0-1.2,0c-0.4,0-0.8,0-1.2,0c-0.1,0-0.1-0.2,0-0.3h0.4c0.4,0,0.5-0.2,0.5-1
		L57.5,74.3L57.5,74.3z"/>
	<path class="st0" d="M61.2,73.4c1.1-1,2.3-1.4,3-1.5c0.1,0,0.1,0.2,0,0.2c-0.7,0.2-1.6,0.5-2.3,1.3c-0.9,0.9-1.2,2.1-1.2,3.1
		c0,1.2,0.4,2.3,1.4,2.3c0.8,0,1.2-0.7,1.2-1.6s-0.4-1.7-1.3-1.7c-0.2,0-0.4,0-0.5,0.1c-0.1,0-0.1-0.1,0-0.2c0.3-0.2,0.6-0.3,1-0.3
		c1,0,1.6,0.8,1.6,1.8c0,1.2-0.9,2.2-2.2,2.2c-1.5,0-2.2-1.2-2.2-2.6C59.8,75.7,60.1,74.4,61.2,73.4z"/>
</g>
<g>
	<path class="st2" d="M35.6,57.1c-0.3,1.5-0.7,2.9-1,4.4c-0.5,2.3-1,4.7-1.5,7c0,0.2-0.1,0.4-0.1,0.5c0,0.2,0,0.5-0.4,0.5
		c-0.3,0-0.4-0.2-0.5-0.4c-1.2-5-2.4-10-3.6-15c-0.1-0.4-0.2-0.5-0.6-0.5c-0.3,0-0.6,0-0.9,0c-0.1,0-0.3,0-0.3-0.2s0.1-0.3,0.3-0.3
		c1.6,0,3.2,0,4.8,0c0.2,0,0.2,0.1,0.2,0.2c0,0.2-0.1,0.2-0.2,0.2c-0.4,0-0.7,0-1.1,0c-0.3,0-0.4,0-0.3,0.4c0.7,2.8,1.3,5.5,2,8.3
		c0.3,1.1,0.5,2.2,0.8,3.4c0.2-0.4,0.3-0.8,0.4-1.2c0.6-2.7,1.2-5.4,1.8-8c0-0.1,0.1-0.1,0-0.2c-0.2-0.8-0.4-1.7-0.6-2.5
		c0-0.2-0.2-0.1-0.3-0.1c-0.4,0-0.7,0-1.1,0c-0.2,0-0.3,0-0.3-0.2s0.1-0.3,0.3-0.3c1.7,0,3.4,0,5.1,0c0.2,0,0.3,0,0.3,0.3
		c0,0.2-0.1,0.2-0.3,0.2c-0.5,0-0.9,0-1.4,0c-0.4,0-0.4,0.1-0.3,0.4c0.4,1.7,0.8,3.3,1.3,5c0.6,2.1,1.1,4.3,1.7,6.5
		c0,0.1,0,0.1,0.1,0.3c0.2-0.7,0.3-1.4,0.5-2c0.5-2.4,1-4.8,1.6-7.2c0.1-0.5,0.2-1.1,0.1-1.6c-0.1-0.7-0.6-1.1-1.3-1.2
		c-0.2,0-0.3-0.1-0.5-0.1s-0.2-0.1-0.2-0.2c0-0.1,0.1-0.2,0.2-0.2c0.1,0,0.1,0,0.2,0c1.3,0,2.7,0,4,0c0.1,0,0.4-0.1,0.4,0.2
		s-0.1,0.3-0.3,0.4c-1.2,0.3-1.7,1.2-2,2.3c-0.7,3.2-1.4,6.5-2.1,9.7c-0.3,1.1-0.5,2.3-0.7,3.4c0,0.2,0,0.4-0.4,0.4
		s-0.4-0.1-0.5-0.4c-0.6-2.2-1.1-4.4-1.7-6.6c-0.4-1.7-0.9-3.4-1.3-5.1C35.7,57.4,35.7,57.3,35.6,57.1z"/>
	<path class="st2" d="M17,47.3c0.2-0.7,0.3-1.5,0.5-2.3c0.5-2.3,1-4.6,1.5-6.9c0-0.1,0-0.2,0-0.3c-0.2-0.8-0.4-1.5-0.6-2.3
		c0-0.2-0.1-0.2-0.3-0.2c-0.4,0-0.8,0-1.2,0c-0.2,0-0.3,0-0.3-0.3c0-0.2,0.1-0.2,0.3-0.2c1.7,0,3.4,0,5.1,0c0.2,0,0.3,0.1,0.3,0.3
		s-0.1,0.2-0.3,0.2c-0.5,0-0.9,0-1.4,0c-0.4,0-0.4,0.1-0.3,0.4c0.5,1.8,0.9,3.6,1.4,5.5c0.5,2,1,4.1,1.5,6.1c0,0,0,0.1,0.1,0.2
		c0.2-0.7,0.3-1.3,0.5-1.9c0.5-2.4,1-4.8,1.6-7.2c0.1-0.5,0.1-0.9,0.1-1.4c0-0.8-0.5-1.3-1.3-1.5c-0.1,0-0.3-0.1-0.4-0.1
		c-0.2,0-0.3-0.1-0.3-0.3s0.2-0.2,0.3-0.2c1,0,2,0,3,0c0.4,0,0.7,0,1.1,0c0.1,0,0.3,0,0.3,0.2s-0.1,0.3-0.3,0.4
		c-0.7,0.1-1.3,0.5-1.6,1.1c-0.2,0.4-0.3,0.8-0.4,1.2c-0.6,2.8-1.2,5.7-1.9,8.5c-0.3,1.5-0.7,3-1,4.6c0,0.2-0.1,0.4-0.4,0.4
		s-0.4-0.2-0.4-0.4c-0.7-2.8-1.4-5.7-2.2-8.5c-0.3-1-0.5-2.1-0.8-3.1c0-0.1,0-0.1-0.1-0.3c-0.2,1-0.5,2-0.7,2.9
		c-0.5,2.3-1,4.7-1.6,7c-0.1,0.7-0.3,1.3-0.5,2c0,0.2,0,0.4-0.4,0.5c-0.4,0-0.4-0.2-0.5-0.5c-1-4.1-2-8.2-3-12.3
		c-0.2-0.9-0.5-1.9-0.7-2.8c-0.1-0.3-0.2-0.3-0.4-0.3c-0.4,0-0.7,0-1.1,0c-0.2,0-0.3,0-0.3-0.2S10,35,10.2,35c1.6,0,3.2,0,4.8,0
		c0.2,0,0.3,0,0.3,0.3s-0.1,0.2-0.3,0.2c-0.4,0-0.7,0-1.1,0c-0.2,0-0.3,0-0.2,0.3c0.3,1.4,0.7,2.8,1,4.2c0.6,2.4,1.2,4.9,1.8,7.4
		C16.9,47.2,16.9,47.2,17,47.3L17,47.3z"/>
	<path class="st2" d="M62.2,61c0.2,0.1,0.4,0.1,0.6,0.1c1.8,0.4,2.4,1.5,2.6,3.1c0.1,0.7,0.1,1.5,0.1,2.3c0,0.5,0.1,0.9,0.3,1.4
		c0.3,0.7,0.9,1.1,1.7,0.9c0.1,0,0.2,0,0.4-0.1c0.1,0,0.2-0.1,0.3,0c0,0.1,0.1,0.3-0.1,0.4c-1,0.4-3.2,0.3-3.9-1
		c-0.3-0.6-0.4-1.2-0.5-1.9c-0.1-0.9,0-1.9-0.2-2.9c0-0.3-0.1-0.5-0.1-0.8c-0.3-0.9-0.9-1.4-1.9-1.4c-0.8,0-1.6,0-2.5,0
		c-0.3,0-0.3,0.1-0.3,0.3c0,2.3,0,4.5,0,6.8c0,0.3,0.1,0.3,0.4,0.3c0.5,0,1,0,1.5,0c0.2,0,0.3,0,0.3,0.3c0,0.2-0.1,0.2-0.3,0.2
		c-1.9,0-3.8,0-5.7,0c-0.2,0-0.3,0-0.3-0.2s0.1-0.2,0.3-0.2c0.5,0,1,0,1.5,0c0.3,0,0.4-0.1,0.4-0.4c0-0.6,0-1.3,0-1.9
		c0-4.1,0-8.2,0-12.4c0-0.4-0.1-0.5-0.5-0.5c-0.5,0-0.9,0-1.4,0c-0.2,0-0.3,0-0.3-0.2s0.1-0.2,0.3-0.2c2.4,0,4.8,0,7.2,0
		c0.9,0,1.7,0.2,2.5,0.7c0.9,0.6,1.4,1.6,1.5,2.6c0.1,1.3-0.2,2.5-1.2,3.4c-0.7,0.6-1.4,0.9-2.3,1.1C62.3,61,62.2,61,62.2,61z
		 M58.6,57.2c0,1.1,0,2.2,0,3.3c0,0.1-0.1,0.4,0.2,0.4c1.2,0,2.3,0.1,3.5-0.2c0.6-0.2,1-0.6,1.2-1.2c0.4-1.3,0.4-2.7,0.2-4
		c-0.2-1.2-0.8-1.6-2-1.8c-0.9-0.1-1.8,0-2.7-0.1c-0.3,0-0.4,0.1-0.4,0.4C58.6,55,58.6,56.1,58.6,57.2z"/>
	<path class="st2" d="M71.1,61.1c0-2.4,0-4.7,0-7.1c0-0.3-0.1-0.5-0.4-0.4c-0.5,0-1,0-1.5,0c-0.2,0-0.3,0-0.3-0.2s0.1-0.2,0.3-0.2
		c2.1,0,4.2,0,6.3,0c2.3,0.1,3.9,1.3,5,3.2c0.7,1.3,1,2.7,1.1,4.2c0.1,1.9-0.2,3.7-1.1,5.4c-0.6,1.1-1.3,2-2.4,2.6
		c-0.8,0.5-1.7,0.6-2.6,0.6c-2.1,0-4.1,0-6.2,0c-0.2,0-0.4,0-0.4-0.2c0-0.3,0.2-0.2,0.4-0.2c0.4,0,0.8,0,1.2,0
		c0.7,0,0.6,0.1,0.6-0.6C71.1,65.8,71.1,63.4,71.1,61.1z M73,61.1c0,1.2,0,2.4,0,3.6s0,2.4,0,3.6c0,0.2,0,0.4,0.3,0.4
		c0.9,0,1.8,0,2.7-0.1c1-0.2,1.8-0.7,2.3-1.6c0.6-1,0.8-2.1,0.9-3.3c0.1-1.4,0.1-2.8,0.1-4.2c0-1.1-0.2-2.2-0.5-3.3
		c-0.4-1.4-1.2-2.3-2.7-2.6c-0.9-0.2-1.8-0.1-2.8-0.1c-0.3,0-0.4,0.1-0.4,0.4C73,56.4,73,58.7,73,61.1z"/>
	<path class="st2" d="M56.9,42.9c0-2.4,0-4.8,0-7.2c0-0.3-0.1-0.4-0.4-0.4c-0.5,0-1,0-1.5,0c-0.2,0-0.3,0-0.3-0.3
		c0-0.2,0.1-0.2,0.3-0.2c2.1,0,4.3-0.1,6.4,0c2.2,0.1,3.8,1.3,4.8,3.2c0.7,1.3,1,2.8,1,4.3c0,1.9-0.2,3.7-1.1,5.3s-2.1,2.8-4,3.1
		c-0.5,0.1-1,0.1-1.5,0.1c-1.9,0-3.8,0-5.6,0c-0.1,0-0.3,0-0.3-0.1c-0.1-0.1,0-0.2,0-0.3s0.1-0.1,0.2-0.1c0.5,0,1,0,1.5,0
		c0.3,0,0.4-0.1,0.4-0.4C56.9,47.7,56.9,45.3,56.9,42.9z M58.9,42.9c0,0.8,0,1.6,0,2.5c0,1.6,0,3.1,0,4.7c0,0.2-0.1,0.4,0.2,0.4
		c1.1,0,2.2,0.1,3.2-0.2c1.2-0.3,1.8-1.2,2.2-2.2c0.5-1.1,0.6-2.3,0.6-3.5c0.1-2.1,0-4.1-0.4-6.2c-0.4-1.7-1.3-2.7-2.8-2.9
		c-0.9-0.1-1.8,0-2.7-0.1c-0.4,0-0.4,0.1-0.4,0.4C58.9,38.2,58.9,40.5,58.9,42.9z"/>
	<path class="st3" d="M44.1,42.9c0-2.4,0-4.7,0-7.1c0-0.3-0.1-0.5-0.4-0.4c-0.5,0-1,0-1.6,0c-0.2,0-0.3,0-0.3-0.2s0.1-0.2,0.3-0.2
		c2.1,0,4.3-0.1,6.4,0c2.6,0.1,4.3,1.7,5.2,4c0.7,1.6,0.8,3.3,0.7,5s-0.6,3.2-1.5,4.6c-1,1.4-2.3,2.3-4.1,2.4
		c-2.2,0.1-4.4,0-6.7,0.1c-0.2,0-0.3,0-0.3-0.2s0.1-0.2,0.3-0.2c0.5,0,1,0,1.5,0c0.4,0,0.5-0.1,0.5-0.5
		C44.1,47.6,44.1,45.3,44.1,42.9z M46,42.9c0,2.4,0,4.8,0,7.2c0,0.2,0,0.4,0.3,0.4c0.9,0,1.8,0,2.7-0.1s1.8-0.6,2.3-1.4
		c0.8-1.3,1-2.7,1-4.1c0.1-1.2,0.1-2.4,0-3.6c0-1-0.2-2.1-0.4-3.1c-0.4-1.7-1.3-2.5-3-2.8c-0.8-0.1-1.7,0-2.5-0.1
		c-0.4,0-0.4,0.1-0.4,0.4C46,38.2,46,40.5,46,42.9z"/>
	<path class="st2" d="M31.1,42.9c0-2.3,0-4.7,0-7.1c0-0.4-0.1-0.5-0.5-0.5c-0.5,0-1,0-1.5,0c-0.2,0-0.3,0-0.3-0.3
		c0-0.2,0.1-0.2,0.2-0.2s0.2,0,0.2,0c3.4,0,6.8,0,10.3,0c0.4,0,0.5,0.1,0.5,0.5c0,1.5,0,3.1,0,4.6c0,0,0,0.1,0,0.2
		c0,0.1,0,0.2-0.1,0.3c-0.2,0-0.2-0.1-0.2-0.2c-0.1-0.8-0.3-1.6-0.6-2.4c-0.2-0.7-0.6-1.2-1.1-1.7c-0.6-0.5-1.3-0.7-2.1-0.7
		c-0.9,0-1.8,0-2.7,0c-0.3,0-0.4,0.1-0.4,0.4c0,2,0,4,0,6c0,0.3,0.1,0.4,0.4,0.4c1.1,0,2-0.2,2.6-1.2c0.4-0.6,0.5-1.3,0.6-2
		c0,0,0-0.1,0-0.2c0-0.1,0-0.2,0.1-0.2s0.1,0.1,0.1,0.2c0,0.1,0,0.1,0,0.2c0,2.2,0,4.4,0,6.6c0,0.1,0,0.1,0,0.2c0,0.1,0,0.2-0.1,0.2
		s-0.1-0.1-0.1-0.2c0-0.4-0.1-0.7-0.2-1.1c-0.2-0.9-0.5-1.6-1.5-1.9c-0.5-0.2-1.1-0.2-1.7-0.1c-0.3,0-0.2,0.2-0.2,0.4
		c0,1.8,0,3.7,0,5.5c0,0.6,0,1.2,0,1.8c0,0.1,0,0.3,0.2,0.3c1.1,0,2.1,0.1,3.2,0c1.5-0.2,2.3-1.1,2.8-2.4c0.4-0.9,0.6-1.9,0.7-2.9
		c0-0.2,0-0.5,0.2-0.5c0.3,0,0.1,0.3,0.1,0.5c0,1.8,0,3.6,0,5.5c0,0.3-0.1,0.4-0.4,0.4c-3.6,0-7.1,0-10.7,0c-0.1,0-0.3,0.1-0.3-0.1
		c0-0.2,0-0.4,0.2-0.4c0.4,0,0.8,0,1.2,0c0.7,0,0.7,0,0.7-0.7C31.1,47.5,31.1,45.2,31.1,42.9z"/>
	<path class="st2" d="M77.4,37c0,0.7,0,1.4,0,2.1c0,3,0,5.9,0,8.9c0,0.5,0.1,0.9,0.3,1.4c0.3,0.8,0.8,1.1,1.7,1.1
		c0.1,0,0.3-0.1,0.4,0.1c0.1,0.3,0,0.4-0.3,0.4c-1.5,0-3,0-4.4,0H75c-0.2,0-0.2,0-0.3-0.2c0-0.2,0.1-0.3,0.3-0.3
		c0.6,0,1.1-0.1,1.5-0.5s0.5-1,0.6-1.5c0.1-0.9,0.1-1.8,0.1-2.7c0-3,0-5.9,0-8.9c0-1.1-0.7-1.5-1.5-1.5c-0.2,0-0.4,0-0.6,0
		s-0.2-0.1-0.2-0.2c0-0.2,0-0.2,0.2-0.2c1.2,0,2.3,0,3.5,0c0.2,0,0.3,0.1,0.3,0.3c1.1,2.1,2.2,4.3,3.3,6.5c0.9,1.7,1.8,3.5,2.7,5.2
		c0.1-0.1,0.1-0.2,0.1-0.3c0-2.8,0-5.6,0-8.4c0-0.6-0.1-1.1-0.3-1.7c-0.3-0.7-0.8-1.1-1.6-1.1c-0.1,0-0.1,0-0.2,0
		c-0.2,0-0.3-0.1-0.3-0.3s0.1-0.2,0.3-0.2c1.6,0,3.1,0,4.7,0c0.2,0,0.3,0,0.3,0.2s-0.1,0.2-0.3,0.2c-0.6,0-1.1,0.1-1.4,0.6
		c-0.4,0.5-0.6,1.1-0.6,1.8c0,3.1,0,6.3,0,9.4c0,1.3,0,2.5,0,3.8c0,0.1,0.1,0.3-0.2,0.4c-0.2,0-0.3-0.1-0.4-0.3
		c-0.6-1.2-1.2-2.4-1.8-3.6c-1.8-3.4-3.5-6.7-5.2-10.1C77.6,37.2,77.5,37.1,77.4,37L77.4,37z"/>
	<path class="st2" d="M95.7,48.9c-0.2,0.5-0.5,0.9-0.8,1.3c-1.1,1.2-3,1.3-4.3,0.5c-1.7-1-2.6-2.7-3.1-4.5c-0.8-3.3-0.4-6.4,1.4-9.2
		c0.5-0.8,1.2-1.6,2.1-2c1.1-0.5,2.2-0.4,3.2,0.2c0.5,0.3,0.9,0.7,1.3,1.1c0.2,0.2,0.3,0.2,0.4,0c0.4-0.4,0.7-0.8,1.1-1.3
		c0.1-0.1,0.2-0.2,0.4-0.1c0.2,0,0.1,0.2,0.1,0.3c0,1.9,0,3.9,0,5.8c0,0.1,0,0.3-0.2,0.3S97,41.2,97,41c-0.2-1.2-0.6-2.4-1.2-3.4
		c-0.5-0.8-1-1.5-1.8-2c-1.4-0.8-3.2-0.5-4,1.3c-0.4,1-0.5,2-0.7,3c-0.2,1.7-0.3,3.4-0.2,5.1c0,1.3,0,2.7,0.5,4
		c0.8,2.1,3.5,2.5,4.8,1.1c0.6-0.6,0.8-1.4,0.9-2.2c0.1-1.1,0-2.3,0.1-3.4c0-0.3-0.1-0.4-0.4-0.4c-0.5,0-0.9,0-1.4,0
		c-0.2,0-0.3,0-0.3-0.2s0.1-0.2,0.3-0.2c1.8,0,3.6,0,5.4,0c0.2,0,0.3,0,0.3,0.2s-0.1,0.2-0.3,0.2c-0.4,0-0.8,0-1.2,0
		c-0.4,0-0.5,0.1-0.5,0.5c0,2.1,0,4.2,0,6.3c0,0.1,0,0.2,0,0.2c0,0.1,0,0.3-0.1,0.3c-0.2,0-0.2-0.1-0.3-0.2
		c-0.4-0.6-0.7-1.2-1.1-1.8C95.8,49.1,95.7,49.1,95.7,48.9z"/>
	<path class="st2" d="M82.6,65.9c0-1,0-2.1,0-3.1c0-0.1-0.1-0.3,0.2-0.3c0.2,0,0.2,0.2,0.3,0.3c0.3,1.6,0.7,3.1,1.6,4.4
		c0.8,1.1,1.8,1.8,3.3,1.9c1.3,0.1,2.5-0.6,3-1.8c0.5-1.1,0.2-2.6-0.6-3.5c-0.9-0.9-2-1.6-3.2-2.2c-0.9-0.5-1.9-1-2.8-1.7
		c-0.8-0.7-1.2-1.5-1.3-2.5c-0.1-1.3,0.2-2.4,1.2-3.3c1.3-1.3,3.7-1.4,5.1-0.2c0.4,0.3,0.7,0.6,0.9,1c0.2,0.3,0.3,0.1,0.4,0
		c0.3-0.5,0.6-1,0.9-1.5c0.1-0.1,0.1-0.3,0.2-0.2c0.1,0,0.1,0.2,0.1,0.3c0,1.8,0,3.6,0,5.4c0,0.1,0.1,0.4-0.1,0.4
		c-0.3,0-0.3-0.2-0.3-0.4c-0.2-1-0.5-2-1-3c-0.7-1.2-1.5-2.1-2.9-2.3c-1.2-0.2-2.2,0.1-3,1c-0.9,1.1-0.7,2.2,0.5,3.2
		c1.1,1,2.5,1.6,3.8,2.3c1,0.6,2.1,1.3,2.8,2.3c1.1,1.6,1.1,4-0.1,5.5c-0.9,1.1-2,1.8-3.4,1.8c-1.1,0-2-0.4-2.8-1.1
		c-0.3-0.3-0.7-0.6-0.9-1c-0.1-0.2-0.2-0.2-0.3,0c-0.3,0.6-0.6,1.1-0.9,1.6c-0.1,0.1-0.1,0.3-0.3,0.3c-0.2,0-0.1-0.2-0.1-0.4
		C82.6,67.9,82.6,66.9,82.6,65.9z"/>
	<path class="st2" d="M50.9,69.2c-0.8,0-1.5,0-2.3,0c-0.1,0-0.3,0-0.3-0.2c0-0.3,0.2-0.3,0.3-0.3c0.4,0,0.8,0,1.2,0
		c0.2,0,0.3-0.1,0.2-0.3c-0.4-1.4-0.8-2.7-1.2-4.1c-0.1-0.2-0.2-0.2-0.4-0.2c-1.4,0-2.9,0-4.3,0c-0.2,0-0.3,0.1-0.3,0.3
		c-0.2,0.8-0.5,1.5-0.6,2.3c-0.2,1.1,0.4,2.1,1.7,2c0.2,0,0.4-0.1,0.4,0.2c0,0.3-0.2,0.2-0.4,0.2c-1.4,0-2.8,0-4.1,0
		c-0.1,0-0.3,0.1-0.4-0.2c0-0.2,0.1-0.3,0.3-0.3c1.2-0.3,1.7-1.2,2-2.3c0.7-2,1.2-4,1.8-6c0.7-2.4,1.5-4.9,2.2-7.3
		c0-0.2,0.1-0.3,0.3-0.3s0.3,0.1,0.4,0.3c1.5,5,3,10.1,4.5,15.1c0.1,0.4,0.3,0.5,0.6,0.5c0.2,0,0.5,0,0.7,0s0.3,0,0.3,0.2
		S53.4,69,53.2,69C52.5,69.2,51.7,69.2,50.9,69.2z M46.4,56.1L46.4,56.1c-0.8,2.4-1.5,4.8-2.2,7.2c-0.1,0.4,0,0.4,0.3,0.4
		c1.2,0,2.5,0,3.7,0c0.3,0,0.4,0,0.3-0.4C47.8,60.9,47.1,58.5,46.4,56.1z"/>
	<path class="st2" d="M28,69.2c-0.8,0-1.5,0-2.3,0c-0.2,0-0.3,0-0.3-0.2s0.1-0.2,0.3-0.2c0.4,0,0.8,0,1.2,0c0.2,0,0.3,0,0.2-0.3
		c-0.4-1.4-0.8-2.7-1.2-4.1c-0.1-0.2-0.2-0.3-0.4-0.3c-1.4,0-2.9,0-4.3,0c-0.3,0-0.3,0.1-0.4,0.3c-0.2,0.8-0.5,1.6-0.6,2.5
		c-0.1,1,0.5,1.9,1.6,1.9c0.2,0,0.4-0.1,0.5,0.1s0,0.4-0.3,0.3c-0.9,0-1.9,0-2.8,0c-0.5,0-1,0-1.5,0c-0.1,0-0.3,0-0.3-0.2
		c0-0.1,0-0.3,0.2-0.3c1.2-0.2,1.7-1.1,2-2c0.6-1.7,1.1-3.4,1.6-5.1c0.8-2.8,1.7-5.5,2.5-8.3c0-0.2,0.1-0.4,0.4-0.4s0.3,0.2,0.4,0.4
		c0.9,3.1,1.9,6.2,2.8,9.4c0.6,2,1.2,3.9,1.8,5.8c0.1,0.2,0.2,0.3,0.4,0.3c0.3,0,0.6,0,0.8,0c0.2,0,0.3,0,0.3,0.3
		c0,0.2-0.1,0.2-0.3,0.2C29.6,69.2,28.8,69.2,28,69.2z M23.5,56.1c-0.1,0.1-0.1,0.2-0.1,0.2c-0.7,2.3-1.4,4.7-2.1,7
		c-0.1,0.3,0,0.3,0.3,0.3c1.3,0,2.5,0,3.8,0c0.3,0,0.3-0.1,0.3-0.4c-0.2-0.7-0.4-1.5-0.7-2.2C24.5,59.4,24,57.8,23.5,56.1z"/>
	<path class="st3" d="M71.7,42.9c0,2.3,0,4.6,0,6.9c0,0.7-0.1,0.6,0.6,0.6c0.4,0,0.8,0,1.3,0c0.2,0,0.3,0,0.3,0.3s-0.2,0.2-0.3,0.2
		c-1.9,0-3.8,0-5.8,0c-0.2,0-0.3,0-0.3-0.2s0.1-0.3,0.3-0.3c0.5,0,0.9,0,1.4,0s0.5,0,0.5-0.5c0-2.4,0-4.8,0-7.2c0-2.3,0-4.6,0-6.9
		c0-0.4-0.1-0.5-0.5-0.5c-0.5,0-1,0-1.5,0c-0.2,0-0.3,0-0.3-0.3c0-0.2,0.1-0.2,0.3-0.2c1.9,0,3.8,0,5.7,0c0.2,0,0.4,0,0.3,0.3
		c0,0.3-0.2,0.2-0.4,0.2c-0.5,0-0.9,0-1.4,0c-0.4,0-0.5,0.1-0.5,0.5C71.7,38.2,71.7,40.6,71.7,42.9z"/>
	<path class="st2" d="M80.1,31.3c0,0.5,0,0.9,0,1.4c0,0.4,0.1,0.5,0.5,0.5c0.1,0,0.2,0,0.3,0c0.1,0,0.2,0,0.2,0.1s-0.1,0.1-0.2,0.1
		c-0.6,0-1.3,0-1.9,0c-0.2,0-0.4,0-0.6,0c-0.1,0-0.2,0-0.2-0.2c0-0.1,0.1-0.1,0.2-0.1c0.2,0,0.5,0.1,0.7-0.1
		c0.2-0.2,0.1-0.5,0.1-0.8c0-1.9,0-3.8,0-5.7c0-0.4-0.1-0.5-0.5-0.5c-0.2,0-0.5,0.1-0.5-0.1s0.4-0.1,0.5-0.1c0.7,0,1.4,0,2.1,0
		c0.1,0,0.3,0,0.3,0.2s-0.2,0.1-0.3,0.1c-0.7,0-0.7,0-0.7,0.7c0,0.6,0,1.2,0,1.9c0,0.3,0.1,0.4,0.4,0.4c0.7,0,1.4,0,2.1,0
		c0.3,0,0.3-0.1,0.3-0.4c0-0.7,0-1.5,0-2.2c0-0.3-0.1-0.4-0.4-0.4c-0.1,0-0.2,0-0.2,0c-0.1,0-0.4,0.1-0.4-0.1s0.3-0.1,0.4-0.1
		c0.7,0,1.4,0,2.1,0c0.1,0,0.2,0,0.3,0c0.1,0,0.2,0.1,0.1,0.2c0,0.1-0.1,0.1-0.2,0.1c-0.2,0-0.4,0-0.6,0s-0.3,0.1-0.3,0.3
		c0,2.1,0,4.3,0,6.4c0,0.2,0.1,0.3,0.3,0.3c0.1,0,0.2,0,0.3,0c0.1,0,0.4-0.1,0.4,0.1c0,0.2-0.3,0.1-0.5,0.2c-0.7,0-1.5,0-2.2,0
		c-0.1,0-0.3,0-0.3-0.1c0-0.2,0.2-0.1,0.3-0.1c0.7,0,0.7,0,0.7-0.7c0-0.9,0-1.8,0-2.8c0-0.3-0.1-0.4-0.4-0.4c-0.7,0-1.3,0-2,0
		c-0.3,0-0.4,0.1-0.4,0.4C80.1,30.3,80.1,30.8,80.1,31.3z"/>
	<path class="st2" d="M35.4,31.3c0-0.5,0-1.1,0-1.6c0-0.2,0-0.3-0.3-0.3c-0.7,0-1.5,0-2.2,0c-0.2,0-0.3,0.1-0.3,0.3
		c0,1.1,0,2.2,0,3.3c0,0.2,0.1,0.3,0.3,0.3s0.4,0,0.5,0s0.2,0,0.2,0.1s-0.1,0.1-0.2,0.1c-0.9,0-1.7,0-2.6,0c-0.1,0-0.2,0-0.2-0.1
		c0-0.2,0.1-0.1,0.2-0.1c0.8-0.1,0.8-0.1,0.8-0.9c0-1.9,0-3.8,0-5.7c0-0.4-0.1-0.5-0.5-0.5c-0.2,0-0.5,0.1-0.5-0.1
		c0-0.3,0.4-0.1,0.6-0.2c0.7,0,1.4,0,2,0c0.1,0,0.4,0,0.4,0.2s-0.2,0.1-0.3,0.1c-0.7,0-0.7,0-0.7,0.7c0,0.6,0,1.2,0,1.8
		c0,0.3,0,0.4,0.4,0.4c0.7,0,1.4,0,2.1,0c0.3,0,0.4-0.1,0.4-0.3c0-0.7,0-1.5,0-2.2c0-0.3-0.1-0.4-0.4-0.3c-0.2,0-0.3,0-0.5,0
		c-0.1,0-0.2,0-0.2-0.1s0.1-0.2,0.2-0.2c0.9,0,1.7,0,2.6,0c0.1,0,0.2,0,0.2,0.2c0,0.1-0.1,0.1-0.2,0.1c-0.3,0-0.6-0.1-0.8,0.1
		s0,0.5,0,0.8c0,1.9,0,3.8,0,5.7c0,0.4,0.1,0.5,0.5,0.5c0.1,0,0.2,0,0.3,0s0.3-0.1,0.3,0.1c0,0.2-0.2,0.1-0.3,0.1
		c-0.8,0-1.6,0-2.4,0c-0.1,0-0.3,0-0.3-0.2s0.2-0.1,0.3-0.1c0.7,0,0.7,0,0.7-0.8C35.4,32.1,35.4,31.7,35.4,31.3z"/>
	<path class="st2" d="M56.5,29.7c1,0.2,1.5,0.8,1.5,1.8c0,0.4-0.1,0.8,0.1,1.2c0.2,0.5,0.3,0.6,0.9,0.6c0.1,0,0.2-0.1,0.3,0.1
		c0,0.1-0.1,0.1-0.2,0.2c-1.1,0.2-1.8-0.2-1.9-1.4c0-0.5,0-0.9-0.1-1.4c-0.1-0.7-0.4-0.9-1.1-1c-0.3,0-0.5,0-0.8,0s-0.4,0.1-0.4,0.4
		c0,0.9,0,1.8,0,2.7c0,0.3,0,0.4,0.4,0.4c0.2,0,0.6-0.2,0.6,0.1c0,0.2-0.4,0.1-0.6,0.1c-0.7,0-1.3,0-2,0c-0.1,0-0.3,0-0.3-0.1
		s0.2-0.1,0.3-0.1c0.8,0,0.8,0,0.8-0.8c0-1.9,0-3.8,0-5.8c0-0.4-0.1-0.5-0.5-0.5c-0.2,0-0.5,0.1-0.5-0.1s0.4-0.1,0.5-0.1
		c0.9,0,1.9,0,2.8,0c1.2,0,1.8,0.6,1.9,1.3c0.2,1.2-0.3,2-1.4,2.3C56.7,29.6,56.6,29.6,56.5,29.7z M55.6,26.2c-0.1,0-0.3,0-0.4,0
		c-0.3,0-0.5,0.1-0.4,0.4c0,0.9,0,1.8,0,2.6c0,0.2,0,0.4,0.3,0.3c0.3,0,0.6,0,0.9,0c0.7,0,1-0.3,1.2-0.9c0-0.3,0.1-0.6,0.1-0.9
		C57.2,26.5,56.9,26.1,55.6,26.2z"/>
	<path class="st2" d="M43.1,28.5c-0.2-0.3-0.2-0.6-0.2-0.8c-0.2-0.6-0.4-1.2-1-1.4c-0.6-0.2-1.2-0.1-1.7-0.1c-0.2,0-0.2,0.1-0.2,0.3
		c0,0.9,0,1.7,0,2.6c0,0.2,0.1,0.3,0.3,0.3c0.6,0,1.1-0.4,1.2-1.1c0-0.2,0.1-0.4,0.2-0.6c0,1.1,0,2.3,0,3.4
		c-0.1-0.2-0.2-0.4-0.2-0.6c-0.1-0.7-0.7-1.1-1.3-0.9c-0.2,0-0.2,0.1-0.2,0.2c0,1.1,0,2.1,0,3.2c0,0.2,0.1,0.2,0.3,0.2
		c0.4,0,0.9,0,1.3,0c0.5,0,0.9-0.4,1.2-0.8c0.3-0.5,0.4-1,0.5-1.6c0-0.1,0-0.3,0.1-0.3c0.2,0,0.1,0.2,0.1,0.3c0,0.8,0,1.6,0,2.4
		c0,0.2-0.1,0.3-0.3,0.3c-1.6,0-3.2,0-4.8,0c-0.1,0-0.3,0-0.3-0.1c0-0.2,0.2-0.1,0.3-0.1c0.7,0,0.7,0,0.7-0.8c0-1.9,0-3.8,0-5.8
		c0-0.4-0.1-0.5-0.5-0.5c-0.2,0-0.5,0.1-0.5-0.1c0-0.3,0.4-0.2,0.5-0.2c1.4,0,2.9,0,4.3,0c0.3,0,0.4,0.1,0.4,0.4c0,0.6,0,1.2,0,1.9
		C43.2,28.3,43.3,28.4,43.1,28.5z"/>
	<path class="st2" d="M50.7,29.4c0.6,0.1,1,0.2,1.4,0.6c1,0.8,0.7,2.6-0.5,3.2c-0.3,0.2-0.7,0.3-1.1,0.3c-1,0-2.1,0-3.1,0
		c-0.1,0-0.3,0.1-0.3-0.1c0-0.2,0.2-0.1,0.3-0.1c0.7,0,0.7,0,0.7-0.7c0-2,0-3.9,0-5.8c0-0.4-0.1-0.5-0.5-0.5c-0.2,0-0.5,0.2-0.5-0.1
		c0-0.2,0.3-0.1,0.5-0.1c1,0,1.9,0,2.9,0s1.7,0.5,1.8,1.5c0.1,0.8-0.4,1.5-1.3,1.8C51,29.3,50.9,29.4,50.7,29.4z M49,31.4
		c0,0.2,0,0.4,0,0.6c0,0.4-0.2,0.9,0.1,1.2c0.3,0.2,0.8,0.1,1.2,0.1c0.6,0,1-0.4,1.2-0.9c0.1-0.5,0.2-0.9,0.1-1.4
		c-0.1-0.8-0.6-1.3-1.5-1.4c-0.3,0-0.6,0-0.9,0c-0.3,0-0.4,0-0.4,0.3C49,30.4,49,30.9,49,31.4z M49,27.8c0,0.2,0,0.4,0,0.5
		c0,1.1,0,1.1,1.1,1c0.8,0,1.2-0.5,1.3-1.2c0-0.3,0-0.5,0-0.8c-0.2-0.8-0.5-1.1-1.3-1.1c-0.2,0-0.5,0-0.7,0c-0.3,0-0.4,0.1-0.4,0.4
		C49,27,49,27.4,49,27.8z"/>
	<path class="st2" d="M63.5,29c-0.2-0.4-0.1-0.8-0.1-1.1c0-0.5,0-1.1,0-1.6c0-0.3,0.1-0.4,0.4-0.4c1.6,0,3.1,0,4.7,0
		c0.1,0,0.2,0,0.2,0.2c0,1,0,2,0,2.9c-0.2-0.3-0.2-0.7-0.3-1.1c-0.1-0.6-0.3-1.2-0.9-1.5c-0.1,0-0.1-0.1-0.2-0.1
		c-0.7-0.3-0.8-0.2-0.8,0.6c0,2,0,3.9,0,5.8c0,0.4,0.1,0.5,0.5,0.5c0.2,0,0.5-0.2,0.5,0.1c0,0.2-0.4,0.1-0.6,0.1c-0.7,0-1.4,0-2.1,0
		c-0.1,0-0.3,0-0.3-0.2s0.2-0.1,0.3-0.1c0.7,0,0.7,0,0.7-0.7c0-2,0-3.9,0-5.9c0-0.4-0.2-0.5-0.5-0.4c-0.6,0.1-1,0.5-1.2,1.1
		c-0.1,0.4-0.3,0.8-0.3,1.2C63.5,28.7,63.5,28.9,63.5,29z"/>
	<path class="st2" d="M30.2,29c-0.2-0.3-0.1-0.7-0.2-1c-0.1-0.4-0.2-0.8-0.5-1.2c-0.3-0.4-0.7-0.5-1.2-0.6c-0.2,0-0.3,0.1-0.3,0.3
		c0,2.2,0,4.3,0,6.5c0,0.2,0.1,0.3,0.3,0.3c0.2,0,0.4,0,0.6,0c0.1,0,0.2,0,0.2,0.1S29,33.5,29,33.6c0,0-0.1,0-0.2,0
		c-0.8-0.1-1.6,0.1-2.4,0c-0.1,0-0.2,0-0.2-0.1s0.1-0.1,0.2-0.1c0.3,0,0.6,0.1,0.7-0.1c0.2-0.2,0.1-0.6,0.1-0.8c0-1.9,0-3.8,0-5.7
		c0-0.5,0-0.5-0.5-0.4c-0.4,0.1-0.7,0.2-0.9,0.5c-0.4,0.5-0.5,1-0.6,1.6c0,0.2,0,0.4-0.1,0.6C25,29.1,25,29,25,28.9
		c0-0.9,0-1.8,0-2.6c0-0.2,0-0.3,0.3-0.3c1.3,0.1,2.5,0,3.8,0c0.4,0,0.7,0,1,0c0.2,0,0.3,0.1,0.3,0.3c0,0.9,0,1.8,0,2.7
		C30.3,28.9,30.3,29,30.2,29z"/>
	<path class="st2" d="M76.6,26.8c0.2-0.4,0.4-0.7,0.6-1c0.1,0.2,0.1,0.4,0.1,0.6c0,0.7,0,1.4,0,2.1c0,0.1,0.1,0.3-0.1,0.3
		s-0.1-0.2-0.2-0.3c-0.1-0.6-0.4-1.1-0.7-1.6c-0.5-0.7-1.4-1-2.1-0.6c-0.8,0.4-0.9,1.3-0.2,1.8c0.5,0.4,1.1,0.7,1.7,1
		s1.2,0.7,1.5,1.3c0.4,0.7,0.4,1.7-0.1,2.4s-1.4,1-2.2,0.7c-0.5-0.1-0.8-0.4-1.1-0.8c-0.2-0.2-0.2-0.2-0.3,0
		c-0.1,0.2-0.2,0.4-0.3,0.6c0,0.1-0.1,0.2-0.2,0.1c-0.1,0-0.1-0.1-0.1-0.2c0-0.9,0-1.9,0-2.9c0-0.1,0-0.2,0.1-0.2s0.1,0.1,0.1,0.2
		c0.1,0.5,0.2,1.1,0.5,1.6c0.3,0.6,0.7,1,1.4,1.2c0.7,0.2,1.4,0,1.7-0.6s0.3-1.3-0.2-1.8s-1.1-0.8-1.6-1.1c-0.4-0.2-0.7-0.4-1-0.6
		c-0.8-0.6-0.9-1.9-0.3-2.7c0.6-0.8,1.8-0.8,2.6-0.1C76.3,26.5,76.5,26.6,76.6,26.8z"/>
	<path class="st2" d="M70.7,25.9c0.4,0,0.8,0,1.2,0c0.1,0,0.3,0,0.3,0.2s-0.2,0.1-0.3,0.1c-0.7,0-0.7,0-0.7,0.8c0,1.9,0,3.9,0,5.8
		c0,0.3,0.1,0.5,0.4,0.5c0.1,0,0.2,0,0.4,0c0.1,0,0.2,0,0.2,0.1s-0.1,0.1-0.2,0.1c-0.8,0-1.7,0-2.5,0c-0.1,0-0.2,0-0.2-0.1
		s0.1-0.1,0.2-0.1l0,0c0.2,0,0.6,0.1,0.7-0.1c0.2-0.2,0.1-0.5,0.1-0.8c0-1.9,0-3.8,0-5.7c0-0.4-0.1-0.5-0.5-0.5
		c-0.2,0-0.5,0.2-0.6-0.1c0-0.3,0.4-0.1,0.5-0.1C70.1,25.9,70.4,25.9,70.7,25.9z"/>
	<path class="st2" d="M61.3,25.9c0.4,0,0.8,0,1.2,0c0.1,0,0.3,0,0.3,0.2c0,0.1-0.2,0.1-0.3,0.1c-0.7,0-0.7,0-0.7,0.8
		c0,1.9,0,3.8,0,5.8c0,0.4,0.1,0.5,0.5,0.5c0.2,0,0.5-0.1,0.5,0.1c0,0.3-0.4,0.2-0.6,0.2c-0.7,0-1.4,0-2.1,0c-0.1,0-0.3,0-0.3-0.1
		c0-0.2,0.2-0.2,0.3-0.2c0.7,0,0.7,0,0.7-0.7c0-2,0-3.9,0-5.8c0-0.3-0.1-0.5-0.5-0.5c-0.2,0-0.5,0.1-0.5-0.1c0-0.3,0.4-0.1,0.6-0.1
		C60.7,25.9,61,25.9,61.3,25.9z"/>
</g>
<path class="st0" d="M35.4,92.6c-0.9-2-1.8-4.1-2.7-6.1c-0.1-0.3-0.3-0.6-0.7-0.7c-0.2,0-0.3-0.2-0.2-0.4c0.1-0.1,0.2-0.1,0.3-0.1
	c0.7,0.1,1.4,0.1,2,0c0.1,0,0.3,0,0.3,0.1c0.1,0.2,0,0.2-0.2,0.3C34,85.8,34,86,34,86.2c0.6,1.4,1.3,2.8,1.9,4.4
	c0.7-0.9,1-1.7,0.4-2.7c-0.3-0.5-0.5-1-0.7-1.6c-0.1-0.1-0.2-0.3-0.3-0.4c-0.1-0.2-0.7-0.1-0.5-0.5c0.1-0.4,0.6-0.1,0.8-0.1
	c0.5,0,0.9,0,1.4-0.1c0.2,0,0.6,0.1,0.4,0.3c-0.9,0.7,0.2,1.2,0,2c0.5-0.5,0.6-1,0.8-1.4c0.1-0.1,0.1-0.2-0.1-0.4
	c-0.1-0.1-0.5-0.1-0.4-0.4c0.1-0.4,0.5-0.1,0.7-0.1c0.4,0,0.7,0,1.1-0.1c0.2,0,0.3,0,0.4,0.1c0.1,0.2-0.1,0.3-0.3,0.3
	C38.5,85.9,38.2,87,38,88c-0.2,0.7,0.6,1.4,0.9,2.3c0.6-1.5,1.1-2.9,1.7-4.2c0.1-0.2,0.1-0.4-0.1-0.5c-0.1-0.1-0.4-0.1-0.3-0.4
	c0.1-0.2,0.3-0.1,0.5-0.1c0.4,0,0.8,0,1.3,0c0.2,0,0.3-0.1,0.4,0.1c0.1,0.2-0.1,0.3-0.2,0.3c-0.5,0.1-0.7,0.5-0.9,0.9
	c-0.9,1.9-1.7,3.8-2.4,5.8c-0.2,0-0.4,0-0.6,0c-0.4-0.9-0.8-1.8-1.3-2.8c-0.5,1.1-0.9,2-1.3,2.8C35.9,92.6,35.7,92.6,35.4,92.6z"/>
<g>
	<path class="st0" d="M18.1,97.8c0-1.1,0-1.2-0.5-1.2h-0.3c-0.1,0-0.1-0.4,0-0.4c0.8,0,1.6-0.1,2.6-0.1s1.7,0.1,2.2,0.4
		s0.7,0.7,0.7,1.4c0,0.9-0.7,1.2-1.1,1.3c-0.1,0-0.2,0.1-0.2,0.1s0,0.1,0.1,0.1c0.8,0.2,1.5,0.7,1.6,1.8c0,1-0.6,1.5-1.2,1.8
		c-0.7,0.2-1.5,0.3-2.1,0.3c-0.4,0-0.8,0-1.1,0c-0.5,0-1,0-1.6,0c-0.1-0.1-0.1-0.3,0-0.4l0.3-0.1c0.5-0.1,0.5-0.2,0.5-1.1L18.1,97.8
		L18.1,97.8L18.1,97.8z M19.6,98.8c0,0.3,0,0.3,0.6,0.3c0.9,0,1.3-0.6,1.3-1.2c0-0.9-0.6-1.4-1.3-1.4c-0.5,0-0.5,0.1-0.5,0.6
		L19.6,98.8L19.6,98.8z M19.6,101.3c0,0.8,0.1,1.4,0.9,1.4s1.2-0.6,1.2-1.5s-0.5-1.6-1.5-1.6c-0.6,0-0.6,0-0.6,0.4V101.3L19.6,101.3
		z"/>
	<path class="st0" d="M26.3,98.8c0,0.3,0,0.3,0.3,0.3h0.7c0.6,0,0.7-0.1,0.8-0.6v-0.3c0.1-0.1,0.3-0.1,0.4,0c0,0.3,0,0.7,0,1.1
		s0,0.8,0,1.1c0,0.1-0.3,0.1-0.4,0v-0.3c-0.1-0.5-0.2-0.6-0.8-0.6h-0.7c-0.3,0-0.3,0-0.3,0.3v1.3c0,0.5,0,0.8,0.2,1
		c0.1,0.2,0.3,0.3,1.1,0.3c0.9,0,1.3,0,1.9-1.2c0.1-0.1,0.4-0.1,0.4,0c0,0.6-0.3,1.4-0.5,1.7c-0.6,0-1.6,0-2.4,0h-1.4
		c-0.5,0-1,0-1.8,0c-0.1-0.1-0.1-0.3,0-0.4l0.5-0.1c0.5-0.1,0.5-0.1,0.5-1.1v-3.9c0-1-0.1-1-0.5-1.1H24c-0.1-0.1-0.1-0.3,0-0.4
		c0.5,0,1,0,1.5,0h2.2c0.7,0,1.3,0,1.4,0c0,0.2,0.1,0.9,0.1,1.6c0,0.1-0.3,0.1-0.4,0c-0.1-0.4-0.3-0.7-0.4-0.8
		c-0.2-0.2-0.5-0.3-1-0.3h-0.8c-0.4,0-0.4,0-0.4,0.4L26.3,98.8L26.3,98.8L26.3,98.8z"/>
	<path class="st0" d="M32.6,103.2c-1,0-1.6-0.3-1.8-0.4c-0.2-0.2-0.3-1-0.3-1.7c0.1-0.1,0.3-0.1,0.4,0c0.2,0.7,0.9,1.7,1.8,1.7
		c0.8,0,1.1-0.5,1.1-1.1c0-0.9-0.8-1.4-1.4-1.7c-0.8-0.4-1.6-1-1.6-2.1c0-1.2,0.9-2,2.4-2c0.4,0,0.8,0,1.2,0.2
		c0.1,0,0.2,0.1,0.4,0.1c0.1,0.2,0.2,0.8,0.2,1.5c0,0.1-0.3,0.1-0.4,0c-0.2-0.5-0.6-1.3-1.4-1.3c-0.7,0-1.1,0.5-1.1,1s0.4,0.9,1,1.2
		l0.7,0.4c0.7,0.4,1.5,1,1.5,2.1C35.2,102.4,34.2,103.2,32.6,103.2z"/>
	<path class="st0" d="M38.2,96.9c0-0.3,0-0.3-0.3-0.3h-0.7c-0.8,0-1,0.4-1.3,1.2c-0.1,0.1-0.3,0-0.4-0.1c0.2-0.7,0.3-1.4,0.4-1.8H36
		h0.1c0,0.2,0.1,0.2,0.9,0.2h3.9c0.7,0,0.9,0,0.9-0.2h0.1c0,0,0.1,0,0.2,0.1c-0.1,0.4-0.2,1.2-0.2,1.8c0,0.1-0.3,0.1-0.4,0
		c-0.2-0.7-0.3-1.2-1.1-1.2H40c-0.3,0-0.3,0-0.3,0.3v4.7c0,1,0.1,1.1,0.5,1.1h0.4c0.1,0.1,0.1,0.3,0,0.4c-0.7,0-1.2,0-1.7,0
		s-1.1,0-1.8,0c-0.1-0.1-0.1-0.3,0-0.4h0.5c0.5,0,0.5-0.1,0.5-1.1L38.2,96.9L38.2,96.9z"/>
	<path class="st0" d="M51.6,101.9c0,0.5,0,0.7,0.2,0.7c0,0,0,0.2,0,0.3c-0.2,0-0.5,0.1-0.7,0.2c-0.4,0.1-1.3,0.3-1.9,0.3
		c-0.7,0-1.3-0.1-2.1-0.4c-1.2-0.5-2.1-1.7-2.1-3.2c0-1.3,0.6-2.5,1.9-3.2c0.7-0.4,1.6-0.6,2.5-0.6c1.2,0,1.8,0.3,2.1,0.3
		c0,0.3,0,1.1,0.1,1.7c0,0.1-0.3,0.1-0.4,0c-0.3-1-1-1.5-2-1.5c-1.7,0-2.5,1.4-2.5,3.1c0,1.5,0.5,2.4,1.2,2.9
		c0.5,0.3,1.1,0.4,1.4,0.4c0.6,0,0.7-0.1,0.7-0.8v-0.7c0-0.6-0.1-0.6-0.6-0.7l-0.5-0.1c-0.1-0.1-0.1-0.3,0-0.4c0.7,0,1.3,0,1.8,0
		s1,0,1.4,0c0.1,0.1,0.1,0.3,0,0.4l-0.2,0.1c-0.3,0-0.4,0.2-0.4,0.7L51.6,101.9L51.6,101.9z"/>
	<path class="st0" d="M55.1,101.5c0,1,0.1,1.1,0.6,1.2H56c0.1,0.1,0.1,0.3,0,0.4c-0.6,0-1.1,0-1.6,0s-1,0-1.6,0
		c-0.1-0.1-0.1-0.3,0-0.4h0.3c0.5-0.1,0.6-0.2,0.6-1.2v-3.9c0-1-0.1-1.1-0.6-1.2h-0.3c-0.1-0.1-0.1-0.3,0-0.4c0.6,0,1.1,0,1.6,0
		s1,0,1.6,0c0.1,0.1,0.1,0.3,0,0.4h-0.3c-0.5,0.1-0.6,0.2-0.6,1.2V101.5L55.1,101.5z"/>
	<path class="st0" d="M59,98.9c0,0.3,0,0.3,0.3,0.3h0.8c0.6,0,0.7-0.1,0.8-0.6v-0.3c0.1-0.1,0.3-0.1,0.4,0c0,0.3,0,0.7,0,1.1
		s0,0.8,0,1.1c-0.1,0.1-0.3,0.1-0.4,0v-0.3c-0.1-0.5-0.2-0.6-0.8-0.6h-0.8c-0.3,0-0.3,0-0.3,0.3v1.4c0,1,0.1,1.1,0.5,1.1h0.4
		c0.1,0.1,0.1,0.3,0,0.4c-0.7,0-1.2,0-1.7,0s-1,0-1.7,0c-0.1-0.1-0.1-0.3,0-0.4h0.4c0.5-0.1,0.5-0.1,0.5-1.1v-3.9
		c0-1-0.1-1.1-0.5-1.2h-0.2c-0.1-0.1-0.1-0.3,0-0.4c0.5,0,1,0,1.5,0h2.2c0.7,0,1.3,0,1.4,0c0,0.2,0,0.9,0,1.7c0,0.1-0.3,0.1-0.4,0
		c-0.1-0.4-0.2-0.7-0.3-0.8c-0.2-0.2-0.5-0.4-1-0.4h-0.8c-0.4,0-0.4,0-0.4,0.4L59,98.9L59,98.9z"/>
	<path class="st0" d="M65.1,96.9c0-0.3,0-0.3-0.3-0.3h-0.7c-0.8,0-1,0.4-1.3,1.2c-0.1,0.1-0.3,0-0.4-0.1c0.2-0.7,0.3-1.4,0.4-1.8
		h0.1H63c0,0.2,0.1,0.2,0.9,0.2h3.9c0.7,0,0.9,0,0.9-0.2h0.1c0,0,0.1,0,0.2,0.1c-0.1,0.4-0.2,1.2-0.2,1.8c0,0.1-0.3,0.1-0.4,0
		c-0.2-0.7-0.3-1.2-1.1-1.2h-0.6c-0.3,0-0.3,0-0.3,0.3v4.7c0,1,0.1,1.1,0.5,1.1h0.4c0.1,0.1,0.1,0.3,0,0.4c-0.7,0-1.2,0-1.7,0
		s-1.1,0-1.8,0c-0.1-0.1-0.1-0.3,0-0.4h0.5c0.5,0,0.5-0.1,0.5-1.1L65.1,96.9L65.1,96.9z"/>
	<path class="st0" d="M74.1,101.3c0,0.5,0,0.8,0.2,1c0.1,0.2,0.3,0.3,1.1,0.3c1,0,1.3,0,1.9-1.3c0.1-0.1,0.3-0.1,0.4,0.1
		c0,0.6-0.3,1.4-0.5,1.7c-0.6,0-1.6,0-2.4,0h-1.4c-0.5,0-1,0-1.7,0c-0.1-0.1-0.1-0.3,0-0.4h0.4c0.5-0.1,0.5-0.1,0.5-1.1v-3.9
		c0-1-0.1-1.1-0.5-1.1h-0.3c-0.1-0.1-0.1-0.3,0-0.4c0.6,0,1.1,0,1.6,0s1,0,1.6,0c0.1,0.1,0.1,0.3,0,0.4h-0.3
		c-0.5,0.1-0.5,0.2-0.5,1.1L74.1,101.3L74.1,101.3L74.1,101.3z"/>
	<path class="st0" d="M80.3,101.5c0,1,0.1,1.1,0.6,1.2h0.3c0.1,0.1,0.1,0.3,0,0.4c-0.6,0-1.1,0-1.6,0s-1,0-1.6,0
		c-0.1-0.1-0.1-0.3,0-0.4h0.3c0.5-0.1,0.6-0.2,0.6-1.2v-3.9c0-1-0.1-1.1-0.6-1.2H78c-0.1-0.1-0.1-0.3,0-0.4c0.6,0,1.1,0,1.6,0
		s1,0,1.6,0c0.1,0.1,0.1,0.3,0,0.4h-0.3c-0.5,0.1-0.6,0.2-0.6,1.2V101.5L80.3,101.5z"/>
	<path class="st0" d="M83.9,103.2c-1,0-1.6-0.3-1.8-0.4c-0.2-0.2-0.3-1-0.3-1.7c0.1-0.1,0.3-0.1,0.4,0c0.2,0.7,0.9,1.7,1.8,1.7
		c0.8,0,1.1-0.5,1.1-1.1c0-0.9-0.8-1.4-1.4-1.7c-0.8-0.4-1.6-1-1.6-2.1c0-1.2,0.9-2,2.4-2c0.4,0,0.8,0,1.2,0.2
		c0.1,0,0.2,0.1,0.4,0.1c0.1,0.2,0.2,0.8,0.2,1.5c0,0.1-0.3,0.1-0.4,0c-0.2-0.5-0.6-1.3-1.4-1.3c-0.7,0-1.1,0.5-1.1,1s0.4,0.9,1,1.2
		l0.7,0.4c0.7,0.4,1.5,1,1.5,2.1C86.6,102.4,85.5,103.2,83.9,103.2z"/>
	<path class="st0" d="M89.6,96.9c0-0.3,0-0.3-0.3-0.3h-0.7c-0.8,0-1,0.4-1.3,1.2c-0.1,0.1-0.3,0-0.4-0.1c0.2-0.7,0.3-1.4,0.4-1.8
		h0.1h0.1c0,0.2,0.1,0.2,0.9,0.2h3.9c0.7,0,0.9,0,0.9-0.2h0.1c0,0,0.1,0,0.2,0.1c-0.1,0.4-0.2,1.2-0.2,1.8c0,0.1-0.3,0.1-0.4,0
		c-0.2-0.7-0.3-1.2-1.1-1.2h-0.6c-0.3,0-0.3,0-0.3,0.3v4.7c0,1,0.1,1.1,0.5,1.1h0.4c0.1,0.1,0.1,0.3,0,0.4c-0.7,0-1.2,0-1.7,0
		s-1.1,0-1.8,0c-0.1-0.1-0.1-0.3,0-0.4h0.5c0.5,0,0.5-0.1,0.5-1.1L89.6,96.9L89.6,96.9z"/>
</g>
<path class="st0" d="M68.3,92.5C68.3,92.5,68.3,92.4,68.3,92.5c0.7,0,1.5,0,2.2,0c0.6,0,0.8-0.2,0.9-0.7c0-0.4,0.4-0.9,0-1
	c-0.4-0.2-0.5,0.4-0.7,0.7c-0.5,0.6-2.2,0.7-2.5,0.2C67.9,91,68,90.3,68,89.5c0-0.2,0.1-0.2,0.3-0.2c0.5,0.1,1.3-0.3,1.5,0.6
	c0,0.1,0.1,0.3,0.3,0.3c0.2,0,0.2-0.2,0.2-0.4c0-0.5,0-1.1,0-1.6c0-0.1,0.1-0.4-0.1-0.4c-0.3-0.1-0.3,0.2-0.3,0.4
	c-0.1,0.4-0.4,0.5-0.7,0.5c-1,0.1-1,0-1-1.2c0-1.3,0.7-1.8,1.9-1.2c0.4,0.2,0.5,0.5,0.6,0.8c0.1,0.2,0.3,0.4,0.4,0.2
	c0.2-0.4,0.1-0.9,0-1.3s-0.4-0.3-0.7-0.3c-1.4,0-2.8,0.1-4.3-0.1c-0.1,0-0.3,0-0.4,0.1c-0.1,0.2,0,0.3,0.2,0.4
	c0.5,0.1,0.6,0.5,0.6,1c0,1.4,0,2.8,0,4.2c0,0.5-0.1,0.9-0.7,1c-0.2,0-0.3,0.1-0.3,0.3c0,0.2,0.2,0.2,0.4,0.2
	C66.6,92.5,67.4,92.5,68.3,92.5z"/>
<path class="st0" d="M45.4,92.5c0.4,0,0.8,0,1.3,0c0.1,0,0.4,0.1,0.4-0.1c0.1-0.2-0.1-0.3-0.3-0.3c-0.6-0.1-0.6-0.5-0.6-1
	c0-1.4,0-2.9,0-4.3c0-0.5,0.1-0.8,0.6-0.9c0.1,0,0.4-0.1,0.3-0.3c-0.1-0.2-0.3-0.2-0.5-0.2c-0.8,0.1-1.6,0.1-2.4,0
	c-0.2,0-0.3,0-0.4,0.2c-0.1,0.3,0.1,0.3,0.3,0.4c0.5,0.1,0.6,0.5,0.6,0.9c0,1.4,0,2.7,0,4.1c0,0.5,0,1.1-0.7,1.2
	c-0.1,0-0.2,0.2-0.2,0.3c0,0.1,0.2,0.1,0.3,0.1C44.5,92.5,45,92.5,45.4,92.5z"/>
<path class="st1" d="M0,24.3c2.4,0,4.7-0.3,6.7-1.7c2.4-1.6,3.7-4,4.3-6.8c0.2-0.7,0.3-1.5,0.3-2.3c0-0.4,0.1-0.6,0.6-0.6
	c5,0,10.1,0,15.1,0c0.4,0,0.6,0.1,0.6,0.5c0,0.5-0.4,0.4-0.7,0.4c-4.6,0-9.2,0-13.7,0c-0.6,0-0.8,0.1-0.9,0.8
	C11.9,17.4,11,19.9,9,22c-1.9,2-4.4,2.9-7.1,3.1C1.2,25.2,1,25.4,1,26c0,16.6,0,33.2,0,49.7c0,0.6,0.2,0.7,0.8,0.8
	c3.8,0.5,7,2,9,5.4c0.9,1.5,1.4,3.2,1.4,4.9c0,0.7,0.2,0.8,0.9,0.8c4.6,0,9.1,0,13.7,0c0.4,0,0.7-0.1,0.8,0.5c0,0.6-0.4,0.6-0.8,0.6
	c-3.6,0-7.2,0-10.8,0c-1.3,0-2.6,0-3.9,0c-0.6,0-0.8-0.1-0.8-0.7c0-2.1-0.4-4.1-1.6-5.8c-1.8-2.8-4.5-4-7.6-4.6
	c-0.7-0.1-1.4-0.2-2.1-0.2C0,59.8,0,42,0,24.3z"/>
<path class="st1" d="M110.6,77.5c-2.3-0.1-4.5,0.3-6.5,1.5c-2.5,1.6-3.8,4.1-4.4,6.9c-0.1,0.7-0.3,1.4-0.3,2c0,0.8-0.3,0.8-0.9,0.8
	c-3.3,0-6.5,0-9.8,0c-1.4,0-2.9,0-4.3,0c-0.4,0-0.8,0.1-0.8-0.6c0-0.6,0.4-0.5,0.8-0.5c4.4,0,8.7,0,13.1,0c0.6,0,0.9-0.1,1-0.8
	c0.4-2.8,1.4-5.4,3.4-7.4c1.9-1.9,4.2-2.8,6.8-2.9c0.7,0,0.9-0.2,0.9-0.9c0-16.5,0-33,0-49.6c0-0.6-0.1-0.8-0.7-0.9
	c-2.8-0.4-5.4-1.3-7.5-3.3c-2-1.9-2.9-4.3-3.1-7c0-0.7-0.3-0.9-0.9-0.9c-4.5,0-9,0-13.5,0c-0.3,0-0.6,0.1-0.8-0.2
	c-0.2-0.4,0-0.7,0.6-0.8c1.9,0,3.7,0,5.6,0c3,0,5.9,0,8.9,0c1.3,0,1,0,1.1,1c0.2,2.3,0.7,4.5,2.2,6.4c1.6,2,3.8,3,6.2,3.5
	c0.9,0.2,1.9,0.4,2.8,0.3C110.6,42,110.6,59.8,110.6,77.5z"/>
<path class="st0" d="M62.9,92.6c-0.4-0.9-1.1-1.6-1.7-2.3c-0.8-1-1.6-2-2.6-3.2c0,1.6,0,2.9,0,4.2c0,0.4,0.3,0.7,0.7,0.7
	c0.2,0,0.4,0,0.3,0.3c0,0.2-0.2,0.2-0.4,0.2c-0.7,0-1.4,0-2.1,0c-0.1,0-0.3,0-0.3-0.2s0.1-0.3,0.3-0.3c0.5-0.1,0.6-0.4,0.6-0.8
	c0-1.5,0-3.1,0-4.6c0-0.4-0.2-0.6-0.6-0.7c-0.2,0-0.4-0.1-0.3-0.4c0.1-0.3,0.3-0.1,0.5-0.1c2.2-0.6,2.8,1.4,3.9,2.6
	c0.5,0.5,1,1.2,1.6,1.9c0-1.3,0-2.4,0-3.5c0-0.4-0.4-0.5-0.7-0.6c-0.1,0-0.4,0-0.3-0.3c0-0.2,0.2-0.3,0.4-0.2c0.7,0.1,1.4,0.1,2,0
	c0.1,0,0.3,0,0.3,0.2s-0.1,0.3-0.2,0.3c-0.7,0.2-0.7,0.8-0.7,1.4c0,1.5,0,3,0,4.5c0,0.4,0,0.7-0.3,0.9
	C63.3,92.6,63.1,92.6,62.9,92.6z"/>
<path class="st0" d="M54.2,92.6c-0.4-0.9-1.1-1.6-1.8-2.4c-0.8-1-1.6-2-2.5-3.1c0,1.6,0,2.9,0,4.2c0,0.4,0.3,0.7,0.7,0.7
	c0.2,0,0.4,0,0.4,0.2c0,0.3-0.2,0.2-0.4,0.2c-0.6,0-1.3,0-1.9,0c-0.2,0-0.4,0-0.4-0.2c-0.1-0.2,0.1-0.3,0.3-0.3
	c0.5-0.1,0.6-0.5,0.6-1c0-1.5,0-2.9,0-4.4c0-0.5-0.2-0.7-0.6-0.8c-0.2,0-0.4-0.1-0.3-0.4c0.1-0.2,0.3-0.2,0.5-0.1
	c0.1,0,0.2,0.1,0.3,0.1c1.5-0.4,2.1,0.7,2.8,1.6s1.5,1.8,2.4,2.8c0-1.3,0-2.4,0-3.5c0-0.4-0.4-0.4-0.6-0.5c-0.1,0-0.4,0-0.3-0.3
	c0-0.2,0.2-0.3,0.4-0.2c0.7,0.1,1.4,0.1,2,0c0.1,0,0.3,0,0.3,0.2s-0.1,0.3-0.2,0.3C55,86,55,86.6,55,87.1c0,1.5,0,3,0,4.5
	c0,0.4,0,0.7-0.3,0.9C54.5,92.6,54.4,92.6,54.2,92.6z"/>
<path class="st0" d="M68.3,92.5c-0.8,0-1.6,0-2.5,0c-0.1,0-0.4,0-0.4-0.2s0.1-0.3,0.3-0.3c0.7,0,0.7-0.4,0.7-1c0-1.4,0-2.8,0-4.2
	c0-0.5,0-0.8-0.6-1c-0.2,0-0.3-0.2-0.2-0.4c0.1-0.1,0.2-0.1,0.4-0.1c1.4,0.2,2.8,0,4.3,0.1c0.3,0,0.6-0.1,0.7,0.3s0.2,0.9,0,1.3
	c-0.1,0.2-0.3,0-0.4-0.2c-0.2-0.3-0.3-0.6-0.6-0.8c-1.2-0.6-1.9-0.2-1.9,1.2c0,1.2,0.1,1.3,1,1.2c0.4,0,0.6-0.2,0.7-0.5
	c0-0.2,0.1-0.4,0.3-0.4c0.2,0,0.1,0.3,0.1,0.4c0,0.5,0,1.1,0,1.6c0,0.2,0,0.4-0.2,0.4c-0.1,0-0.2-0.1-0.3-0.3
	c-0.2-0.9-0.9-0.5-1.5-0.6c-0.1,0-0.3,0.1-0.3,0.2c0,0.7-0.2,1.5,0.2,2.2c0.3,0.6,2,0.4,2.5-0.2c0.2-0.3,0.3-0.9,0.7-0.7
	c0.3,0.2,0,0.7,0,1c-0.1,0.5-0.3,0.8-0.9,0.7C69.7,92.4,69,92.4,68.3,92.5C68.3,92.4,68.3,92.5,68.3,92.5z"/>
<path class="st0" d="M45.4,92.5c-0.5,0-0.9,0-1.4,0c-0.1,0-0.2-0.1-0.3-0.1c-0.1-0.1,0-0.3,0.2-0.3c0.7-0.1,0.7-0.7,0.7-1.2
	c0-1.4,0-2.7,0-4.1c0-0.4,0-0.8-0.6-0.9c-0.2,0-0.4-0.1-0.3-0.4c0.1-0.2,0.2-0.2,0.4-0.2c0.8,0.1,1.6,0.1,2.4,0c0.2,0,0.4,0,0.5,0.2
	c0,0.2-0.1,0.3-0.3,0.3c-0.5,0.1-0.6,0.4-0.6,0.9c0,1.4,0,2.9,0,4.3c0,0.5,0,0.9,0.6,1c0.2,0,0.3,0.1,0.3,0.3
	c-0.1,0.2-0.3,0.1-0.4,0.1C46.3,92.5,45.9,92.5,45.4,92.5z"/>
<path class="st1" d="M69.4,6.2C67.7,6,66,5.6,64.3,5.1c-0.2,0-0.5-0.1-0.5-0.3s0.3-0.3,0.5-0.3C65,4.3,65.7,4.1,66.4,4
	C67.8,3.8,69.2,4.9,69.4,6.2L69.4,6.2z"/>
<path class="st4" d="M74.5,33.1C74.5,33.1,74.4,33,74.5,33.1C74.5,32.9,74.5,33,74.5,33.1L74.5,33.1z"/>
</svg>
