<?xml version="1.0" encoding="utf-8"?>
<!-- Generator: Adobe Illustrator 19.2.1, SVG Export Plug-In . SVG Version: 6.00 Build 0)  -->
<svg version="1.1" id="Layer_1" xmlns="http://www.w3.org/2000/svg"  x="0px" y="0px"
	 viewBox="0 0 48.7 48.2" style="enable-background:new 0 0 48.7 48.2;" xml:space="preserve">
<style type="text/css">
	.st0{fill:#DF6B8E;}
</style>
<path class="st0" d="M48.3,1.1c-0.6-0.6-1.5-0.6-2.1,0l-5.4,5.3L24.5,2.7l-0.6,0.6C23.1,4,5.1,21.4,2.1,24.5c-1.5,1.5-2.2,3.2-2.1,5
	c0.2,2.7,2.3,4.6,2.8,5c0.7,0.7,8.2,8.2,11.1,11.2c1.9,1.9,3.8,2.5,5.4,2.5c0.7,0,1.4-0.1,2-0.3c1.9-0.5,3.2-1.7,3.3-1.8L46.8,24
	L42.9,8.4l5.4-5.2C48.8,2.6,48.8,1.7,48.3,1.1z M43.4,23L22.5,43.8c-0.1,0.1-0.9,0.8-2.1,1.1c-1.6,0.5-3,0-4.4-1.4
	C13,40.4,4.9,32.4,4.9,32.3l-0.1-0.1l-0.1-0.1c0,0-1.6-1.3-1.7-2.9c-0.1-0.9,0.3-1.8,1.2-2.7C6.9,23.9,22.2,9.1,25.4,6l12.8,2.9
	l-4,3.9c-0.4-0.2-0.9-0.3-1.4-0.3c-2.1,0-3.8,1.7-3.8,3.8s1.7,3.8,3.8,3.8s3.8-1.7,3.8-3.8c0-0.5-0.1-1-0.3-1.4l4.1-4L43.4,23z"/>
</svg>
