<?xml version="1.0" encoding="utf-8"?>
<!-- Generator: Adobe Illustrator 19.2.1, SVG Export Plug-In . SVG Version: 6.00 Build 0)  -->
<svg version="1.1" id="Layer_1" xmlns="http://www.w3.org/2000/svg"  x="0px" y="0px"
	 viewBox="0 0 50 50" style="enable-background:new 0 0 50 50;" xml:space="preserve">
<style type="text/css">
	.st0{fill:#CCCCCC;}
</style>
<path class="st0" d="M25,0C11.1,0,0,11.1,0,25s11.1,25,25,25s25-11.1,25-25S38.9,0,25,0z M28.6,25.5l8.5,8.5
	c0.2,0.2,0.3,0.6,0.3,0.8s-0.1,0.6-0.3,0.8l-1.6,1.6c-0.2,0.2-0.6,0.3-0.8,0.3c-0.3,0-0.6-0.1-0.8-0.3l-8.5-8.5
	c-0.2-0.2-0.6-0.2-0.8,0l-8.5,8.5c-0.2,0.2-0.6,0.3-0.8,0.3c-0.3,0-0.6-0.1-0.8-0.3L13,35.6c-0.2-0.2-0.3-0.6-0.3-0.8
	s0.1-0.6,0.3-0.8l8.5-8.5c0.2-0.2,0.2-0.6,0-0.8L13,16.1c-0.2-0.2-0.3-0.6-0.3-0.8s0.1-0.6,0.3-0.8l1.6-1.6c0.2-0.2,0.6-0.3,0.8-0.3
	s0.6,0.1,0.8,0.3l8.5,8.5c0.2,0.2,0.6,0.2,0.8,0L34,13c0.2-0.2,0.6-0.3,0.8-0.3c0.3,0,0.6,0.1,0.8,0.3l1.6,1.6
	c0.2,0.2,0.3,0.6,0.3,0.8s-0.1,0.6-0.3,0.8l-8.5,8.5C28.4,24.8,28.4,25.2,28.6,25.5z"/>
</svg>
