<?xml version="1.0" encoding="utf-8"?>
<!-- Generator: Adobe Illustrator 19.2.1, SVG Export Plug-In . SVG Version: 6.00 Build 0)  -->
<svg version="1.1" id="Layer_1" xmlns="http://www.w3.org/2000/svg"  x="0px" y="0px"
	 viewBox="0 0 33.3 37.5" style="enable-background:new 0 0 33.3 37.5;" xml:space="preserve">
<style type="text/css">
	.st0{fill:#DF6B8E;}
	.st1{fill:#989899;}
	.st2{fill:#FFFFFF;}
</style>
<g>
	<g>
		<path class="st0" d="M31.2,37.5H2.1c-1.1,0-2.1-1-2.1-2.3V10.7c0-1.3,1-2.3,2.1-2.3h29.1c1.2,0,2.1,1.1,2.1,2.3v24.5
			C33.3,36.5,32.4,37.5,31.2,37.5z M2.4,35.1h28.5V10.8H2.4V35.1z"/>
	</g>
	<g>
		<path class="st0" d="M13.8,10.8c-1.2,0-2.4-0.5-3.5-1.5C8.2,7.3,7.6,4,8.9,1.9l0,0c0.6-1,1.6-1.7,2.8-1.8c1.4-0.2,2.8,0.3,4,1.4
			c2.1,2,2.8,5.2,1.4,7.4c-0.6,1-1.6,1.7-2.8,1.8C14.2,10.7,14,10.8,13.8,10.8z M11,3.1c-0.7,1.2-0.3,3.2,1,4.4
			c0.6,0.6,1.4,0.9,2.1,0.8c0.5-0.1,0.8-0.3,1.1-0.7c0.7-1.2,0.3-3.2-1-4.4c-0.6-0.6-1.4-0.9-2-0.8C11.6,2.5,11.2,2.7,11,3.1z"/>
	</g>
	<g>
		<path class="st0" d="M19.8,10.7c-0.2,0-0.4,0-0.6,0C18,10.5,17,9.9,16.4,8.9c-1.3-2.2-0.7-5.4,1.4-7.4c1.2-1.1,2.6-1.6,4-1.4
			C23,0.3,24,0.9,24.6,1.9c1.3,2.2,0.7,5.4-1.4,7.4C22.3,10.2,21,10.7,19.8,10.7z M21.4,2.4c-0.6,0-1.2,0.3-1.8,0.8
			c-1.3,1.2-1.8,3.2-1,4.4c0.3,0.4,0.6,0.6,1.1,0.7c0.7,0.1,1.4-0.2,2.1-0.8c1.3-1.2,1.8-3.2,1-4.4c-0.3-0.4-0.6-0.7-1.1-0.7
			C21.5,2.4,21.5,2.4,21.4,2.4z"/>
	</g>
	<g>
		<path class="st0" d="M32.1,23.8H1.2c-0.7,0-1.2-0.5-1.2-1.2s0.5-1.2,1.2-1.2h30.9c0.7,0,1.2,0.5,1.2,1.2S32.8,23.8,32.1,23.8z"/>
	</g>
	<g>
		<path class="st0" d="M16.7,37.5c-0.7,0-1.2-0.5-1.2-1.2V8.2C15.5,7.6,16,7,16.7,7s1.2,0.5,1.2,1.2v28.1
			C17.9,37,17.3,37.5,16.7,37.5z"/>
	</g>
</g>
<path class="st1" d="M433.4,429.6c-1.8-0.8-2.4-2.5-3.2-4.1c-0.3-0.6-0.3-1.1,0.3-1.5c1.1-0.7,1.5-1.7,1.2-3
	c-0.3-1.4-1.4-2.1-2.7-2.5c-2-0.5-4.1-0.1-6.2-0.1c-0.2,0-0.4,0-0.5,0.3s0.1,0.4,0.3,0.5c0.8,0.2,0.9,0.9,0.9,1.6
	c0,2.3,0.1,4.5,0,6.8c0,0.8,0,1.7-1.1,1.8c-0.2,0-0.4,0.2-0.4,0.4c0,0.3,0.3,0.3,0.5,0.3c0.7,0,1.4,0,2.1,0s1.4,0,2.1,0
	c0.3,0,0.6,0.1,0.6-0.3c0-0.2-0.2-0.4-0.4-0.4c-0.9-0.2-1-0.8-1-1.6c0-0.5,0-1.1,0-1.6c0-0.4-0.2-1,0.4-1.1c0.7-0.2,0.9,0.3,1.2,0.8
	c0.5,1,0.9,1.9,1.5,2.8c0.9,1.3,2.7,1.9,4.1,1.4c0.2-0.1,0.3-0.2,0.4-0.3C433.7,429.8,433.6,429.6,433.4,429.6z M428.9,422.5
	c-0.1,0.8-0.4,1.4-1.3,1.6c-1.2,0.3-1.6,0-1.6-1.3c0-0.3,0-0.7,0-1.1s0-0.8,0-1.2c0-1.3,0.6-1.6,1.8-1.1
	C429,420.2,429,421.4,428.9,422.5z"/>
<path class="st2" d="M414.9,430.3L414.9,430.3c1.2,0,2.5-0.1,3.7,0c1,0.1,1.4-0.3,1.5-1.2c0.1-0.6,0.6-1.5,0.1-1.7
	c-0.7-0.4-0.8,0.7-1.2,1.1c-0.8,0.9-3.8,1.2-4.2,0.3c-0.6-1.1-0.3-2.4-0.3-3.7c0-0.3,0.2-0.4,0.4-0.4c0.9,0.1,2.2-0.6,2.5,1
	c0.1,0.2,0.2,0.4,0.4,0.4c0.3,0,0.3-0.4,0.3-0.6c0-0.9,0-1.8,0-2.7c0-0.2,0.1-0.6-0.2-0.7c-0.4-0.1-0.5,0.3-0.6,0.6
	c-0.2,0.6-0.6,0.8-1.2,0.9c-1.6,0.2-1.8,0-1.8-2c0-2.2,1.2-3,3.2-2c0.6,0.3,0.8,0.8,1,1.3c0.1,0.3,0.5,0.7,0.7,0.3
	c0.3-0.7,0.2-1.5,0-2.2c-0.1-0.6-0.7-0.5-1.1-0.5c-2.4-0.1-4.8,0.2-7.2-0.1c-0.2,0-0.4-0.1-0.6,0.2c-0.2,0.3,0.1,0.5,0.3,0.6
	c0.9,0.2,0.9,0.9,0.9,1.7c0,2.4,0,4.7,0,7.1c0,0.9-0.1,1.6-1.2,1.6c-0.3,0-0.6,0.2-0.5,0.5s0.4,0.3,0.6,0.3
	C412.1,430.3,413.5,430.3,414.9,430.3z"/>
<path class="st1" d="M414.9,430.3c-1.4,0-2.7,0-4.1,0c-0.2,0-0.6,0.1-0.6-0.3c-0.1-0.3,0.2-0.5,0.5-0.5c1.1,0,1.2-0.7,1.2-1.6
	c-0.1-2.4,0-4.7,0-7.1c0-0.8-0.1-1.4-0.9-1.7c-0.3-0.1-0.5-0.3-0.3-0.6c0.1-0.2,0.3-0.2,0.6-0.2c2.4,0.3,4.8,0.1,7.2,0.1
	c0.4,0,1-0.1,1.1,0.5c0.2,0.7,0.3,1.6,0,2.2c-0.2,0.4-0.5,0-0.7-0.3c-0.3-0.5-0.5-1-1-1.3c-2-1-3.2-0.3-3.2,2c0,2,0.1,2.2,1.8,2
	c0.6-0.1,1-0.3,1.2-0.9c0.1-0.3,0.1-0.7,0.6-0.6c0.3,0.1,0.2,0.4,0.2,0.7c0,0.9,0,1.8,0,2.7c0,0.3,0,0.6-0.3,0.6
	c-0.2,0-0.4-0.2-0.4-0.4c-0.3-1.6-1.6-0.9-2.5-1c-0.2,0-0.4,0.1-0.4,0.4c-0.1,1.2-0.3,2.5,0.3,3.7c0.4,0.9,3.4,0.6,4.2-0.3
	c0.4-0.4,0.4-1.5,1.2-1.1c0.5,0.3,0,1.1-0.1,1.7c-0.1,0.9-0.5,1.3-1.5,1.2C417.4,430.2,416.1,430.3,414.9,430.3L414.9,430.3z"/>
</svg>
