<?xml version="1.0" encoding="utf-8"?>
<!-- Generator: Adobe Illustrator 19.2.1, SVG Export Plug-In . SVG Version: 6.00 Build 0)  -->
<svg version="1.1" id="Layer_1" xmlns="http://www.w3.org/2000/svg"  x="0px" y="0px"
	 viewBox="0 0 55.7 50" style="enable-background:new 0 0 55.7 50;" xml:space="preserve">
<style type="text/css">
	.st0{fill:#DF6B8E;}
</style>
<g>
	<path class="st0" d="M48.8,0H6.9C3.1,0,0,3.1,0,6.9v26.6c0,3.8,3.1,6.9,6.9,6.9h19.4V47h-9.7c-0.9,0-1.6,0.7-1.6,1.6
		s0.7,1.6,1.6,1.6h22.5c0.9,0,1.6-0.7,1.6-1.6S40,47,39.1,47h-9.7v-6.6h19.4c3.8,0,6.9-3.1,6.9-6.9V6.9C55.7,3.1,52.6,0,48.8,0z
		 M6.9,3.1h41.9c2.1,0,3.7,1.7,3.7,3.7V29H3.1V6.9C3.1,4.8,4.8,3.1,6.9,3.1z M48.8,37.2H6.9c-2.1,0-3.7-1.7-3.7-3.7v-1.3h49.4v1.3
		C52.5,35.5,50.9,37.2,48.8,37.2z"/>
</g>
</svg>
