<?xml version="1.0" encoding="utf-8"?>
<!-- Generator: Adobe Illustrator 21.0.0, SVG Export Plug-In . SVG Version: 6.00 Build 0)  -->
<svg version="1.1" id="Layer_1" xmlns="http://www.w3.org/2000/svg" xmlns:xlink="http://www.w3.org/1999/xlink" x="0px" y="0px"
	 viewBox="0 0 512 512" style="enable-background:new 0 0 512 512;" xml:space="preserve">
<style type="text/css">
	.st0{fill:#FFFFFF;}
	.st1{clip-path:url(#SVGID_2_);fill:#FFFFFF;}
</style>
<path class="st0" d="M45.8,45.8h420.4v420.4H45.8V45.8z M0,512h512V0H0V512z"/>
<g>
	<defs>
		<rect id="SVGID_1_" width="512" height="512"/>
	</defs>
	<clipPath id="SVGID_2_">
		<use xlink:href="#SVGID_1_"  style="overflow:visible;"/>
	</clipPath>
	<path class="st1" d="M224.1,181.1h45.3c3.3,0,6.6,0.7,9.9,2c3.3,1.3,6.2,3.4,8.9,6.2c2.6,2.8,4.7,6.4,6.2,10.6
		c1.5,4.2,2.3,9.3,2.3,15.2c0,11.3-2.5,19.9-7.4,25.8c-5,5.9-10.9,8.9-17.7,8.9h-47.5V181.1z M224.1,300.4h51c12,0,23-2.4,32.9-7.1
		c9.9-4.7,18.4-11.1,25.3-19.1c7-8,12.4-17.1,16.3-27.3s5.8-20.8,5.8-31.9c0-10.4-2.1-20.7-6.2-30.8c-4.1-10.2-9.8-19.2-17-27.3
		c-7.2-8-15.8-14.5-25.8-19.5c-10-5-21.1-7.4-33.1-7.4H166v251.4h58.1V300.4z"/>
</g>
</svg>
