<?xml version="1.0" encoding="utf-8"?>
<!-- Generator: Adobe Illustrator 19.2.1, SVG Export Plug-In . SVG Version: 6.00 Build 0)  -->
<svg version="1.1" id="Layer_1" xmlns="http://www.w3.org/2000/svg"  x="0px" y="0px"
	 viewBox="0 0 98.8 92" style="enable-background:new 0 0 98.8 92;" xml:space="preserve">
<style type="text/css">
	.st0{fill:#BF587D;}
</style>
<path class="st0" d="M70.7,82.1c-0.9-0.4-1.2-1.3-1.7-2.2c-0.2-0.3-0.2-0.6,0.2-0.8c0.6-0.4,0.8-0.9,0.6-1.6
	c-0.2-0.8-0.7-1.1-1.4-1.3c-1.1-0.3-2.2,0-3.3,0c-0.1,0-0.2,0-0.3,0.2c0,0.1,0.1,0.2,0.2,0.2c0.4,0.1,0.5,0.5,0.5,0.8
	c0,1.2,0,2.4,0,3.6c0,0.4,0,0.9-0.6,1c-0.1,0-0.2,0.1-0.2,0.2c0,0.1,0.1,0.2,0.3,0.2c0.4,0,0.7,0,1.1,0c0.4,0,0.7,0,1.1,0
	c0.1,0,0.3,0,0.3-0.2c0-0.1-0.1-0.2-0.2-0.2c-0.5-0.1-0.6-0.4-0.5-0.8c0-0.3,0-0.6,0-0.8c0-0.2-0.1-0.5,0.2-0.6
	c0.4-0.1,0.5,0.1,0.6,0.4c0.2,0.5,0.5,1,0.8,1.5c0.5,0.7,1.4,1,2.2,0.8c0.1,0,0.2-0.1,0.2-0.2C70.9,82.3,70.8,82.2,70.7,82.1z
	 M68.3,78.4c0,0.4-0.2,0.8-0.7,0.8c-0.7,0.1-0.8,0-0.8-0.7c0-0.2,0-0.4,0-0.6c0-0.2,0-0.4,0-0.6c0-0.7,0.3-0.9,0.9-0.6
	C68.4,77.1,68.4,77.8,68.3,78.4z"/>
<path class="st0" d="M30.2,9.7c0-0.4,0-0.6,0-0.8c0-1.1,0.1-1.2,1.2-1c0.1,0,0.2,0.1,0.3,0.1c1.2,0.4,2.5,0.6,3.8,0.2
	c-0.8,0.9-1.7,1.5-2.7,2c-1.9,0.9-3.8,1.4-5.9,0.8c-1.7-0.5-2.7-2-2.3-3.8c0.1-0.4,0.2-0.7,0.6-0.9c0.2-0.1,0.4-0.1,0.6,0.1
	c0.1,0.1,0.2,0.2,0.2,0.4c-0.1,0.2-0.2,0.2-0.4,0.2c-0.5,0.1-0.4,0.5-0.4,0.8c0,0.5,0.3,0.8,0.8,0.7c0.5-0.1,0.8-0.3,1.2-0.5
	c1.1-0.7,1.4-0.6,2.1,0.5C29.6,8.8,29.8,9.2,30.2,9.7z"/>
<path class="st0" d="M63.2,8.1c1.4,0.5,2.8,0,4.1-0.2c1.1-0.2,1.2-0.1,1.2,1c0,0.2,0,0.4,0,0.7c0.4-0.4,0.7-0.8,0.9-1.2
	c0.7-0.9,1-1,2-0.5c0.4,0.2,0.8,0.4,1.2,0.5c0.6,0.1,0.8-0.1,0.9-0.6c0-0.4,0.3-1-0.5-0.9c-0.2,0-0.3-0.2-0.2-0.4
	c0.1-0.3,0.4-0.5,0.7-0.4c0.3,0.1,0.5,0.4,0.6,0.7c0.6,1.6-0.3,3.4-2,4c-2.6,0.9-4.8,0.1-7-1.2C64.3,9.2,63.7,8.8,63.2,8.1z"/>
<path class="st0" d="M59.4,1.9c0.3,0,0.6,0.1,0.6,0.4c0,0.3,0,0.8-0.5,0.8c-0.8,0-1.6,0.1-2.3,0.5c-0.1,0.1-0.2,0.1-0.3,0
	c-0.1-0.1,0-0.3,0.1-0.4C57.5,2.4,58.4,2.1,59.4,1.9z"/>
<path class="st0" d="M39.3,1.9c0.9,0.2,1.8,0.6,2.4,1.2c0.1,0.1,0.2,0.2,0.2,0.4c-0.1,0.2-0.3,0.1-0.4,0c-0.7-0.4-1.4-0.5-2.1-0.5
	c-0.5,0-0.6-0.4-0.6-0.8C38.7,2,39,1.9,39.3,1.9z"/>
<path class="st0" d="M36.7,5.5c0.2-1,1.3-2,2.3-2c0.8,0,1.6,0.2,2.3,0.4c0.2,0.1,0.4,0.1,0.4,0.3c0,0.2-0.2,0.2-0.4,0.3
	c-1.2,0.4-2.4,0.6-3.6,0.8C37.4,5.4,37.1,5.5,36.7,5.5L36.7,5.5z"/>
<path class="st0" d="M54.9,0c0.8,0.8,0.7,1.7,0.3,2.6c0.4,0.1,0.9-0.3,1.1,0.3c0.2,0.6,0.6,1.2-0.2,1.8C56,4.7,55.9,4.8,55.9,5
	c0.1,0.1,0.2,0.1,0.4,0.1c1.4-0.3,2.7,0.1,4,0.6c0.6,0.2,1.1,0.2,1.7-0.2l0,0c0.4,0,1-0.1,1.3,0.2c0.4,0.5,0.8,0.8,1.2,1.2
	c0.4,0.4,0.2,0.8-0.4,0.9c-0.7,0.1-1.3-0.1-1.8-0.4c-1.2-0.6-2.4-1.3-3.8-1.6c-1.7-0.4-3.4-0.6-5.2-0.2c-1.7,0.4-2.9,1.3-3.5,3
	c-0.1,0.3-0.2,0.6-0.4,0.8c0,0,0,0-0.1,0.1C49.2,9.3,49,9,48.9,8.7c-0.7-2.1-2.3-3.1-4.4-3.2c-2.5-0.2-5,0.2-7.2,1.5
	c-0.7,0.4-1.4,0.8-2.2,0.8c-0.2,0-0.4,0-0.6,0C34.3,7.8,34,7.7,34,7.5c0-0.2,0.2-0.5,0.3-0.6c0.4-0.2,0.7-0.5,1-0.9
	c0.2-0.5,0.9-0.4,1.4-0.4l0,0c0.5,0.4,1.1,0.4,1.7,0.2c1.3-0.5,2.6-0.9,4-0.6c0.1,0,0.3,0.1,0.4-0.1c0.1-0.2-0.1-0.2-0.2-0.4
	c-0.5-0.6-0.5-1.2-0.2-1.8c0.2-0.5,0.7-0.2,1.1-0.2c-0.4-0.9-0.6-1.9,0.3-2.6c0.3,0,0.7,0,1,0c0.1,0.3,0.4,0.7-0.3,0.7
	c-0.2,0-0.5-0.2-0.6,0.2C43.8,1.2,43.7,1.7,44,2c0.1,0.1,0.3,0.2,0.4,0.1c0.6-0.7,0.6,0,0.7,0.3c0.1,0.3,0,0.7,0.3,0.8
	c0.7,0.2,1,0.8,1.3,1.4c0.4-0.9,0.6-0.9,1.2-0.3c0.6,0.6,0.8,1.2,1,2c0.1,0.4,0.1,0.8,0.2,1.3c0.3-0.1,0.2-0.3,0.2-0.5
	c0.2-1,0.3-1.9,1.1-2.7c0.2-0.2,0.4-0.5,0.8-0.5c0.4,0,0.3,0.5,0.5,0.7c0.2-0.6,0.5-1.1,1.1-1.3c0.4-0.1,0.4-0.3,0.5-0.6
	c0.1-0.2,0.1-0.5,0.2-0.7c0.1-0.2,0.3-0.4,0.5-0.1c0.2,0.2,0.4,0.3,0.6,0.1c0.3-0.3,0.2-0.7,0.1-1.1c-0.1-0.2-0.2-0.3-0.5-0.2
	c-0.8,0.2-0.6-0.2-0.4-0.6C54.2,0,54.6,0,54.9,0z"/>
<path class="st0" d="M40.7,10.7c0-0.4,0.2-0.7,0.6-0.7c0.4,0,0.8,0.7,0.7,1.2c-0.1,0.5-0.3,0.9-0.9,1.1c-0.5,0.2-1.1,0.2-1.6,0.1
	c-0.2,0-0.7-0.6-0.7,0.2c0,0.1-0.3,0.1-0.4,0c-0.2-0.1-0.4-0.4-0.5-0.6c-0.1-0.2-0.1-0.5-0.5-0.2c-0.2,0.1-0.7-0.7-0.7-1.2
	c0-0.2,0.2-0.4,0-0.6c-0.4,0.1-0.5,0.5-0.8,0.8c-0.2,0.2-0.4,0.5-0.7,0.1c-0.1-0.1-0.2-0.1-0.3,0c-0.6,0.3-1,1-1.8,1
	c-0.1,0-0.1,0-0.1,0.1c0.3,0.8-0.6,1.2-0.6,2c0,0.3-0.2,0.3-0.5,0.1c-0.5-0.5-0.5-1.2-0.4-1.9c-0.5,0.2-0.8,0.6-0.8,1.1
	c0,0.3-0.2,0.5-0.5,0.4c-1-0.1-2.5-1.2-2.9-2.2c1.1,0.2,2.1,0.3,3.2,0.2c1.7-0.2,2.9-1.2,4.1-2.1c1.7-1.2,3.3-2.6,5.3-3.2
	c1.4-0.4,2.8-0.6,4.3-0.4c2.1,0.3,3.5,1.6,4.1,3.6c0.2,0.7,0.5,1.5,0.4,2.4c-0.6-0.5-1.2-0.4-1.7-0.2c-0.5,0.2-0.9,0-1.3-0.4
	c-0.3-0.3-0.5-0.7-1-0.8c-0.3,0-0.1-0.3,0-0.4c0.4-0.6,0.9-1,1.7-0.9c-1.1-0.1-2.2-0.7-3.3,0.3c0.3-1.1,0.9-1.9,2.1-2.2
	c-0.5-0.1-0.9-0.1-1.2,0.2c-0.6,0.5-2.1,0.6-2.7,0.2c-0.1-0.1-0.2-0.1-0.2-0.2c0.1-0.5-0.1-0.3-0.4-0.3c-0.3,0-0.6,0.2-0.7-0.2
	c-0.1-0.2-0.3-0.1-0.4,0c-0.4,0.2-0.7,0.4-1,0.6c0.5,0,0.7,0.8,1.3,0.6c0.1,0,0.2,0.1,0.2,0.3c0,0.2,0,0.5-0.2,0.6
	c-0.1,0.1-0.3,0.1-0.6,0.1C40.1,9.5,40.2,10.2,40.7,10.7c0,0.1,0,0.2,0.1,0.3c0.1,0.2,0.3,0.4,0.5,0.3c0.2-0.1,0.3-0.3,0.2-0.5
	c-0.1-0.3-0.3-0.1-0.5-0.1C40.9,10.8,40.8,10.7,40.7,10.7z M44.4,6.7c-1-0.5-2-0.5-3.1-0.2C42.4,6.8,43.4,6.5,44.4,6.7z M44.8,8.5
	c0.1-0.1,0.2-0.2,0.2-0.2c-0.1,0-0.1-0.1-0.2-0.1c-0.1,0-0.2,0.1-0.2,0.2C44.6,8.4,44.7,8.5,44.8,8.5z"/>
<path class="st0" d="M58,10.8c0.5-0.5,0.6-1.3,1.3-1.7c-0.5,0-0.7-0.2-0.7-0.7c0-0.1,0-0.4,0.2-0.3c0.6,0.2,0.8-0.6,1.4-0.4
	c-0.4-0.4-0.8-0.6-1.2-0.8c-0.2-0.1-0.3,0-0.5,0.1c-0.5,0.2-1,0.5-1.4,0.7c-0.9,0.3-1.9,0.5-2.7-0.4c-0.2-0.2-0.7-0.2-1.1-0.1
	c1.2,0.3,1.8,1.1,2.1,2.2c-1-1-2.2-0.4-3.3-0.3c0.8,0,1.3,0.2,1.7,0.9c0.1,0.2,0.2,0.4-0.2,0.5c-0.4,0-0.5,0.4-0.7,0.6
	c-0.4,0.5-0.9,0.7-1.6,0.5c-0.5-0.2-1.1-0.2-1.5,0.2c-0.1-2.9,1.8-6,5.2-6.1c3-0.1,5.5,1.1,7.9,2.9c0.9,0.7,1.8,1.4,2.7,2
	c1.4,0.9,2.9,1.1,4.5,0.9c0.4,0,0.7-0.1,1.1-0.2c-0.4,1-1.9,2.2-2.9,2.2c-0.3,0-0.5-0.1-0.5-0.4c0-0.5-0.3-0.8-0.8-1.1
	c-0.1,0.6,0.1,1.2-0.3,1.7c-0.1,0.1-0.2,0.4-0.4,0.3c-0.2,0-0.2-0.3-0.2-0.5c-0.1-0.6-0.8-1-0.5-1.8c0-0.1,0-0.1-0.1-0.1
	c-0.8,0-1.2-0.7-1.8-1c0,0-0.1-0.1-0.1-0.1c-0.8,0.7-0.9-0.3-1.3-0.6c-0.1-0.1-0.2-0.2-0.4-0.2c0,0.5,0.2,1-0.2,1.4
	c-0.1,0.2-0.2,0.6-0.6,0.3c-0.2-0.1-0.2,0.1-0.3,0.2c-0.1,0.2-0.3,0.5-0.5,0.7c-0.2,0.1-0.5,0.2-0.5,0c0-0.8-0.5-0.3-0.7-0.2
	c-0.9,0.2-2.3,0-2.4-1c-0.1-0.4,0-0.7,0.2-1c0.2-0.2,0.4-0.4,0.7-0.4C57.9,10.2,58,10.4,58,10.8c-0.3,0.1-0.8-0.5-0.8,0.2
	c0,0.1,0.1,0.3,0.2,0.3C57.8,11.3,57.9,11.1,58,10.8z M57.3,6.5c-1.1-0.4-2.1-0.4-3.1,0.2C55.3,6.4,56.3,6.9,57.3,6.5z M54.1,8.4
	c0-0.2-0.2-0.2-0.3-0.2c0,0-0.1,0.1-0.2,0.1c0.1,0.1,0.2,0.1,0.3,0.2C54,8.5,54.1,8.5,54.1,8.4z"/>
<g>
	<path class="st0" d="M47.8,64.9c-1,0-1.1,1.9-1.1,2.7c0,0.9,0.1,2.7,1.1,2.7c1,0,1.1-1.9,1.1-2.7S48.8,64.9,47.8,64.9z"/>
	<path class="st0" d="M39.7,56.8c1.1,0,2.2,0,3.3,0c0.2,0,0.3,0,0.2-0.3c-0.6-2.2-1.3-4.3-1.9-6.4c-0.1,0-0.1,0-0.1,0
		c-0.6,2.1-1.3,4.2-1.9,6.4C39.4,56.7,39.5,56.8,39.7,56.8z"/>
	<path class="st0" d="M56.6,53c0.4-1.2,0.4-2.4,0.1-3.6c-0.2-1.1-0.7-1.4-1.8-1.6c-0.8-0.1-1.6,0-2.4-0.1c-0.3,0-0.4,0.1-0.4,0.4
		c0,1,0,1.9,0,2.9c0,1,0,1.9,0,2.9c0,0.1-0.1,0.3,0.2,0.3c1.1,0,2.1,0.1,3.1-0.2C56.1,53.9,56.5,53.6,56.6,53z"/>
	<path class="st0" d="M41,38.3c0,2.1,0,4.3,0,6.4c0,0.2,0,0.4,0.2,0.3c0.8,0,1.6,0,2.4-0.1c0.8-0.1,1.6-0.5,2-1.3
		c0.7-1.1,0.9-2.4,0.9-3.7c0.1-1.1,0.1-2.1,0-3.2c0-0.9-0.1-1.9-0.4-2.8c-0.4-1.5-1.2-2.2-2.7-2.5c-0.7-0.1-1.5,0-2.2-0.1
		c-0.3,0-0.4,0.1-0.4,0.4C41.1,34,41,36.2,41,38.3z"/>
	<path class="st0" d="M22.3,54.4C21.9,53,21.5,51.5,21,50c-0.1,0.1-0.1,0.1-0.1,0.2c-0.6,2.1-1.2,4.1-1.9,6.2
		c-0.1,0.3,0,0.3,0.2,0.3c1.1,0,2.3,0,3.4,0c0.3,0,0.3-0.1,0.2-0.3C22.7,55.7,22.5,55.1,22.3,54.4z"/>
	<path class="st0" d="M43.8,29.6c0.2,0.2,0.7,0.1,1.1,0.1c0.6,0,0.9-0.3,1.1-0.8c0.1-0.4,0.2-0.8,0.1-1.2c-0.1-0.7-0.6-1.2-1.3-1.2
		c-0.2,0-0.5,0-0.8,0c-0.2,0-0.3,0-0.3,0.3c0,0.4,0,0.9,0,1.3c0,0.2,0,0.4,0,0.5C43.8,28.9,43.6,29.4,43.8,29.6z"/>
	<path class="st0" d="M52.7,45c1,0,1.9,0.1,2.9-0.2c1.1-0.3,1.6-1.1,2-2c0.4-1,0.5-2.1,0.5-3.2c0.1-1.8,0-3.7-0.3-5.5
		c-0.3-1.5-1.2-2.4-2.5-2.6c-0.8-0.1-1.6,0-2.4-0.1c-0.3,0-0.4,0.1-0.4,0.4c0,2.2,0,4.3,0,6.4c0,0.7,0,1.5,0,2.2c0,1.4,0,2.8,0,4.2
		C52.5,44.8,52.5,45,52.7,45z"/>
	<path class="st0" d="M93.8,64.9c0-13,0-26,0-39c0-0.1,0-0.2,0-0.4c0-0.4-0.1-0.6-0.6-0.6c-0.6,0-1.3-0.1-1.9-0.3
		c-3.5-0.9-5.8-3.7-5.9-7c0-1.1,0-1.1-1.2-1.1c-23.2,0-46.5,0-69.7,0c-0.2,0-0.3,0-0.5,0c-0.4,0-0.6,0.1-0.6,0.6
		c0,0.7-0.1,1.3-0.3,1.9c-0.9,3.5-3.7,5.8-7.1,5.9c-0.9,0-0.9,0-0.9,1c0,12.8,0,25.6,0,38.3c0,1.4,0,1.4,1.4,1.6
		c0.2,0,0.4,0.1,0.6,0.1c3.7,0.7,6.4,3.6,6.4,7.2c0,0.7,0.2,0.9,0.9,0.9c11.7,0,23.4,0,35.1,0c11.7,0,23.4,0,35.1,0
		c0.7,0,0.8-0.2,0.9-0.8c0.3-2.8,1.4-5.1,4-6.5c1.1-0.6,2.3-0.9,3.5-0.9C93.7,65.8,93.8,65.6,93.8,64.9z M78.2,31.3
		c0,0.2-0.1,0.2-0.3,0.2c-0.5,0-1,0.1-1.3,0.5c-0.4,0.5-0.5,1-0.5,1.6c0,2.8,0,5.6,0,8.4c0,1.1,0,2.2,0,3.4c0,0.1,0.1,0.3-0.1,0.4
		c-0.2,0-0.2-0.1-0.3-0.2c-0.6-1.1-1.1-2.1-1.6-3.2c-1.6-3-3.1-6-4.7-9c-0.1-0.1-0.1-0.2-0.2-0.3c0,0,0,0,0,0c0,0.6,0,1.2,0,1.9
		c0,2.6,0,5.3,0,7.9c0,0.4,0.1,0.8,0.2,1.2c0.3,0.7,0.7,1,1.5,1c0.1,0,0.3-0.1,0.3,0.1c0.1,0.2,0,0.3-0.3,0.3c-1.3,0-2.7,0-4,0
		c0,0-0.1,0-0.1,0c-0.1,0-0.2,0-0.2-0.2c0-0.2,0.1-0.2,0.2-0.2c0.5,0,1-0.1,1.3-0.5c0.3-0.4,0.4-0.9,0.5-1.3
		c0.1-0.8,0.1-1.6,0.1-2.4c0-2.6,0-5.3,0-7.9c0-1-0.6-1.3-1.3-1.4c-0.2,0-0.4,0-0.6,0c-0.1,0-0.2-0.1-0.2-0.2c0-0.1,0-0.2,0.2-0.2
		c1.1,0,2.1,0,3.2,0c0.2,0,0.2,0.1,0.3,0.2c1,1.9,2,3.8,3,5.8c0.8,1.5,1.6,3.1,2.4,4.7c0.1-0.1,0.1-0.2,0.1-0.3c0-2.5,0-5,0-7.5
		c0-0.5-0.1-1-0.3-1.5c-0.2-0.6-0.7-0.9-1.4-1c-0.1,0-0.1,0-0.2,0c-0.2,0-0.2-0.1-0.2-0.2c0-0.2,0.1-0.2,0.2-0.2c1.4,0,2.8,0,4.1,0
		C78.1,31.1,78.1,31.1,78.2,31.3z M70.2,23.1c0.6,0,1.2,0,1.9,0c0.1,0,0.3,0,0.2,0.1c0,0.2-0.2,0.1-0.2,0.1c-0.6,0-0.6,0-0.6,0.6
		c0,0.6,0,1.1,0,1.7c0,0.2,0.1,0.3,0.3,0.3c0.6,0,1.2,0,1.8,0c0.2,0,0.3-0.1,0.3-0.3c0-0.7,0-1.3,0-2c0-0.2-0.1-0.4-0.3-0.3
		c-0.1,0-0.1,0-0.2,0c-0.1,0-0.4,0.1-0.4-0.1c0-0.2,0.2-0.1,0.4-0.1c0.6,0,1.2,0,1.9,0c0.1,0,0.2,0,0.3,0c0.1,0,0.1,0.1,0.1,0.1
		c0,0.1-0.1,0.1-0.1,0.1c-0.2,0-0.3,0-0.5,0c-0.2,0-0.3,0.1-0.3,0.2c0,1.9,0,3.8,0,5.7c0,0.2,0.1,0.3,0.3,0.2c0.1,0,0.2,0,0.2,0
		c0.1,0,0.4-0.1,0.4,0.1c0,0.2-0.2,0.1-0.4,0.1c-0.7,0-1.3,0-2,0c-0.1,0-0.3,0-0.3-0.1c0-0.2,0.2-0.1,0.3-0.1c0.6,0,0.6,0,0.6-0.7
		c0-0.8,0-1.6,0-2.5c0-0.3-0.1-0.3-0.3-0.3c-0.6,0-1.2,0-1.7,0c-0.3,0-0.4,0.1-0.4,0.4c0.1,0.5,0,0.9,0,1.4c0,0.4,0,0.8,0,1.3
		c0,0.3,0.1,0.5,0.4,0.4c0.1,0,0.2,0,0.2,0c0.1,0,0.2,0,0.2,0.1s-0.1,0.1-0.2,0.1c-0.6,0-1.1,0-1.7,0c-0.2,0-0.3,0-0.5,0
		c-0.1,0-0.2,0-0.2-0.1c0-0.1,0.1-0.1,0.2-0.1c0.2,0,0.5,0.1,0.6-0.1c0.2-0.2,0.1-0.5,0.1-0.7c0-1.7,0-3.4,0-5.1
		c0-0.3-0.1-0.5-0.4-0.4c-0.2,0-0.5,0.1-0.5-0.1C69.7,23,70,23.2,70.2,23.1z M65.1,27.2c0-0.1,0-0.2,0.1-0.2c0.1,0,0.1,0.1,0.1,0.2
		c0.1,0.5,0.2,1,0.4,1.4c0.3,0.5,0.6,0.9,1.2,1.1c0.6,0.2,1.2,0,1.5-0.5c0.3-0.5,0.2-1.2-0.2-1.6c-0.4-0.4-0.9-0.7-1.5-1
		c-0.3-0.2-0.7-0.3-0.9-0.6c-0.7-0.6-0.8-1.7-0.2-2.4c0.6-0.7,1.6-0.7,2.3-0.1c0.1,0.1,0.3,0.2,0.4,0.4c0.2-0.3,0.4-0.6,0.6-0.9
		c0.1,0.2,0.1,0.4,0.1,0.5c0,0.6,0,1.2,0,1.8c0,0.1,0.1,0.2-0.1,0.3c-0.2,0-0.1-0.1-0.1-0.2c-0.1-0.5-0.3-1-0.6-1.5
		c-0.5-0.7-1.2-0.9-1.9-0.5c-0.7,0.4-0.8,1.1-0.2,1.6c0.5,0.4,1,0.7,1.5,0.9c0.5,0.3,1,0.6,1.4,1.2c0.4,0.6,0.3,1.5-0.1,2.2
		c-0.5,0.6-1.2,0.9-2,0.6c-0.4-0.1-0.7-0.4-1-0.7c-0.1-0.2-0.2-0.2-0.3,0c-0.1,0.2-0.2,0.4-0.3,0.5c0,0.1-0.1,0.1-0.2,0.1
		c-0.1,0-0.1-0.1-0.1-0.1C65.1,28.9,65.1,28.1,65.1,27.2z M61.9,31.5c-0.4,0-0.9,0-1.3,0c-0.2,0-0.3,0-0.3-0.2
		c0-0.2,0.1-0.2,0.2-0.2c1.7,0,3.4,0,5.1,0c0.2,0,0.3,0,0.3,0.2c0,0.2-0.2,0.2-0.3,0.2c-0.4,0-0.8,0-1.2,0c-0.4,0-0.4,0.1-0.4,0.5
		c0.1,2.1,0.1,4.2,0.1,6.3c0,2.1,0,4.1,0,6.2c0,0.6-0.1,0.6,0.6,0.6c0.4,0,0.7,0,1.1,0c0.2,0,0.3,0,0.3,0.2s-0.1,0.2-0.3,0.2
		c-1.7,0-3.4,0-5.1,0c-0.1,0-0.2,0-0.2-0.2c0-0.2,0.1-0.2,0.3-0.2c0.4,0,0.8,0,1.2,0c0.5,0,0.5,0,0.5-0.5c0-2.2,0-4.3,0-6.5
		c0-2,0-4.1,0-6.1C62.3,31.7,62.2,31.5,61.9,31.5z M62.7,28.9c0-1.7,0-3.4,0-5.1c0-0.3-0.1-0.5-0.4-0.4c-0.2,0-0.5,0.1-0.5-0.1
		c0-0.2,0.3-0.1,0.5-0.1c0.3,0,0.6,0,0.8,0c0.4,0,0.7,0,1.1,0c0.1,0,0.3,0,0.3,0.1c0,0.2-0.2,0.1-0.2,0.1c-0.7,0-0.7,0-0.7,0.7
		c0,1.7,0,3.4,0,5.2c0,0.3,0.1,0.5,0.4,0.4c0.1,0,0.2,0,0.3,0c0.1,0,0.2,0,0.2,0.1c0,0.1-0.1,0.1-0.2,0.1c-0.7,0-1.5,0-2.3,0
		c-0.1,0-0.2,0-0.2-0.1c0-0.1,0.1-0.1,0.2-0.1c0,0,0,0,0,0c0.2,0,0.5,0.1,0.6-0.1C62.8,29.4,62.7,29.1,62.7,28.9z M56.5,23.5
		c0-0.2,0.1-0.4,0.3-0.4c1.4,0,2.8,0,4.2,0c0.1,0,0.2,0,0.2,0.2c0,0.9,0,1.7,0,2.6c-0.2-0.3-0.2-0.6-0.2-0.9
		c-0.1-0.5-0.2-1.1-0.8-1.4c-0.1,0-0.1-0.1-0.2-0.1c-0.6-0.2-0.7-0.2-0.7,0.5c0,1.7,0,3.5,0,5.2c0,0.3,0.1,0.5,0.4,0.4
		c0.2,0,0.5-0.1,0.5,0.1c0,0.2-0.3,0.1-0.5,0.1c-0.6,0-1.2,0-1.8,0c-0.1,0-0.3,0-0.3-0.1c0-0.1,0.2-0.1,0.2-0.1c0.6,0,0.6,0,0.6-0.7
		c0-1.7,0-3.5,0-5.2c0-0.4-0.1-0.4-0.4-0.4c-0.6,0.1-0.9,0.5-1.1,1c-0.1,0.3-0.2,0.7-0.2,1.1c0,0.2,0,0.3-0.1,0.5
		c-0.2-0.3-0.1-0.7-0.1-1C56.5,24.4,56.5,23.9,56.5,23.5z M50.4,31.5c-0.4,0-0.9,0-1.3,0c-0.2,0-0.3,0-0.3-0.2
		c0-0.2,0.1-0.2,0.2-0.2c1.9,0,3.8-0.1,5.7,0c2,0.1,3.4,1.2,4.3,2.9c0.7,1.2,0.9,2.5,0.9,3.8c0,1.7-0.2,3.3-1,4.8
		c-0.8,1.4-1.9,2.5-3.6,2.7c-0.4,0.1-0.9,0.1-1.3,0.1c-1.7,0-3.4,0-5,0c-0.1,0-0.2,0-0.3-0.1c-0.1-0.1,0-0.2,0-0.3
		c0-0.1,0.1-0.1,0.2-0.1c0.5,0,0.9,0,1.3,0c0.3,0,0.4-0.1,0.4-0.4c0-2.1,0-4.2,0-6.4c0-2.1,0-4.3,0-6.4
		C50.8,31.6,50.7,31.5,50.4,31.5z M54.3,23.8c0-0.3-0.1-0.4-0.4-0.4c-0.2,0-0.5,0.1-0.5-0.1c0-0.3,0.3-0.1,0.5-0.1
		c0.2,0,0.5,0,0.7,0c0.4,0,0.7,0,1.1,0c0.1,0,0.2,0,0.2,0.2c0,0.1-0.1,0.1-0.2,0.1c-0.7,0-0.7,0-0.7,0.7c0,1.7,0,3.4,0,5.1
		c0,0.3,0.1,0.5,0.4,0.4c0.2,0,0.5-0.1,0.5,0.1c0,0.3-0.3,0.1-0.5,0.1c-0.6,0-1.2,0-1.8,0c-0.1,0-0.2,0-0.2-0.1
		c0-0.2,0.2-0.1,0.3-0.1c0.6,0,0.6,0,0.6-0.7C54.3,27.2,54.3,25.5,54.3,23.8z M47.6,23.4c-0.2,0-0.5,0.1-0.5-0.1
		c0-0.2,0.3-0.1,0.5-0.1c0.8,0,1.7,0,2.5,0c1.1,0,1.6,0.6,1.7,1.2c0.2,1.1-0.2,1.8-1.2,2.1c0,0-0.1,0-0.2,0.1
		c0.9,0.2,1.3,0.7,1.3,1.6c0,0.4-0.1,0.7,0.1,1.1c0.1,0.5,0.3,0.6,0.8,0.5c0.1,0,0.2-0.1,0.2,0.1c0,0.1-0.1,0.1-0.2,0.1
		c-0.9,0.2-1.6-0.1-1.7-1.3c0-0.4,0-0.8-0.1-1.2c-0.1-0.6-0.3-0.8-0.9-0.9c-0.2,0-0.5,0-0.7,0c-0.2,0-0.4,0.1-0.4,0.3
		c0,0.8,0,1.6,0,2.4c0,0.2,0,0.3,0.3,0.3c0.2,0,0.5-0.1,0.6,0.1c0,0.2-0.4,0.1-0.6,0.1c-0.6,0-1.2,0-1.8,0c-0.1,0-0.2,0-0.2-0.1
		s0.1-0.1,0.2-0.1c0.7,0,0.7,0,0.7-0.7c0-1.7,0-3.4,0-5.1C48.1,23.5,48,23.3,47.6,23.4z M43,23.8c0-0.3-0.1-0.4-0.4-0.4
		c-0.2,0-0.5,0.1-0.5-0.1c0-0.2,0.3-0.1,0.5-0.1c0.9,0,1.7,0,2.6,0c0.9,0,1.5,0.5,1.6,1.3c0.1,0.7-0.4,1.4-1.2,1.6
		c-0.1,0-0.2,0.1-0.4,0.1c0.5,0.1,0.9,0.2,1.3,0.5c0.9,0.7,0.6,2.4-0.4,2.8c-0.3,0.1-0.6,0.2-0.9,0.2c-0.9,0-1.9,0-2.8,0
		c-0.1,0-0.2,0.1-0.3-0.1c0-0.2,0.2-0.1,0.3-0.1c0.6,0,0.6,0,0.6-0.7C42.9,27.2,42.9,25.5,43,23.8z M43.3,31.1
		c2.3,0.1,3.8,1.5,4.7,3.6c0.6,1.4,0.7,2.9,0.6,4.4c-0.1,1.5-0.5,2.8-1.4,4.1c-0.9,1.3-2.1,2.1-3.7,2.2c-2,0.1-4,0-6,0.1
		c-0.2,0-0.2,0-0.2-0.2s0.1-0.2,0.2-0.2c0.4,0,0.9,0,1.3,0c0.3,0,0.4-0.1,0.4-0.4c0-2.1,0-4.2,0-6.3c0-2.1,0-4.2,0-6.4
		c0-0.3-0.1-0.4-0.4-0.4c-0.5,0-0.9,0-1.4,0c-0.2,0-0.2,0-0.2-0.2c0-0.2,0.1-0.2,0.2-0.2C39.5,31.1,41.4,31,43.3,31.1z M34.8,23.8
		c0-0.3-0.1-0.4-0.4-0.4c-0.2,0-0.5,0.1-0.5-0.1c0-0.3,0.3-0.1,0.5-0.1c1.3,0,2.6,0,3.8,0c0.3,0,0.3,0.1,0.3,0.3c0,0.6,0,1.1,0,1.7
		c0,0,0,0.2-0.1,0.3c-0.2-0.2-0.1-0.5-0.2-0.7c-0.2-0.5-0.3-1.1-0.9-1.2c-0.5-0.2-1-0.1-1.5-0.1c-0.2,0-0.1,0.1-0.1,0.2
		c0,0.8,0,1.5,0,2.3c0,0.2,0.1,0.2,0.2,0.2c0.6,0,1-0.3,1.1-0.9c0-0.2,0.1-0.3,0.2-0.5c0,1,0,2,0,3c-0.1-0.2-0.1-0.3-0.2-0.5
		c-0.1-0.6-0.6-0.9-1.2-0.8c-0.1,0-0.2,0.1-0.2,0.2c0,1,0,1.9,0,2.9c0,0.2,0.1,0.2,0.2,0.2c0.4,0,0.8,0,1.1,0c0.5,0,0.8-0.3,1.1-0.7
		c0.2-0.5,0.4-0.9,0.5-1.4c0-0.1,0-0.2,0.1-0.2c0.1,0,0.1,0.1,0.1,0.2c0,0.7,0,1.4,0,2.2c0,0.2-0.1,0.3-0.3,0.3c-1.4,0-2.9,0-4.3,0
		c-0.1,0-0.2,0-0.2-0.1c0-0.2,0.1-0.1,0.2-0.1c0.7,0,0.7,0,0.7-0.7C34.8,27.3,34.8,25.5,34.8,23.8z M36.1,45.1
		c0,0.3-0.1,0.4-0.4,0.4c-3.2,0-6.4,0-9.5,0c-0.1,0-0.2,0.1-0.3-0.1c0-0.2,0-0.3,0.2-0.3c0.4,0,0.7,0,1.1,0c0.6,0,0.6,0,0.6-0.6
		c0-2.1,0-4.1,0-6.2c0-2.1,0-4.2,0-6.3c0-0.3-0.1-0.4-0.4-0.4c-0.4,0-0.9,0-1.3,0c-0.2,0-0.2,0-0.2-0.2c0-0.2,0.1-0.2,0.2-0.2
		c0.1,0,0.1,0,0.2,0c3.1,0,6.1,0,9.2,0c0.3,0,0.4,0.1,0.4,0.4c0,1.4,0,2.7,0,4.1c0,0,0,0.1,0,0.1c0,0.1,0,0.2-0.1,0.2
		c-0.2,0-0.2-0.1-0.2-0.2c-0.1-0.7-0.3-1.4-0.5-2.1c-0.2-0.6-0.5-1.1-1-1.5c-0.5-0.5-1.2-0.6-1.8-0.6c-0.8,0-1.6,0-2.4,0
		c-0.2,0-0.3,0.1-0.3,0.3c0,1.8,0,3.6,0,5.4c0,0.2,0.1,0.3,0.3,0.3c0.9,0,1.8-0.2,2.3-1.1c0.3-0.6,0.5-1.2,0.5-1.8c0,0,0-0.1,0-0.1
		c0-0.1,0-0.2,0.1-0.2c0.1,0,0.1,0.1,0.1,0.1c0,0.1,0,0.1,0,0.2c0,2,0,3.9,0,5.9c0,0.1,0,0.1,0,0.2s0,0.2-0.1,0.1
		c-0.1,0-0.1-0.1-0.1-0.2c0-0.3-0.1-0.7-0.1-1c-0.2-0.8-0.5-1.4-1.3-1.7c-0.5-0.1-1-0.1-1.5-0.1c-0.2,0-0.2,0.2-0.2,0.3
		c0,1.6,0,3.3,0,4.9c0,0.5,0,1,0,1.6c0,0.1,0,0.2,0.2,0.2c0.9,0,1.9,0.1,2.8,0c1.3-0.2,2.1-1,2.5-2.2c0.4-0.8,0.5-1.7,0.7-2.6
		c0-0.2,0-0.4,0.2-0.4c0.2,0,0.1,0.3,0.1,0.4C36.1,41.9,36,43.5,36.1,45.1z M28.3,23.8c0-0.3-0.1-0.4-0.4-0.4
		c-0.2,0-0.5,0.1-0.5-0.1c0-0.3,0.3-0.1,0.5-0.1c0.6,0,1.2,0,1.8,0c0.1,0,0.3,0,0.3,0.1s-0.2,0.1-0.3,0.1c-0.6,0-0.6,0-0.6,0.6
		c0,0.5,0,1.1,0,1.6c0,0.2,0,0.3,0.3,0.3c0.6,0,1.2,0,1.9,0c0.2,0,0.3-0.1,0.3-0.3c0-0.7,0-1.3,0-2c0-0.2-0.1-0.3-0.3-0.3
		c-0.1,0-0.3,0-0.4,0c-0.1,0-0.2,0-0.2-0.1c0-0.1,0.1-0.1,0.2-0.1c0.8,0,1.5,0,2.3,0c0.1,0,0.2,0,0.2,0.1c0,0.1-0.1,0.1-0.2,0.1
		c-0.2,0-0.5-0.1-0.7,0.1c-0.1,0.2,0,0.5,0,0.7c0,1.7,0,3.4,0,5.1c0,0.3,0.1,0.5,0.4,0.4c0.1,0,0.2,0,0.2,0c0.1,0,0.3-0.1,0.3,0.1
		c0,0.1-0.1,0.1-0.2,0.1c-0.7,0-1.4,0-2.2,0c-0.1,0-0.2,0-0.2-0.1c0-0.2,0.2-0.1,0.2-0.1c0.7,0,0.7,0,0.7-0.7c0-0.3,0-0.7,0-1
		c0-0.5,0-0.9,0-1.4c0-0.2,0-0.3-0.3-0.3c-0.7,0-1.3,0-2,0c-0.2,0-0.3,0.1-0.3,0.2c0,1,0,1.9,0,2.9c0,0.2,0.1,0.3,0.3,0.3
		c0.2,0,0.3,0,0.5,0c0.1,0,0.2,0,0.2,0.1c0,0.1-0.1,0.1-0.2,0.1c-0.8,0-1.5,0-2.3,0c-0.1,0-0.2,0-0.2-0.1c0-0.1,0.1-0.1,0.2-0.1
		c0.7-0.1,0.7-0.1,0.7-0.8C28.3,27.2,28.3,25.5,28.3,23.8z M22.3,25.7c0-0.8,0-1.6,0-2.3c0-0.2,0-0.3,0.2-0.3c1.1,0.1,2.2,0,3.4,0
		c0.3,0,0.6,0,0.9,0c0.2,0,0.2,0.1,0.2,0.2c0,0.8,0,1.6,0,2.4c0,0,0,0.1-0.1,0.1c-0.2-0.3-0.1-0.6-0.2-0.9c-0.1-0.4-0.2-0.7-0.4-1.1
		c-0.3-0.4-0.7-0.5-1.1-0.5c-0.2,0-0.2,0.1-0.2,0.2c0,1.9,0,3.9,0,5.8c0,0.2,0.1,0.2,0.2,0.2c0.2,0,0.3,0,0.5,0c0.1,0,0.2,0,0.2,0.1
		c0,0.1-0.1,0.1-0.1,0.1c0,0-0.1,0-0.1,0c-0.7-0.1-1.5,0.1-2.2,0c-0.1,0-0.2,0-0.2-0.1c0-0.1,0.1-0.1,0.2-0.1c0.2,0,0.5,0.1,0.7-0.1
		c0.2-0.2,0.1-0.5,0.1-0.7c0-1.7,0-3.4,0-5.1c0-0.4,0-0.4-0.4-0.4c-0.3,0.1-0.6,0.2-0.8,0.5c-0.3,0.4-0.4,0.9-0.5,1.5
		c0,0.2,0,0.4-0.1,0.6C22.3,25.9,22.3,25.8,22.3,25.7z M14.9,45.3c0,0.2,0,0.4-0.3,0.4c-0.3,0-0.4-0.2-0.4-0.4
		c-0.9-3.7-1.8-7.3-2.7-11c-0.2-0.8-0.4-1.7-0.6-2.5c-0.1-0.2-0.2-0.3-0.4-0.3c-0.3,0-0.6,0-1,0c-0.1,0-0.2,0-0.2-0.2
		c0-0.2,0.1-0.2,0.2-0.2c1.4,0,2.9,0,4.3,0c0.2,0,0.2,0,0.2,0.2c0,0.2-0.1,0.2-0.2,0.2c-0.3,0-0.7,0-1,0c-0.2,0-0.2,0-0.2,0.3
		l2.4,10.3c0,0,0,0.1,0,0.1c0,0,0,0,0.1,0c0.2-0.7,0.3-1.3,0.5-2c0.5-2.1,0.9-4.1,1.4-6.2c0-0.1,0-0.2,0-0.3c-0.2-0.7-0.3-1.3-0.5-2
		c0-0.1-0.1-0.2-0.3-0.2c-0.3,0-0.7,0-1,0c-0.2,0-0.2,0-0.2-0.2c0-0.2,0.1-0.2,0.2-0.2c1.5,0,3.1,0,4.6,0c0.2,0,0.2,0.1,0.2,0.2
		c0,0.2-0.1,0.2-0.2,0.2c-0.4,0-0.8,0-1.2,0c-0.3,0-0.4,0.1-0.3,0.4c0.4,1.6,0.8,3.2,1.3,4.9c0.5,1.8,0.9,3.6,1.4,5.4
		c0,0,0,0.1,0.1,0.2c0.1-0.6,0.3-1.2,0.4-1.7c0.5-2.2,0.9-4.3,1.4-6.5c0.1-0.4,0.1-0.8,0.1-1.2c0-0.7-0.5-1.2-1.2-1.3
		c-0.1,0-0.2-0.1-0.4-0.1c-0.2,0-0.2-0.1-0.2-0.2c0-0.2,0.1-0.2,0.3-0.2c0.9,0,1.8,0,2.7,0c0.3,0,0.7,0,1,0c0.1,0,0.3,0,0.3,0.2
		c0,0.2-0.1,0.3-0.2,0.3c-0.6,0.1-1.1,0.4-1.4,1c-0.2,0.3-0.3,0.7-0.4,1.1c-0.6,2.5-1.1,5.1-1.7,7.6c-0.3,1.4-0.6,2.7-0.9,4.1
		c0,0.2-0.1,0.4-0.3,0.4c-0.3,0-0.3-0.2-0.4-0.4c-0.6-2.5-1.3-5.1-1.9-7.6c-0.2-0.9-0.5-1.9-0.7-2.8c0-0.1,0-0.1-0.1-0.2
		c-0.2,0.9-0.4,1.8-0.6,2.6c-0.5,2.1-0.9,4.2-1.4,6.2C15.2,44.1,15.1,44.7,14.9,45.3z M27.1,61.7c-0.7,0-1.4,0-2.1,0
		c-0.7,0-1.4,0-2.1,0c-0.1,0-0.3,0-0.3-0.2c0-0.2,0.1-0.2,0.3-0.2c0.4,0,0.7,0,1.1,0c0.2,0,0.3,0,0.2-0.2c-0.4-1.2-0.7-2.4-1.1-3.6
		c-0.1-0.2-0.1-0.2-0.3-0.2c-1.3,0-2.6,0-3.8,0c-0.2,0-0.3,0.1-0.3,0.3c-0.2,0.7-0.5,1.4-0.5,2.2c-0.1,0.9,0.4,1.7,1.4,1.7
		c0.1,0,0.3-0.1,0.4,0.1c0.1,0.2,0,0.3-0.2,0.3c-0.8,0-1.7,0-2.5,0c-0.4,0-0.9,0-1.3,0c-0.1,0-0.2,0-0.2-0.2c0-0.1,0-0.2,0.2-0.2
		c1-0.2,1.5-0.9,1.8-1.8c0.6-1.5,0.9-3,1.4-4.6c0.7-2.5,1.5-4.9,2.2-7.4c0-0.2,0.1-0.3,0.3-0.3c0.2,0,0.3,0.2,0.3,0.3
		c0.8,2.8,1.7,5.6,2.5,8.4c0.5,1.7,1.1,3.5,1.6,5.2c0.1,0.2,0.2,0.2,0.3,0.2c0.2,0,0.5,0,0.7,0c0.2,0,0.3,0,0.3,0.2
		C27.4,61.7,27.3,61.7,27.1,61.7z M35.2,61.6c0,0.2,0,0.4-0.3,0.4c-0.3,0-0.3-0.1-0.4-0.3c-0.5-2-1-3.9-1.5-5.9
		c-0.4-1.5-0.8-3-1.2-4.5c0-0.1,0-0.2-0.1-0.3c-0.3,1.3-0.6,2.6-0.9,3.9C30.4,57,30,59,29.5,61.1c0,0.2-0.1,0.3-0.1,0.5
		c0,0.2,0,0.4-0.4,0.4c-0.3,0-0.3-0.2-0.4-0.4c-1.1-4.5-2.2-8.9-3.2-13.4c-0.1-0.3-0.2-0.5-0.6-0.4c-0.3,0-0.6,0-0.8,0
		c-0.1,0-0.2,0-0.2-0.2c0-0.2,0.1-0.2,0.2-0.2c1.4,0,2.9,0,4.3,0c0.2,0,0.2,0.1,0.2,0.2c0,0.2-0.1,0.2-0.2,0.2c-0.3,0-0.6,0-1,0
		c-0.2,0-0.4,0-0.3,0.3c0.6,2.5,1.2,4.9,1.8,7.4c0.2,1,0.5,1.9,0.7,3c0.2-0.4,0.2-0.7,0.3-1.1c0.5-2.4,1.1-4.8,1.6-7.2
		c0-0.1,0.1-0.1,0-0.2c-0.2-0.7-0.4-1.5-0.6-2.3c0-0.1-0.2-0.1-0.3-0.1c-0.3,0-0.7,0-1,0c-0.1,0-0.2,0-0.2-0.2
		c0-0.2,0.1-0.2,0.2-0.2c1.5,0,3,0,4.5,0c0.2,0,0.2,0,0.2,0.2c0,0.2-0.1,0.2-0.2,0.2c-0.4,0-0.8,0-1.2,0c-0.3,0-0.3,0.1-0.2,0.4
		c0.4,1.5,0.7,3,1.1,4.5c0.5,1.9,1,3.8,1.5,5.8c0,0.1,0,0.1,0.1,0.3c0.2-0.7,0.3-1.2,0.4-1.8c0.5-2.2,0.9-4.3,1.4-6.5
		c0.1-0.5,0.2-0.9,0.1-1.4c-0.1-0.6-0.5-0.9-1.1-1.1c-0.1,0-0.3-0.1-0.4-0.1c-0.1,0-0.2-0.1-0.2-0.2c0-0.1,0.1-0.2,0.2-0.2
		c0.1,0,0.1,0,0.2,0c1.2,0,2.4,0,3.5,0c0.1,0,0.3-0.1,0.3,0.2c0,0.2-0.1,0.3-0.3,0.3c-1.1,0.2-1.5,1-1.8,2c-0.6,2.9-1.3,5.8-1.9,8.7
		C35.7,59.6,35.4,60.6,35.2,61.6z M40.1,61.7c-1.2,0-2.5,0-3.7,0c-0.1,0-0.3,0.1-0.3-0.2c0-0.2,0.1-0.2,0.2-0.3
		c1.1-0.2,1.5-1.1,1.8-2c0.6-1.8,1.1-3.6,1.6-5.3c0.7-2.2,1.3-4.3,1.9-6.5c0-0.2,0.1-0.2,0.3-0.2c0.2,0,0.3,0.1,0.3,0.2
		c1.3,4.5,2.7,9,4.1,13.5c0.1,0.3,0.2,0.5,0.6,0.4c0.2,0,0.4,0,0.6,0c0.2,0,0.2,0,0.2,0.2s-0.1,0.2-0.2,0.2c-0.7,0-1.4,0-2.1,0
		c-0.7,0-1.3,0-2,0c-0.1,0-0.3,0-0.3-0.2c0-0.2,0.1-0.2,0.3-0.2c0.4,0,0.7,0,1.1,0c0.2,0,0.2-0.1,0.2-0.2c-0.4-1.2-0.7-2.4-1.1-3.7
		c-0.1-0.2-0.1-0.2-0.3-0.2c-1.3,0-2.6,0-3.9,0c-0.2,0-0.2,0.1-0.3,0.2c-0.2,0.7-0.4,1.4-0.5,2.1c-0.1,1,0.4,1.9,1.5,1.8
		c0.1,0,0.3-0.1,0.3,0.2C40.4,61.8,40.2,61.7,40.1,61.7z M45.1,70.5c-0.4,0-0.8,0-1.2,0h-1.3c-0.5,0-0.8,0-1,0c0,0-0.1,0-0.1-0.1
		c0,0,0-0.1,0.1-0.1c0.4-0.3,0.7-0.6,1.4-1.3c0.6-0.7,1.3-1.5,1.3-2.5c0-0.8-0.4-1.3-1.2-1.3c-0.6,0-0.9,0.4-1.2,0.9
		c-0.1,0-0.2,0-0.2-0.1c0.3-0.8,1-1.3,1.9-1.3c0.9,0,1.5,0.6,1.5,1.5c0,0.6-0.3,1.2-1,2l-0.6,0.7c-0.7,0.9-0.8,1-0.8,1.1
		c0,0.1,0,0.1,0.3,0.1h1.2v0c0.4,0,0.7-0.1,0.9-0.2c0.2-0.2,0.2-0.3,0.3-0.4c0.1,0,0.2,0,0.2,0.1C45.4,69.9,45.2,70.4,45.1,70.5z
		 M47.8,70.6c-1.3,0-1.9-1.6-1.9-3c0-1.4,0.6-3,1.9-3c1.3,0,1.9,1.6,1.9,3C49.7,69.1,49.2,70.6,47.8,70.6z M52.8,70.5
		c-0.4,0-0.8,0-1.1,0c-0.3,0-0.7,0-1.1,0c-0.1,0-0.1-0.2,0-0.2l0.4,0c0.4,0,0.4-0.2,0.4-0.9v-3.1h0c0-0.6,0-0.8-0.4-0.9l-0.4,0
		c-0.1,0-0.1-0.2,0-0.2c0.8-0.1,1.3-0.4,1.5-0.5c0,0,0.1,0,0.1,0c0,0.2,0,0.6,0,1.2v3.6c0,0.7,0,0.9,0.4,0.9l0.4,0
		C52.9,70.4,52.8,70.5,52.8,70.5z M57.3,64.3c-0.6,0.2-1.4,0.5-2,1.2c-0.8,0.8-1.1,1.8-1.1,2.8c0,1.1,0.4,2.1,1.3,2.1
		c0.7,0,1-0.6,1-1.4c0-0.8-0.4-1.5-1.1-1.5c-0.2,0-0.3,0-0.4,0.1c-0.1,0-0.1-0.1,0-0.1c0.3-0.2,0.5-0.3,0.9-0.3
		c0.9,0,1.5,0.7,1.5,1.6c0,1.1-0.8,1.9-1.9,1.9c-1.3,0-2-1.1-2-2.3c0-0.8,0.3-1.9,1.2-2.9c1-0.9,2.1-1.2,2.7-1.3
		C57.4,64.2,57.4,64.3,57.3,64.3z M60.6,61.8c-0.9,0.4-2.8,0.3-3.5-0.9c-0.3-0.5-0.4-1.1-0.5-1.7c-0.1-0.8,0-1.7-0.1-2.6
		c0-0.2-0.1-0.5-0.1-0.7c-0.2-0.8-0.8-1.2-1.7-1.3c-0.7,0-1.5,0-2.2,0c-0.2,0-0.3,0.1-0.3,0.3c0,2,0,4,0,6c0,0.2,0.1,0.3,0.3,0.3
		c0.5,0,0.9,0,1.3,0c0.2,0,0.3,0,0.3,0.2c0,0.2-0.1,0.2-0.2,0.2c-1.7,0-3.4,0-5.1,0c-0.1,0-0.2,0-0.2-0.2s0.1-0.2,0.2-0.2
		c0.5,0,0.9,0,1.3,0c0.2,0,0.4-0.1,0.3-0.3c0-0.6,0-1.1,0-1.7c0-3.7,0-7.4,0-11c0-0.3-0.1-0.5-0.4-0.4c-0.4,0-0.8,0-1.2,0
		c-0.2,0-0.3,0-0.3-0.2c0-0.2,0.1-0.2,0.2-0.2c2.1,0,4.3,0,6.4,0c0.8,0,1.5,0.2,2.2,0.6c0.8,0.6,1.2,1.4,1.3,2.4
		c0.1,1.2-0.1,2.2-1.1,3.1c-0.6,0.5-1.3,0.8-2.1,1c-0.1,0-0.1,0-0.2,0.1c0.1,0.1,0.3,0.1,0.5,0.1c1.6,0.4,2.2,1.4,2.4,2.8
		c0.1,0.7,0.1,1.3,0.1,2c0,0.4,0.1,0.8,0.2,1.2c0.2,0.7,0.8,0.9,1.5,0.8c0.1,0,0.2,0,0.3-0.1c0.1,0,0.2-0.1,0.2,0
		C60.7,61.6,60.8,61.7,60.6,61.8z M71.8,58.8c-0.5,1-1.2,1.8-2.1,2.3c-0.7,0.4-1.5,0.6-2.3,0.6c-1.8,0-3.7,0-5.5,0
		c-0.2,0-0.3,0-0.3-0.2c0-0.3,0.2-0.2,0.3-0.2c0.4,0,0.7,0,1.1,0c0.6,0,0.5,0.1,0.5-0.5c0-2.1,0-4.2,0-6.2c0-2.1,0-4.2,0-6.4
		c0-0.3-0.1-0.4-0.4-0.4c-0.4,0-0.9,0-1.3,0c-0.1,0-0.2,0-0.2-0.2s0.1-0.2,0.2-0.2c1.9,0,3.7,0,5.6,0c2,0.1,3.5,1.1,4.4,2.9
		c0.6,1.2,0.9,2.4,0.9,3.7C72.8,55.7,72.5,57.3,71.8,58.8z M81.6,60.5c-0.8,1-1.8,1.6-3.1,1.6c-1,0-1.8-0.4-2.5-1
		c-0.3-0.3-0.6-0.5-0.8-0.9c-0.1-0.2-0.2-0.2-0.3,0c-0.2,0.5-0.5,1-0.8,1.5c-0.1,0.1-0.1,0.3-0.3,0.2c-0.2,0-0.1-0.2-0.1-0.3
		c-0.1-1-0.1-1.9-0.1-2.8c0-0.9,0-1.8,0-2.8c0-0.1-0.1-0.3,0.1-0.3c0.2,0,0.2,0.1,0.2,0.3c0.2,1.4,0.6,2.7,1.5,3.9
		c0.7,1,1.6,1.6,2.9,1.7c1.2,0.1,2.2-0.6,2.7-1.6c0.5-1,0.2-2.3-0.6-3.1c-0.8-0.8-1.8-1.4-2.8-2c-0.8-0.5-1.7-0.9-2.5-1.5
		c-0.7-0.6-1.1-1.3-1.2-2.3c-0.1-1.1,0.2-2.2,1-3c1.2-1.2,3.3-1.2,4.6-0.1c0.3,0.3,0.6,0.5,0.8,0.9c0.2,0.2,0.2,0.1,0.4,0
		c0.3-0.5,0.5-0.9,0.8-1.4c0.1-0.1,0.1-0.2,0.2-0.2c0.1,0,0.1,0.2,0.1,0.3c0,1.6,0,3.2,0,4.8c0,0.1,0.1,0.3-0.1,0.4
		c-0.2,0-0.2-0.2-0.3-0.3c-0.2-0.9-0.5-1.8-0.9-2.7c-0.6-1.1-1.4-1.9-2.6-2.1c-1.1-0.2-2,0.1-2.7,0.9c-0.8,1-0.6,1.9,0.5,2.9
		c1,0.9,2.2,1.4,3.4,2.1c0.9,0.6,1.9,1.1,2.5,2C82.7,57,82.6,59.1,81.6,60.5z M88.4,39.2c-0.4,0-0.7,0-1.1,0c-0.3,0-0.4,0.1-0.4,0.4
		c0,1.9,0,3.7,0,5.6c0,0.1,0,0.1,0,0.2c0,0.1,0,0.2-0.1,0.3c-0.1,0-0.2-0.1-0.3-0.2c-0.3-0.6-0.7-1.1-1-1.6
		c-0.1-0.1-0.1-0.1-0.2-0.2c-0.2,0.5-0.4,0.8-0.7,1.2c-1,1.1-2.7,1.2-3.8,0.4c-1.5-0.9-2.3-2.4-2.7-4c-0.7-2.9-0.4-5.7,1.3-8.2
		c0.5-0.7,1.1-1.4,1.9-1.8c1-0.5,1.9-0.4,2.9,0.1c0.5,0.2,0.8,0.6,1.2,1c0.1,0.2,0.2,0.1,0.4,0c0.3-0.4,0.7-0.7,1-1.1
		c0.1-0.1,0.2-0.2,0.3-0.1c0.2,0,0.1,0.2,0.1,0.3c0,1.7,0,3.5,0,5.2c0,0.1,0,0.3-0.2,0.3c-0.2,0-0.2-0.1-0.3-0.2
		c-0.2-1.1-0.5-2.1-1-3.1c-0.4-0.7-0.9-1.4-1.6-1.8c-1.2-0.7-2.9-0.5-3.6,1.2c-0.4,0.9-0.5,1.8-0.6,2.7c-0.2,1.5-0.2,3-0.2,4.5
		c0,1.2,0,2.4,0.4,3.5c0.7,1.9,3.1,2.2,4.3,1c0.5-0.6,0.7-1.2,0.8-2c0.1-1,0-2,0.1-3.1c0-0.3-0.1-0.4-0.4-0.3c-0.4,0-0.8,0-1.2,0
		c-0.2,0-0.2,0-0.2-0.2s0.1-0.2,0.2-0.2c1.6,0,3.2,0,4.8,0c0.1,0,0.2,0,0.2,0.2C88.7,39.2,88.6,39.2,88.4,39.2z"/>
	<path class="st0" d="M44.8,26.2c0.7,0,1.1-0.4,1.2-1.1c0-0.2,0-0.5,0-0.7c-0.2-0.7-0.4-1-1.2-1c-0.2,0-0.4,0-0.6,0
		c-0.3,0-0.4,0.1-0.4,0.4c0,0.3,0,0.7,0,1c0,0.2,0,0.3,0,0.5C43.8,26.2,43.8,26.2,44.8,26.2z"/>
	<path class="st0" d="M70.4,50.2c-0.3-1.2-1.1-2-2.4-2.3c-0.8-0.2-1.6-0.1-2.5-0.1c-0.3,0-0.4,0.1-0.4,0.4c0,2.1,0,4.2,0,6.4
		c0,1.1,0,2.1,0,3.2c0,1.1,0,2.2,0,3.2c0,0.2,0,0.3,0.2,0.3c0.8,0,1.6,0,2.4-0.1c0.9-0.2,1.6-0.6,2.1-1.4c0.5-0.9,0.7-1.9,0.8-2.9
		c0.1-1.2,0.1-2.5,0.1-3.7C70.7,52.2,70.6,51.2,70.4,50.2z"/>
	<path class="st0" d="M48.9,26.1c0,0.2,0,0.3,0.3,0.3c0.3,0,0.5,0,0.8,0c0.6,0,0.9-0.3,1-0.8c0-0.2,0.1-0.5,0.1-0.8
		c0-1.2-0.3-1.5-1.4-1.4c-0.1,0-0.2,0-0.4,0c-0.3,0-0.4,0.1-0.4,0.4C48.9,24.5,48.9,25.3,48.9,26.1z"/>
</g>
<path class="st0" d="M31.6,82.6c-0.8-1.8-1.6-3.6-2.4-5.4c-0.1-0.3-0.3-0.5-0.6-0.6c-0.1,0-0.2-0.2-0.2-0.3c0.1-0.1,0.2-0.1,0.3-0.1
	c0.6,0.1,1.2,0.1,1.8,0c0.1,0,0.2,0,0.3,0.1c0.1,0.1,0,0.2-0.1,0.3c-0.2,0.1-0.2,0.2-0.1,0.4c0.6,1.3,1.1,2.5,1.7,3.9
	c0.6-0.8,0.9-1.5,0.4-2.4c-0.3-0.4-0.4-0.9-0.7-1.4c-0.1-0.1-0.1-0.2-0.2-0.4c-0.1-0.2-0.6-0.1-0.5-0.4c0.1-0.4,0.5-0.1,0.7-0.1
	c0.4,0,0.8,0,1.3-0.1c0.2,0,0.5,0.1,0.4,0.2c-0.8,0.7,0.2,1.1,0,1.8c0.5-0.4,0.5-0.9,0.7-1.2c0.1-0.1,0.1-0.2-0.1-0.3
	c-0.1-0.1-0.5-0.1-0.4-0.3c0.1-0.3,0.4-0.1,0.6-0.1c0.3,0,0.7,0,1-0.1c0.2,0,0.3,0,0.4,0.1c0.1,0.2-0.1,0.2-0.2,0.3
	c-1,0.4-1.2,1.4-1.5,2.2c-0.2,0.6,0.5,1.3,0.8,2c0.5-1.3,1-2.6,1.5-3.8c0.1-0.2,0.1-0.4-0.1-0.5c-0.1-0.1-0.4-0.1-0.2-0.3
	c0.1-0.2,0.3-0.1,0.4-0.1c0.4,0,0.7,0,1.1,0c0.1,0,0.3-0.1,0.4,0.1c0.1,0.2-0.1,0.3-0.2,0.3c-0.5,0.1-0.6,0.5-0.8,0.8
	c-0.8,1.7-1.5,3.4-2.2,5.2c-0.2,0-0.4,0-0.6,0c-0.4-0.8-0.7-1.6-1.1-2.5c-0.4,1-0.8,1.7-1.1,2.5C32,82.6,31.8,82.6,31.6,82.6z"/>
<g>
	<path class="st0" d="M16.2,87.3c0-0.9,0-1.1-0.4-1.1l-0.2,0c-0.1,0-0.1-0.3,0-0.3c0.7,0,1.4-0.1,2.4-0.1c0.9,0,1.5,0.1,1.9,0.4
		c0.4,0.2,0.7,0.6,0.7,1.2c0,0.8-0.7,1.1-1,1.2c-0.1,0-0.2,0.1-0.2,0.1c0,0,0,0.1,0.1,0.1c0.7,0.2,1.4,0.7,1.4,1.6
		c0,0.9-0.5,1.4-1.1,1.6C19.1,92,18.4,92,17.9,92c-0.3,0-0.7,0-1,0c-0.5,0-0.9,0-1.5,0c-0.1-0.1-0.1-0.3,0-0.3l0.3-0.1
		c0.4-0.1,0.5-0.2,0.5-1L16.2,87.3L16.2,87.3L16.2,87.3z M17.5,88.2c0,0.2,0,0.3,0.5,0.3c0.8,0,1.1-0.5,1.1-1.1
		c0-0.8-0.5-1.2-1.2-1.2c-0.4,0-0.5,0.1-0.5,0.5L17.5,88.2L17.5,88.2z M17.5,90.4c0,0.7,0.1,1.2,0.8,1.2c0.7,0,1.1-0.5,1.1-1.3
		c0-0.8-0.5-1.4-1.4-1.4c-0.5,0-0.5,0-0.5,0.4V90.4L17.5,90.4z"/>
	<path class="st0" d="M23.5,88.2c0,0.3,0,0.3,0.3,0.3h0.7c0.5,0,0.6-0.1,0.7-0.5l0-0.2c0.1-0.1,0.3-0.1,0.4,0c0,0.3,0,0.6,0,1
		c0,0.4,0,0.7,0,1c0,0.1-0.3,0.1-0.4,0l0-0.2C25,89.1,24.9,89,24.4,89h-0.7c-0.2,0-0.3,0-0.3,0.3v1.1c0,0.4,0,0.7,0.2,0.9
		c0.1,0.2,0.3,0.2,1,0.2c0.8,0,1.2,0,1.7-1.1c0.1-0.1,0.3-0.1,0.4,0c0,0.5-0.3,1.3-0.4,1.5c-0.5,0-1.4,0-2.2,0h-1.2
		c-0.5,0-0.9,0-1.6,0c-0.1-0.1-0.1-0.3,0-0.3l0.4-0.1c0.4-0.1,0.5-0.1,0.5-1v-3.5c0-0.9-0.1-0.9-0.5-1l-0.2,0
		c-0.1-0.1-0.1-0.3,0-0.3c0.4,0,0.9,0,1.4,0h2c0.6,0,1.2,0,1.3,0c0,0.2,0.1,0.8,0.1,1.5c0,0.1-0.2,0.1-0.4,0
		c-0.1-0.3-0.2-0.6-0.4-0.7c-0.2-0.2-0.5-0.3-0.9-0.3h-0.7c-0.3,0-0.3,0-0.3,0.4L23.5,88.2L23.5,88.2L23.5,88.2z"/>
	<path class="st0" d="M29.1,92.1c-0.9,0-1.4-0.2-1.6-0.4c-0.2-0.2-0.3-0.9-0.3-1.5c0.1-0.1,0.3-0.1,0.4,0c0.2,0.6,0.8,1.5,1.6,1.5
		c0.7,0,1-0.5,1-0.9c0-0.8-0.7-1.2-1.3-1.5c-0.7-0.3-1.4-0.9-1.4-1.8c0-1.1,0.8-1.8,2.2-1.8c0.3,0,0.7,0,1.1,0.2
		c0.1,0,0.2,0.1,0.3,0.1c0.1,0.2,0.2,0.7,0.2,1.3c0,0.1-0.3,0.1-0.4,0c-0.2-0.5-0.6-1.2-1.2-1.2c-0.6,0-1,0.4-1,0.9
		c0,0.4,0.4,0.8,0.9,1.1l0.6,0.3c0.6,0.3,1.3,0.9,1.3,1.9C31.4,91.4,30.5,92.1,29.1,92.1z"/>
	<path class="st0" d="M34.1,86.5c0-0.2,0-0.3-0.2-0.3h-0.6c-0.7,0-0.9,0.4-1.2,1.1c-0.1,0.1-0.3,0-0.4-0.1c0.2-0.7,0.2-1.2,0.3-1.6
		c0,0,0.1,0,0.1,0s0.1,0,0.1,0c0,0.2,0.1,0.2,0.8,0.2h3.5c0.6,0,0.8,0,0.8-0.2c0,0,0.1,0,0.1,0c0.1,0,0.1,0,0.1,0.1
		c-0.1,0.3-0.2,1.1-0.1,1.6c0,0.1-0.3,0.1-0.4,0c-0.2-0.6-0.3-1.1-1-1.1h-0.6c-0.2,0-0.2,0-0.2,0.3v4.2c0,0.9,0.1,0.9,0.5,1l0.4,0
		c0.1,0.1,0.1,0.3,0,0.3c-0.6,0-1.1,0-1.5,0c-0.5,0-0.9,0-1.6,0c-0.1-0.1-0.1-0.3,0-0.3l0.4,0c0.4,0,0.5-0.1,0.5-1L34.1,86.5
		L34.1,86.5z"/>
	<path class="st0" d="M46,90.9c0,0.4,0,0.6,0.2,0.6c0,0,0,0.2,0,0.2c-0.2,0-0.4,0.1-0.7,0.1c-0.3,0.1-1.2,0.2-1.7,0.2
		c-0.6,0-1.2-0.1-1.9-0.3c-1.1-0.4-1.9-1.5-1.9-2.8c0-1.2,0.5-2.2,1.7-2.8c0.6-0.4,1.4-0.5,2.2-0.5c1.1,0,1.6,0.2,1.9,0.2
		c0,0.3,0,0.9,0.1,1.5c0,0.1-0.3,0.1-0.4,0c-0.3-0.9-0.9-1.3-1.8-1.3c-1.5,0-2.2,1.2-2.2,2.7c0,1.3,0.5,2.2,1.1,2.6
		c0.5,0.3,0.9,0.4,1.3,0.4c0.5,0,0.7-0.1,0.7-0.7v-0.6c0-0.5-0.1-0.6-0.5-0.6l-0.4-0.1c-0.1-0.1-0.1-0.3,0-0.3c0.7,0,1.1,0,1.6,0
		c0.5,0,0.9,0,1.2,0c0.1,0.1,0.1,0.3,0,0.3l-0.2,0.1c-0.3,0-0.3,0.1-0.3,0.7V90.9L46,90.9z"/>
	<path class="st0" d="M49.1,90.6c0,0.9,0.1,0.9,0.5,1l0.3,0c0.1,0.1,0.1,0.3,0,0.3c-0.5,0-1,0-1.4,0c-0.5,0-0.9,0-1.4,0
		c-0.1-0.1-0.1-0.3,0-0.3l0.3,0c0.4-0.1,0.5-0.1,0.5-1v-3.5c0-0.9-0.1-0.9-0.5-1L47,86C47,86,47,85.8,47,85.7c0.5,0,1,0,1.4,0
		c0.4,0,0.9,0,1.4,0c0.1,0.1,0.1,0.3,0,0.3l-0.3,0c-0.4,0.1-0.5,0.1-0.5,1V90.6L49.1,90.6z"/>
	<path class="st0" d="M52.6,88.3c0,0.2,0,0.3,0.3,0.3h0.7c0.5,0,0.6-0.1,0.7-0.5l0-0.2c0.1-0.1,0.3-0.1,0.4,0c0,0.3,0,0.7,0,1
		s0,0.7,0,1c-0.1,0.1-0.3,0.1-0.4,0l0-0.2c-0.1-0.5-0.2-0.5-0.7-0.5h-0.7c-0.2,0-0.3,0-0.3,0.3v1.3c0,0.9,0.1,0.9,0.5,1l0.4,0
		c0.1,0.1,0.1,0.3,0,0.3c-0.6,0-1.1,0-1.5,0c-0.4,0-0.9,0-1.5,0c-0.1-0.1-0.1-0.3,0-0.3l0.3,0c0.4-0.1,0.5-0.1,0.5-1v-3.5
		c0-0.9-0.1-1-0.5-1l-0.2,0c-0.1-0.1-0.1-0.3,0-0.3c0.4,0,0.9,0,1.3,0h2c0.6,0,1.2,0,1.3,0c0,0.2,0,0.8,0,1.5c0,0.1-0.2,0.1-0.4,0
		c-0.1-0.4-0.2-0.6-0.3-0.7c-0.2-0.2-0.4-0.3-0.9-0.3h-0.7c-0.3,0-0.3,0-0.3,0.4L52.6,88.3L52.6,88.3z"/>
	<path class="st0" d="M58.1,86.5c0-0.2,0-0.3-0.2-0.3h-0.6c-0.7,0-0.9,0.4-1.2,1.1c-0.1,0.1-0.3,0-0.4-0.1c0.2-0.7,0.2-1.2,0.3-1.6
		c0,0,0.1,0,0.1,0s0.1,0,0.1,0c0,0.2,0.1,0.2,0.8,0.2h3.5c0.6,0,0.8,0,0.8-0.2c0,0,0.1,0,0.1,0c0.1,0,0.1,0,0.1,0.1
		c-0.1,0.3-0.2,1.1-0.1,1.6c0,0.1-0.3,0.1-0.4,0c-0.2-0.6-0.3-1.1-1-1.1h-0.6c-0.2,0-0.2,0-0.2,0.3v4.2c0,0.9,0.1,0.9,0.5,1l0.4,0
		c0.1,0.1,0.1,0.3,0,0.3c-0.6,0-1.1,0-1.5,0c-0.5,0-0.9,0-1.6,0c-0.1-0.1-0.1-0.3,0-0.3l0.4,0c0.4,0,0.5-0.1,0.5-1L58.1,86.5
		L58.1,86.5z"/>
	<path class="st0" d="M66.2,90.4c0,0.4,0,0.7,0.2,0.9c0.1,0.2,0.3,0.2,1,0.2c0.9,0,1.1,0,1.7-1.1c0.1-0.1,0.3-0.1,0.4,0.1
		c0,0.5-0.3,1.3-0.4,1.5c-0.5,0-1.4,0-2.2,0h-1.3c-0.4,0-0.9,0-1.5,0c-0.1-0.1-0.1-0.3,0-0.3l0.4,0c0.4-0.1,0.5-0.1,0.5-1v-3.5
		c0-0.9-0.1-1-0.5-1L64,86c-0.1-0.1-0.1-0.3,0-0.3c0.5,0,1,0,1.4,0s0.9,0,1.4,0c0.1,0.1,0.1,0.3,0,0.3l-0.2,0
		c-0.4,0.1-0.5,0.1-0.5,1L66.2,90.4L66.2,90.4L66.2,90.4z"/>
	<path class="st0" d="M71.7,90.6c0,0.9,0.1,0.9,0.5,1l0.3,0c0.1,0.1,0.1,0.3,0,0.3c-0.5,0-1,0-1.4,0c-0.5,0-0.9,0-1.4,0
		c-0.1-0.1-0.1-0.3,0-0.3l0.3,0c0.4-0.1,0.5-0.1,0.5-1v-3.5c0-0.9-0.1-0.9-0.5-1l-0.3,0c-0.1-0.1-0.1-0.3,0-0.3c0.5,0,1,0,1.4,0
		c0.4,0,0.9,0,1.4,0c0.1,0.1,0.1,0.3,0,0.3l-0.3,0c-0.4,0.1-0.5,0.1-0.5,1L71.7,90.6L71.7,90.6z"/>
	<path class="st0" d="M74.9,92.1c-0.9,0-1.4-0.2-1.6-0.4c-0.2-0.2-0.3-0.9-0.3-1.5c0.1-0.1,0.3-0.1,0.4,0c0.2,0.6,0.8,1.5,1.6,1.5
		c0.7,0,1-0.5,1-0.9c0-0.8-0.7-1.2-1.3-1.5c-0.7-0.3-1.4-0.9-1.4-1.8c0-1.1,0.8-1.8,2.2-1.8c0.3,0,0.7,0,1.1,0.2
		c0.1,0,0.2,0.1,0.3,0.1c0.1,0.2,0.2,0.7,0.2,1.3c0,0.1-0.3,0.1-0.4,0c-0.2-0.5-0.6-1.2-1.2-1.2c-0.6,0-1,0.4-1,0.9
		c0,0.4,0.4,0.8,0.9,1.1l0.6,0.3c0.6,0.3,1.3,0.9,1.3,1.9C77.3,91.4,76.3,92.1,74.9,92.1z"/>
	<path class="st0" d="M79.9,86.5c0-0.2,0-0.3-0.2-0.3h-0.6c-0.7,0-0.9,0.4-1.2,1.1c-0.1,0.1-0.3,0-0.4-0.1c0.2-0.7,0.2-1.2,0.3-1.6
		c0,0,0.1,0,0.1,0c0,0,0.1,0,0.1,0c0,0.2,0.1,0.2,0.8,0.2h3.5c0.6,0,0.8,0,0.8-0.2c0,0,0.1,0,0.1,0s0.1,0,0.1,0.1
		c-0.1,0.3-0.2,1.1-0.1,1.6c0,0.1-0.3,0.1-0.4,0c-0.2-0.6-0.3-1.1-1-1.1h-0.6c-0.2,0-0.2,0-0.2,0.3v4.2c0,0.9,0.1,0.9,0.5,1l0.4,0
		c0.1,0.1,0.1,0.3,0,0.3c-0.6,0-1.1,0-1.5,0c-0.5,0-0.9,0-1.6,0c-0.1-0.1-0.1-0.3,0-0.3l0.4,0c0.4,0,0.5-0.1,0.5-1L79.9,86.5
		L79.9,86.5z"/>
</g>
<path class="st0" d="M60.9,82.5C60.9,82.5,60.9,82.5,60.9,82.5c0.7,0,1.3,0,2,0c0.5,0,0.7-0.2,0.8-0.7c0-0.3,0.3-0.8,0-0.9
	c-0.4-0.2-0.4,0.4-0.6,0.6c-0.4,0.5-2,0.7-2.2,0.2c-0.3-0.6-0.2-1.3-0.2-2c0-0.1,0.1-0.2,0.2-0.2c0.5,0.1,1.2-0.3,1.3,0.5
	c0,0.1,0.1,0.2,0.2,0.2c0.2,0,0.2-0.2,0.2-0.3c0-0.5,0-0.9,0-1.4c0-0.1,0.1-0.3-0.1-0.4c-0.2-0.1-0.2,0.2-0.3,0.3
	c-0.1,0.3-0.3,0.4-0.6,0.5c-0.9,0.1-0.9,0-0.9-1.1c0-1.2,0.6-1.6,1.7-1.1c0.3,0.1,0.4,0.4,0.6,0.7c0.1,0.1,0.2,0.4,0.4,0.1
	c0.2-0.4,0.1-0.8,0-1.2c-0.1-0.3-0.4-0.2-0.6-0.2c-1.3,0-2.5,0.1-3.8-0.1c-0.1,0-0.2,0-0.3,0.1c-0.1,0.2,0,0.3,0.2,0.3
	c0.5,0.1,0.5,0.5,0.5,0.9c0,1.2,0,2.5,0,3.8c0,0.5-0.1,0.8-0.7,0.9c-0.2,0-0.3,0.1-0.3,0.2c0,0.2,0.2,0.2,0.3,0.2
	C59.4,82.5,60.2,82.5,60.9,82.5z"/>
<path class="st0" d="M40.5,82.5c0.4,0,0.7,0,1.1,0c0.1,0,0.3,0.1,0.4-0.1c0.1-0.2-0.1-0.2-0.2-0.3c-0.5-0.1-0.5-0.5-0.5-0.9
	c0-1.3,0-2.6,0-3.8c0-0.4,0.1-0.7,0.5-0.8c0.1,0,0.3-0.1,0.2-0.3c-0.1-0.2-0.2-0.2-0.4-0.2c-0.7,0.1-1.4,0.1-2.2,0
	c-0.2,0-0.3,0-0.4,0.1c-0.1,0.2,0.1,0.3,0.3,0.3c0.5,0.1,0.5,0.4,0.5,0.8c0,1.2,0,2.4,0,3.6c0,0.5,0,1-0.6,1.1
	c-0.1,0-0.2,0.1-0.1,0.3c0,0.1,0.1,0.1,0.2,0.1C39.7,82.5,40.1,82.5,40.5,82.5z"/>
<path class="st0" d="M0,21.7c2.1,0,4.1-0.3,5.9-1.5c2.2-1.4,3.3-3.6,3.8-6.1c0.1-0.7,0.2-1.3,0.3-2c0-0.4,0.1-0.5,0.5-0.5
	c4.5,0,9,0,13.5,0c0.3,0,0.5,0.1,0.5,0.5c0,0.5-0.3,0.4-0.6,0.4c-4.1,0-8.2,0-12.3,0c-0.6,0-0.7,0.1-0.8,0.7c-0.3,2.5-1.2,4.8-3,6.6
	c-1.7,1.8-3.9,2.6-6.3,2.7c-0.6,0-0.7,0.2-0.7,0.7c0,14.8,0,29.6,0,44.4c0,0.5,0.2,0.7,0.7,0.7c3.4,0.5,6.3,1.8,8.1,4.8
	c0.8,1.3,1.2,2.8,1.3,4.4c0,0.6,0.2,0.7,0.8,0.7c4.1,0,8.1,0,12.2,0c0.3,0,0.7-0.1,0.7,0.5c0,0.6-0.3,0.5-0.7,0.5
	c-3.2,0-6.4,0-9.6,0c-1.2,0-2.3,0-3.5,0c-0.5,0-0.7-0.1-0.7-0.7c0-1.8-0.4-3.6-1.4-5.2c-1.6-2.5-4-3.6-6.8-4.1
	c-0.6-0.1-1.3-0.2-1.9-0.1C0,53.3,0,37.5,0,21.7z"/>
<path class="st0" d="M98.7,69.2c-2.1-0.1-4.1,0.3-5.8,1.4c-2.3,1.4-3.4,3.6-4,6.1c-0.1,0.6-0.3,1.2-0.2,1.8c0,0.7-0.3,0.7-0.8,0.7
	c-2.9,0-5.8,0-8.7,0c-1.3,0-2.6,0-3.8,0c-0.4,0-0.7,0.1-0.7-0.5c0-0.6,0.4-0.5,0.7-0.5c3.9,0,7.8,0,11.7,0c0.6,0,0.8-0.1,0.9-0.7
	c0.3-2.5,1.2-4.8,3.1-6.6c1.7-1.7,3.8-2.5,6.1-2.6c0.6,0,0.8-0.2,0.8-0.8c0-14.7,0-29.5,0-44.2c0-0.5-0.1-0.7-0.7-0.8
	c-2.5-0.3-4.8-1.2-6.6-3c-1.8-1.7-2.6-3.9-2.7-6.3c0-0.6-0.2-0.8-0.8-0.8c-4,0-8,0-12,0c-0.2,0-0.5,0.1-0.7-0.2
	c-0.2-0.4,0-0.7,0.5-0.7c1.7,0,3.3,0,5,0c2.7,0,5.3,0,7.9,0c1.2,0,0.9,0,1,0.9c0.1,2.1,0.6,4,2,5.7c1.5,1.7,3.4,2.7,5.6,3.2
	c0.8,0.2,1.7,0.3,2.5,0.3C98.7,37.5,98.7,53.3,98.7,69.2z"/>
<path class="st0" d="M56.2,82.6c-0.3-0.8-1-1.4-1.5-2.1c-0.7-0.9-1.4-1.8-2.3-2.8c0,1.4,0,2.6,0,3.7c0,0.4,0.2,0.6,0.6,0.7
	c0.1,0,0.3,0,0.3,0.2c0,0.2-0.2,0.2-0.3,0.2c-0.6,0-1.2,0-1.8,0c-0.1,0-0.2,0-0.3-0.1c0-0.2,0.1-0.2,0.2-0.3
	c0.4-0.1,0.5-0.4,0.5-0.7c0-1.4,0-2.7,0-4.1c0-0.4-0.2-0.5-0.5-0.6c-0.1,0-0.4-0.1-0.3-0.3c0.1-0.2,0.3-0.1,0.4-0.1
	c2-0.5,2.5,1.3,3.5,2.3c0.5,0.5,0.9,1,1.4,1.7c0-1.2,0-2.1,0-3.1c0-0.3-0.3-0.4-0.6-0.5c-0.1,0-0.3,0-0.3-0.2c0-0.2,0.2-0.2,0.3-0.2
	c0.6,0.1,1.2,0.1,1.8,0c0.1,0,0.2,0,0.3,0.1c0,0.1-0.1,0.2-0.2,0.2c-0.6,0.2-0.6,0.7-0.6,1.2c0,1.3,0,2.7,0,4c0,0.3,0,0.6-0.3,0.8
	C56.4,82.6,56.3,82.6,56.2,82.6z"/>
<path class="st0" d="M48.4,82.6c-0.3-0.8-1-1.4-1.6-2.2c-0.7-0.9-1.4-1.7-2.3-2.8c0,1.4,0,2.6,0,3.7c0,0.4,0.2,0.6,0.6,0.7
	c0.1,0,0.3,0,0.3,0.2c0,0.2-0.2,0.2-0.4,0.2c-0.6,0-1.1,0-1.7,0c-0.1,0-0.3,0-0.4-0.1c-0.1-0.2,0.1-0.2,0.2-0.3
	c0.5-0.1,0.6-0.5,0.6-0.9c0-1.3,0-2.6,0-3.9c0-0.4-0.1-0.6-0.5-0.7c-0.1,0-0.4-0.1-0.3-0.3c0.1-0.2,0.2-0.2,0.4-0.1
	c0.1,0,0.2,0.1,0.3,0.1c1.3-0.4,1.9,0.6,2.5,1.4c0.6,0.8,1.3,1.6,2.1,2.5c0-1.2,0-2.2,0-3.2c0-0.3-0.3-0.4-0.6-0.5
	c-0.1,0-0.3,0-0.3-0.2c0-0.2,0.2-0.2,0.3-0.2c0.6,0.1,1.2,0.1,1.8,0c0.1,0,0.2,0,0.3,0.1c0,0.1-0.1,0.2-0.2,0.2
	c-0.6,0.2-0.6,0.7-0.6,1.2c0,1.3,0,2.7,0,4c0,0.3,0,0.6-0.3,0.8C48.6,82.6,48.5,82.6,48.4,82.6z"/>
<path class="st0" d="M60.9,82.5c-0.7,0-1.5,0-2.2,0c-0.1,0-0.3,0-0.3-0.2c0-0.2,0.1-0.2,0.3-0.2c0.6,0,0.7-0.4,0.7-0.9
	c0-1.2,0-2.5,0-3.8c0-0.4,0-0.7-0.5-0.9c-0.1,0-0.2-0.1-0.2-0.3c0.1-0.1,0.2-0.1,0.3-0.1c1.3,0.2,2.5,0,3.8,0.1
	c0.2,0,0.5-0.1,0.6,0.2c0.1,0.4,0.2,0.8,0,1.2c-0.1,0.2-0.3,0-0.4-0.1c-0.1-0.3-0.2-0.6-0.6-0.7c-1.1-0.5-1.7-0.1-1.7,1.1
	c0,1.1,0.1,1.2,0.9,1.1c0.3,0,0.5-0.1,0.6-0.5c0-0.2,0.1-0.4,0.3-0.3c0.2,0,0.1,0.2,0.1,0.4c0,0.5,0,0.9,0,1.4c0,0.1,0,0.3-0.2,0.3
	c-0.1,0-0.2-0.1-0.2-0.2c-0.2-0.8-0.8-0.5-1.3-0.5c-0.1,0-0.2,0.1-0.2,0.2c0,0.7-0.1,1.3,0.2,2c0.2,0.5,1.8,0.3,2.2-0.2
	c0.2-0.2,0.2-0.8,0.6-0.6c0.3,0.1,0,0.6,0,0.9c-0.1,0.5-0.3,0.7-0.8,0.7C62.2,82.5,61.6,82.5,60.9,82.5
	C60.9,82.5,60.9,82.5,60.9,82.5z"/>
<path class="st0" d="M40.5,82.5c-0.4,0-0.8,0-1.2,0c-0.1,0-0.2-0.1-0.2-0.1c-0.1-0.1,0-0.2,0.1-0.3c0.7-0.1,0.6-0.6,0.6-1.1
	c0-1.2,0-2.4,0-3.6c0-0.4,0-0.7-0.5-0.8c-0.1,0-0.4-0.1-0.3-0.3c0.1-0.2,0.2-0.2,0.4-0.1c0.7,0.1,1.4,0.1,2.2,0c0.2,0,0.4,0,0.4,0.2
	c0,0.2-0.1,0.2-0.2,0.3c-0.5,0.1-0.5,0.4-0.5,0.8c0,1.3,0,2.6,0,3.8c0,0.4,0,0.8,0.5,0.9c0.1,0,0.3,0.1,0.2,0.3
	c-0.1,0.2-0.2,0.1-0.4,0.1C41.3,82.5,40.9,82.5,40.5,82.5z"/>
<path class="st0" d="M62,5.5c-1.6-0.2-3.1-0.5-4.6-1c-0.2,0-0.4-0.1-0.4-0.3c0-0.2,0.2-0.2,0.4-0.3c0.6-0.2,1.2-0.3,1.8-0.4
	C60.5,3.4,61.8,4.3,62,5.5L62,5.5z"/>
<path class="st0" d="M66.5,29.5c0,0-0.1-0.1,0-0.1C66.5,29.4,66.5,29.4,66.5,29.5L66.5,29.5z"/>
</svg>
