<svg id="Layer_1" data-name="Layer 1" xmlns="http://www.w3.org/2000/svg" viewBox="0 0 924.67 344.47"><defs><style>.cls-1{fill:#7d7b80;}</style></defs><title>PRZ.logo_grey</title><path class="cls-1" d="M314.74,187.93h66V168.87H336.45v-20H373.5v-17.6H336.45V113h43.14V94H314.74Zm107.3,0h74.51V168.87H449.31L496,110.24V94H423.9V113h47L422,171.65Zm408.66,31.56h-28v4.69h11v26.34h6V224.17h11Zm-45.42,23.25a3,3,0,0,1-1.36,2.53,6,6,0,0,1-3.55,1q-4.4,0-9.37-4.13V248a22.32,22.32,0,0,0,4.81,2.25,17.66,17.66,0,0,0,5.12.65,11.09,11.09,0,0,0,7.45-2.45,8.07,8.07,0,0,0,2.88-6.45,8.43,8.43,0,0,0-1.69-5.28,14.74,14.74,0,0,0-5.51-4q-4.46-2-5.13-2.49-2.38-1.49-2.38-3.24a2.71,2.71,0,0,1,1.28-2.34,6.18,6.18,0,0,1,3.54-.88q3.73,0,8.55,2.91v-5.33a18.15,18.15,0,0,0-8.73-2.26,12,12,0,0,0-7.68,2.32,7.56,7.56,0,0,0-2.91,6.23,7.92,7.92,0,0,0,1.81,5.15,14.85,14.85,0,0,0,5.47,3.89q3.09,1.49,5,2.55a4,4,0,0,1,2.36,3.51M755.5,219.49h-6v31h6Zm19.09-67.56L785.84,117l10.85,34.94Zm2.52-58-36.13,94h23l7.15-21H800.4l7.28,21h23l-36-94ZM720.86,219.49h-6v31h21.05v-4.69H720.86Zm-40.95,0h-28v4.69h11v26.34h6V224.17h11ZM667.92,94h-21.7v94h67.23V168.87H667.92ZM639.65,219.49H620.73v31h6V236.92h12.92v-4.73H626.73v-8h12.92Zm-35.35,0h-6v31h6Zm-49.73,7.37a15.48,15.48,0,0,0-2.25,8.24,15.12,15.12,0,0,0,8.45,13.79,19.38,19.38,0,0,0,8.89,2,24.59,24.59,0,0,0,6.67-.9,18.05,18.05,0,0,0,5.49-2.5V234.72H570.7v4.68h5.13v5.15a18.46,18.46,0,0,1-3.1.93,14.59,14.59,0,0,1-2.72.25,11.86,11.86,0,0,1-8.34-2.9,9.88,9.88,0,0,1-3.16-7.65,11.2,11.2,0,0,1,1.46-5.67,9.72,9.72,0,0,1,4.1-3.9,13,13,0,0,1,6-1.35,24.38,24.38,0,0,1,11.1,2.86v-5.48a27.33,27.33,0,0,0-11.37-2.56,19.56,19.56,0,0,0-9,2,15.29,15.29,0,0,0-6.28,5.73m-6.91-85.78a37.61,37.61,0,0,1,1.46-10.39,29.14,29.14,0,0,1,4.3-9.07,22.41,22.41,0,0,1,7.08-6.42,19.47,19.47,0,0,1,9.93-2.45,19.84,19.84,0,0,1,9.66,2.32,22,22,0,0,1,7.15,6.22,28.63,28.63,0,0,1,4.43,9,36.59,36.59,0,0,1,1.52,10.52,39.26,39.26,0,0,1-1.39,10.39,28.89,28.89,0,0,1-4.23,9.13,22.83,22.83,0,0,1-7.08,6.55,19.09,19.09,0,0,1-9.92,2.51,20,20,0,0,1-9.86-2.38,21.46,21.46,0,0,1-7.15-6.35,30.16,30.16,0,0,1-4.37-9.07,36.46,36.46,0,0,1-1.52-10.52m-18.72-18.13a48.48,48.48,0,0,0-3.37,17.86,49.85,49.85,0,0,0,3.24,17.73,49,49,0,0,0,9.13,15.29A45.93,45.93,0,0,0,552,184.62a40.24,40.24,0,0,0,18.26,4.1,41.16,41.16,0,0,0,18.06-4,45.8,45.8,0,0,0,14.23-10.52,49.53,49.53,0,0,0,12.7-33,50.08,50.08,0,0,0-3.18-17.47A49,49,0,0,0,603,108.39a45.55,45.55,0,0,0-14.1-10.85,40.29,40.29,0,0,0-18.26-4.1,41.8,41.8,0,0,0-18.07,3.9,45.69,45.69,0,0,0-14.29,10.46,48.06,48.06,0,0,0-9.4,15.15M489.5,226.86a15.49,15.49,0,0,0-2.26,8.24,15.12,15.12,0,0,0,8.45,13.79,19.37,19.37,0,0,0,8.89,2,24.61,24.61,0,0,0,6.67-.9,18.06,18.06,0,0,0,5.49-2.5V234.72H505.63v4.68h5.13v5.15a18.52,18.52,0,0,1-3.1.93,14.61,14.61,0,0,1-2.72.25,11.86,11.86,0,0,1-8.34-2.9,9.88,9.88,0,0,1-3.16-7.65,11.21,11.21,0,0,1,1.46-5.67,9.72,9.72,0,0,1,4.1-3.9,13.05,13.05,0,0,1,6-1.35,24.37,24.37,0,0,1,11.1,2.86v-5.48a27.32,27.32,0,0,0-11.37-2.56,19.56,19.56,0,0,0-9,2,15.28,15.28,0,0,0-6.29,5.73m-41.31-7.37h-5.26v31h5.86v-22l18.54,22h5.15v-31h-5.86v21.65Zm-21.7,0h-6v31h6Zm-37.85,4.69a11.29,11.29,0,0,1,8.16,2.91,11.78,11.78,0,0,1,0,15.75,10.83,10.83,0,0,1-8,3h-6.37V224.17Zm.82-4.69h-13v31h12.64a19.56,19.56,0,0,0,8.86-1.93,14.1,14.1,0,0,0,6-5.45,15.46,15.46,0,0,0,2.1-8.07,15.66,15.66,0,0,0-2.09-8,14.33,14.33,0,0,0-5.86-5.55,18.29,18.29,0,0,0-8.62-2m-44.8,4.69a11.29,11.29,0,0,1,8.16,2.91,11.78,11.78,0,0,1,0,15.75,10.83,10.83,0,0,1-8,3h-6.37V224.17Zm.82-4.69h-13v31h12.64a19.56,19.56,0,0,0,8.86-1.93,14.11,14.11,0,0,0,6-5.45,15.46,15.46,0,0,0,2.1-8.07,15.65,15.65,0,0,0-2.09-8,14.34,14.34,0,0,0-5.86-5.55,18.29,18.29,0,0,0-8.61-2m-29.32,0H296.11v31h20.36v-4.69H302.11V237h13.46v-4.69H302.11v-8.15h14.06Zm-75.81,0h-6.2L247,250.91h2l9.82-23,9.77,23h2l12.77-31.42h-6.13l-7.7,19.21-8.17-19.21h-5.06l-8.13,19.14Zm.1-106.47q3.7,0,6.88,3.44t3.18,9.27a14.94,14.94,0,0,1-2.78,9.33,8.15,8.15,0,0,1-6.62,3.64H221.27V113ZM241.91,94H199.57v94h21.7V157.62h14.16l18.93,30.31h24.48L257.27,153a28.75,28.75,0,0,0,11.25-11.25,32.75,32.75,0,0,0,4.1-16,30.33,30.33,0,0,0-2.32-11.51A34.14,34.14,0,0,0,263.88,104a32.57,32.57,0,0,0-9.73-7.28A27.26,27.26,0,0,0,241.91,94M199,219.49H178.92v31h20.36v-4.69H184.91V237h13.46v-4.69H184.91v-8.15H199Zm-58.1,0h-6v31h6v-13.1H157v13.1h6v-31h-6v13.06h-16.1Zm-18.89,0H94v4.69h11v26.34h6V224.17h11ZM132.61,113a10.12,10.12,0,0,1,3.71.73,8.84,8.84,0,0,1,3.31,2.32,11.66,11.66,0,0,1,2.32,4,16.82,16.82,0,0,1,.86,5.69q0,6.35-2.78,9.66a8.39,8.39,0,0,1-6.62,3.31H115.67V113ZM134.07,94H94v94h21.7V157.62h19.06A28.26,28.26,0,0,0,147,155a28.65,28.65,0,0,0,9.46-7.15,34,34,0,0,0,6.09-10.19,33,33,0,0,0,2.18-11.91,30.33,30.33,0,0,0-2.32-11.51A34.82,34.82,0,0,0,156.1,104a31.74,31.74,0,0,0-9.66-7.28A27.54,27.54,0,0,0,134.07,94M903.29,323.1H21.38V21.38H903.29ZM924.67,0H0V344.47H924.67Z"/></svg>