<?xml version="1.0" encoding="utf-8"?>
<!-- Generator: Adobe Illustrator 19.2.1, SVG Export Plug-In . SVG Version: 6.00 Build 0)  -->
<svg version="1.1" id="Layer_1" xmlns="http://www.w3.org/2000/svg"  x="0px" y="0px"
	 viewBox="0 0 47.5 48.2" style="enable-background:new 0 0 47.5 48.2;" xml:space="preserve">
<style type="text/css">
	.st0{fill:#DF6B8E;}
</style>
<g>
	<path class="st0" d="M23.8,47.7C10.7,47.7,0,37,0,23.9S10.7,0.1,23.8,0.1s23.8,10.7,23.8,23.8C47.5,37,36.9,47.7,23.8,47.7z
		 M23.8,3.1C12.3,3.1,3,12.5,3,23.9s9.3,20.8,20.8,20.8s20.8-9.3,20.8-20.8S35.2,3.1,23.8,3.1z"/>
	<path class="st0" d="M20.8,32.1c-0.4,0-0.8-0.1-1.1-0.4l-5.6-5.2c-0.7-0.6-0.7-1.6-0.1-2.3c0.6-0.7,1.6-0.7,2.3-0.1l4.5,4.1
		l11.7-12.4c0.6-0.6,1.6-0.7,2.3-0.1c0.6,0.6,0.7,1.6,0.1,2.3L22,31.5C21.7,31.9,21.3,32.1,20.8,32.1z"/>
</g>
</svg>
