<?xml version="1.0" encoding="utf-8"?>
<!-- Generator: Adobe Illustrator 19.2.1, SVG Export Plug-In . SVG Version: 6.00 Build 0)  -->
<svg version="1.1" id="Layer_1" xmlns="http://www.w3.org/2000/svg"  x="0px" y="0px"
	 viewBox="0 0 43 38.2" style="enable-background:new 0 0 43 38.2;" xml:space="preserve">
<style type="text/css">
	.st0{fill:#DF6B8E;}
</style>
<g>
	<path class="st0" d="M39.3,18.9c-0.5,0-0.9-0.3-1-0.8c-0.2-0.6,0.2-1.2,0.7-1.3c1-0.3,1.6-0.7,1.8-1.3c0.4-1-0.3-2.4-0.6-2.9
		s-0.2-1.2,0.3-1.5s1.2-0.2,1.5,0.3c0,0.1,0.4,0.7,0.7,1.5c0.4,1.2,0.5,2.3,0.1,3.3c-0.5,1.3-1.5,2.1-3.2,2.6
		C39.5,18.9,39.4,18.9,39.3,18.9z"/>
</g>
<g>
	<circle class="st0" cx="13.6" cy="14.4" r="1.5"/>
</g>
<g>
	<path class="st0" d="M30.9,13.4c-0.3,0-0.6-0.1-0.8-0.3c-1.4-1.4-3.1-2.3-5.1-2.5c-1.5-0.2-2.6,0-2.7,0c-0.6,0.1-1.2-0.3-1.3-0.8
		c-0.1-0.6,0.3-1.2,0.8-1.3c0.2,0,5.5-1.1,9.7,3.1c0.4,0.4,0.4,1.1,0,1.5C31.5,13.3,31.2,13.4,30.9,13.4z"/>
</g>
<g>
	<path class="st0" d="M17.6,38.2H9.3c-0.4,0-0.7-0.2-0.9-0.5s-0.2-0.7-0.1-1l2.1-5.4c-2.8-2.2-4.4-4.6-5-5.6l-4.7-1.6
		C0.3,24,0,23.6,0,23.1V16c0-0.5,0.4-1,0.9-1.1l4.4-0.8c1.2-3.1,3.6-5.8,6.6-7.6L9.3,2.3C9.2,2,9.1,1.7,9.2,1.4
		c0.1-0.3,0.3-0.6,0.6-0.7c0.2-0.1,4.1-1.5,7.2,0c1.3,0.6,2.3,1.7,2.9,3.2c0.7-0.1,1.5-0.1,2.2-0.1c4.7,0,9.2,1.6,12.6,4.5
		c3.4,3,5.3,6.9,5.3,11.1c0,2.7-0.8,5.2-2.2,7.5c-1.2,1.9-3,3.6-5,4.9l1.9,5c0.1,0.3,0.1,0.7-0.1,1c-0.2,0.3-0.5,0.5-0.9,0.5h-8.3
		c-0.4,0-0.8-0.3-1-0.7L23.3,35c-0.3,0-0.6,0.1-1,0.1c-0.8,0-1.7,0-2.5,0l-1.1,2.6C18.5,38,18.1,38.2,17.6,38.2z M10.9,36.1h6
		l1.1-2.7c0.2-0.4,0.6-0.7,1.1-0.6c1,0.1,1.9,0.2,2.9,0.1c0.6,0,1.1-0.1,1.7-0.2c0.5-0.1,0.9,0.2,1.1,0.6L26,36h6l-1.7-4.4
		c-0.2-0.5,0-1.1,0.5-1.3c4.4-2.5,7-6.5,7-10.9c0-7.4-7-13.5-15.7-13.5c-0.9,0-1.9,0.1-2.8,0.2c-0.5,0.1-1.1-0.2-1.2-0.8
		c-0.4-1.3-1-2.2-2.1-2.7c-1.3-0.7-3-0.5-4.2-0.3l2.5,4c0.2,0.3,0.2,0.6,0.1,0.9c-0.1,0.3-0.3,0.5-0.5,0.7c-3.3,1.7-5.7,4.4-6.8,7.6
		c-0.1,0.4-0.5,0.6-0.8,0.7l-4.2,0.7v5.4l4.3,1.5c0.3,0.1,0.5,0.3,0.6,0.5c0,0,1.7,3.3,5.2,5.7c0.4,0.3,0.6,0.8,0.4,1.3L10.9,36.1z"
		/>
</g>
</svg>
